# Blender 5.2.0 LTS
# www.blender.org
mtllib leap_mount.mtl
o leap_mount
v 0.025400 -0.029856 0.012192
v 0.041738 -0.029856 0.006240
v 0.025400 -0.004356 0.012192
v 0.041738 -0.004356 0.006240
v 0.037086 0.029856 0.012192
v 0.037086 0.046969 0.012192
v 0.035964 0.045306 0.011345
v 0.035031 0.043590 0.010641
v 0.034253 0.041718 0.010054
v 0.033700 0.039810 0.009637
v 0.033386 0.037970 0.009400
v 0.033281 0.036120 0.009321
v 0.033281 0.029856 0.009321
v 0.017700 -0.004356 -0.038608
v 0.017700 -0.029856 -0.038608
v 0.016832 -0.029856 -0.038532
v 0.016832 -0.004356 -0.038532
v 0.015990 -0.029856 -0.038306
v 0.015989 -0.004356 -0.038306
v 0.015200 0.029856 -0.037938
v 0.015938 0.029856 -0.038287
v 0.015938 -0.004356 -0.038288
v 0.015200 -0.029856 -0.037938
v 0.014486 -0.029856 -0.037438
v 0.014486 0.029856 -0.037438
v 0.013870 -0.029856 -0.036822
v 0.013870 0.029856 -0.036822
v 0.013370 -0.029856 -0.036108
v 0.013370 0.029856 -0.036108
v 0.013002 -0.029856 -0.035318
v 0.013002 0.029856 -0.035318
v 0.012776 -0.029856 -0.034476
v 0.012776 0.029856 -0.034476
v 0.012700 -0.029856 -0.033608
v 0.012700 0.029856 -0.033608
v -0.025400 0.029856 -0.038608
v -0.025400 0.029856 0.012192
v -0.012938 0.029856 0.006350
v -0.012938 0.029856 0.012192
v 0.012700 0.029856 0.000127
v 0.012938 0.029856 0.012192
v 0.012938 0.029856 0.006350
v -0.012700 0.029856 0.000127
v -0.012700 0.029856 -0.033608
v -0.015990 0.029856 -0.038306
v -0.016832 0.029856 -0.038532
v -0.017700 0.029856 -0.038608
v -0.012776 0.029856 -0.034476
v -0.013002 0.029856 -0.035318
v -0.014486 0.029856 -0.037438
v -0.013370 0.029856 -0.036108
v -0.013870 0.029856 -0.036822
v -0.015200 0.029856 -0.037938
v 0.025400 -0.004356 -0.038608
v 0.025400 -0.029856 -0.038608
v 0.025993 -0.004356 -0.036981
v 0.041738 0.036120 0.006240
v 0.028571 -0.004071 -0.029904
v 0.028486 -0.003824 -0.030136
v 0.025993 0.036120 -0.036981
v 0.027020 0.036120 -0.034162
v 0.028046 -0.003356 -0.031343
v 0.028389 -0.003624 -0.030404
v 0.028281 -0.003477 -0.030701
v 0.028165 -0.003386 -0.031017
v 0.028281 -0.007235 -0.030701
v 0.028389 -0.007088 -0.030404
v 0.028486 -0.006888 -0.030136
v 0.028571 -0.006642 -0.029904
v 0.027362 -0.005356 -0.033223
v 0.027372 -0.005703 -0.033194
v 0.028731 -0.005356 -0.029464
v 0.028721 -0.005009 -0.029493
v 0.028690 -0.004672 -0.029578
v 0.028639 -0.004356 -0.029716
v 0.027606 -0.003824 -0.032551
v 0.027522 -0.004071 -0.032783
v 0.027454 -0.004356 -0.032971
v 0.028639 -0.006356 -0.029716
v 0.028690 -0.006040 -0.029578
v 0.028721 -0.005703 -0.029493
v 0.027403 -0.006040 -0.033109
v 0.027454 -0.006356 -0.032971
v 0.027522 -0.006642 -0.032783
v 0.027927 -0.003386 -0.031670
v 0.027812 -0.003477 -0.031986
v 0.027704 -0.003624 -0.032283
v 0.027403 -0.004672 -0.033109
v 0.027372 -0.005009 -0.033194
v 0.027927 -0.007326 -0.031670
v 0.028046 -0.007356 -0.031343
v 0.028165 -0.007326 -0.031017
v 0.027606 -0.006888 -0.032551
v 0.027704 -0.007088 -0.032283
v 0.027812 -0.007235 -0.031986
v 0.003378 -0.019050 0.006350
v 0.003378 -0.019050 0.000127
v 0.003327 -0.019637 0.006350
v 0.003327 -0.019637 0.000127
v 0.003174 -0.020205 0.006350
v 0.003174 -0.020205 0.000127
v 0.002926 -0.020739 0.006350
v 0.002926 -0.020739 0.000127
v 0.002588 -0.021221 0.006350
v 0.002588 -0.021221 0.000127
v 0.002171 -0.021638 0.006350
v 0.002171 -0.021638 0.000127
v 0.001689 -0.021976 0.006350
v 0.001689 -0.021976 0.000127
v 0.001155 -0.022224 0.006350
v 0.001155 -0.022224 0.000127
v 0.000587 -0.022377 0.006350
v 0.000587 -0.022377 0.000127
v 0.000000 -0.022428 0.006350
v 0.000000 -0.022428 0.000127
v -0.000587 -0.022377 0.006350
v -0.000587 -0.022377 0.000127
v -0.001155 -0.022224 0.006350
v -0.001155 -0.022224 0.000127
v -0.001689 -0.021976 0.006350
v -0.001689 -0.021976 0.000127
v -0.002171 -0.021638 0.006350
v -0.002171 -0.021638 0.000127
v -0.002588 -0.021221 0.006350
v -0.002588 -0.021221 0.000127
v -0.002926 -0.020739 0.006350
v -0.002926 -0.020739 0.000127
v -0.003174 -0.020205 0.006350
v -0.003174 -0.020205 0.000127
v -0.003327 -0.019637 0.006350
v -0.003327 -0.019637 0.000127
v -0.003378 -0.019050 0.006350
v -0.003378 -0.019050 0.000127
v -0.003327 -0.018463 0.006350
v -0.003327 -0.018463 0.000127
v -0.003174 -0.017895 0.006350
v -0.003174 -0.017895 0.000127
v -0.002926 -0.017361 0.006350
v -0.002926 -0.017361 0.000127
v -0.002588 -0.016879 0.006350
v -0.002588 -0.016879 0.000127
v -0.002171 -0.016462 0.006350
v -0.002171 -0.016462 0.000127
v -0.001689 -0.016124 0.006350
v -0.001689 -0.016124 0.000127
v -0.001155 -0.015876 0.006350
v -0.001155 -0.015876 0.000127
v -0.000587 -0.015723 0.006350
v -0.000587 -0.015723 0.000127
v 0.000000 -0.015672 0.006350
v 0.000000 -0.015672 0.000127
v 0.000587 -0.015723 0.006350
v 0.000587 -0.015723 0.000127
v 0.001155 -0.015876 0.006350
v 0.001155 -0.015876 0.000127
v 0.001689 -0.016124 0.006350
v 0.001689 -0.016124 0.000127
v 0.002171 -0.016462 0.006350
v 0.002171 -0.016462 0.000127
v 0.002588 -0.016879 0.006350
v 0.002588 -0.016879 0.000127
v 0.002926 -0.017361 0.006350
v 0.002926 -0.017361 0.000127
v 0.003174 -0.017895 0.006350
v 0.003174 -0.017895 0.000127
v 0.003327 -0.018463 0.006350
v 0.003327 -0.018463 0.000127
v 0.003378 0.019050 0.006350
v 0.003378 0.019050 0.000127
v 0.003327 0.018463 0.006350
v 0.003327 0.018463 0.000127
v 0.003174 0.017895 0.006350
v 0.003174 0.017895 0.000127
v 0.002926 0.017361 0.006350
v 0.002926 0.017361 0.000127
v 0.002588 0.016879 0.006350
v 0.002588 0.016879 0.000127
v 0.002171 0.016462 0.006350
v 0.002171 0.016462 0.000127
v 0.001689 0.016124 0.006350
v 0.001689 0.016124 0.000127
v 0.001155 0.015876 0.006350
v 0.001155 0.015876 0.000127
v 0.000587 0.015723 0.006350
v 0.000587 0.015723 0.000127
v 0.000000 0.015672 0.006350
v 0.000000 0.015672 0.000127
v -0.000587 0.015723 0.006350
v -0.000587 0.015723 0.000127
v -0.001155 0.015876 0.006350
v -0.001155 0.015876 0.000127
v -0.001689 0.016124 0.006350
v -0.001689 0.016124 0.000127
v -0.002171 0.016462 0.006350
v -0.002171 0.016462 0.000127
v -0.002588 0.016879 0.006350
v -0.002588 0.016879 0.000127
v -0.002926 0.017361 0.006350
v -0.002926 0.017361 0.000127
v -0.003174 0.017895 0.006350
v -0.003174 0.017895 0.000127
v -0.003327 0.018463 0.006350
v -0.003327 0.018463 0.000127
v -0.003378 0.019050 0.006350
v -0.003378 0.019050 0.000127
v -0.003327 0.019637 0.006350
v -0.003327 0.019637 0.000127
v -0.003174 0.020205 0.006350
v -0.003174 0.020205 0.000127
v -0.002926 0.020739 0.006350
v -0.002926 0.020739 0.000127
v -0.002588 0.021221 0.006350
v -0.002588 0.021221 0.000127
v -0.002171 0.021638 0.006350
v -0.002171 0.021638 0.000127
v -0.001689 0.021976 0.006350
v -0.001689 0.021976 0.000127
v -0.001155 0.022224 0.006350
v -0.001155 0.022224 0.000127
v -0.000587 0.022377 0.006350
v -0.000587 0.022377 0.000127
v 0.000000 0.022428 0.006350
v 0.000000 0.022428 0.000127
v 0.000587 0.022377 0.006350
v 0.000587 0.022377 0.000127
v 0.001155 0.022224 0.006350
v 0.001155 0.022224 0.000127
v 0.001689 0.021976 0.006350
v 0.001689 0.021976 0.000127
v 0.002171 0.021638 0.006350
v 0.002171 0.021638 0.000127
v 0.002588 0.021221 0.006350
v 0.002588 0.021221 0.000127
v 0.002926 0.020739 0.006350
v 0.002926 0.020739 0.000127
v 0.003174 0.020205 0.006350
v 0.003174 0.020205 0.000127
v 0.003327 0.019637 0.006350
v 0.003327 0.019637 0.000127
v 0.008607 -0.027356 0.006350
v -0.009107 -0.028070 0.006350
v -0.009724 -0.028686 0.006350
v 0.012938 -0.029856 0.006350
v 0.012069 -0.029780 0.006350
v -0.012938 -0.029856 0.006350
v 0.011227 -0.029555 0.006350
v -0.012069 -0.029780 0.006350
v 0.010437 -0.029186 0.006350
v -0.007938 -0.024856 0.006350
v 0.008013 -0.025724 0.006350
v -0.010437 -0.029186 0.006350
v -0.007938 -0.019050 0.006350
v 0.009724 -0.028686 0.006350
v 0.009107 -0.028070 0.006350
v -0.007817 -0.017672 0.006350
v -0.007459 -0.016335 0.006350
v -0.006874 -0.015081 0.006350
v -0.006080 -0.013948 0.006350
v -0.005102 -0.012970 0.006350
v -0.003969 -0.012176 0.006350
v -0.002715 -0.011591 0.006350
v -0.001378 -0.011233 0.006350
v 0.000000 -0.011112 0.006350
v 0.001378 -0.011233 0.006350
v 0.002715 -0.011591 0.006350
v 0.003969 -0.012176 0.006350
v 0.005102 -0.012970 0.006350
v 0.006080 -0.013948 0.006350
v 0.006874 -0.015081 0.006350
v 0.007459 -0.016335 0.006350
v 0.007817 -0.017672 0.006350
v 0.007938 -0.019050 0.006350
v 0.008239 -0.026566 0.006350
v 0.007938 -0.024856 0.006350
v -0.011227 -0.029555 0.006350
v -0.008013 -0.025724 0.006350
v -0.008239 -0.026566 0.006350
v -0.008607 -0.027356 0.006350
v -0.012069 0.029780 0.006350
v -0.011227 0.029555 0.006350
v 0.012069 0.029780 0.006350
v -0.009107 0.028070 0.006350
v -0.008607 0.027356 0.006350
v -0.008239 0.026566 0.006350
v -0.008013 0.025724 0.006350
v 0.008239 0.026566 0.006350
v 0.008607 0.027356 0.006350
v 0.009107 0.028070 0.006350
v -0.007938 0.024856 0.006350
v -0.007938 0.019050 0.006350
v 0.011227 0.029555 0.006350
v -0.010437 0.029186 0.006350
v 0.010437 0.029186 0.006350
v 0.008013 0.025724 0.006350
v 0.007938 0.019050 0.006350
v 0.007938 0.024856 0.006350
v 0.007817 0.017672 0.006350
v 0.007459 0.016335 0.006350
v 0.006874 0.015081 0.006350
v 0.006080 0.013948 0.006350
v 0.005102 0.012970 0.006350
v 0.003969 0.012176 0.006350
v 0.002715 0.011591 0.006350
v 0.001378 0.011233 0.006350
v 0.000000 0.011113 0.006350
v -0.001378 0.011233 0.006350
v -0.002715 0.011591 0.006350
v -0.003969 0.012176 0.006350
v -0.005102 0.012970 0.006350
v -0.006080 0.013948 0.006350
v -0.006874 0.015081 0.006350
v -0.007459 0.016335 0.006350
v -0.007817 0.017672 0.006350
v 0.009724 0.028686 0.006350
v -0.009724 0.028686 0.006350
v -0.017700 -0.029856 -0.038608
v -0.025400 -0.029856 -0.038608
v -0.012700 -0.029856 -0.033608
v -0.012776 -0.029856 -0.034476
v -0.013002 -0.029856 -0.035318
v -0.013370 -0.029856 -0.036108
v -0.013870 -0.029856 -0.036822
v -0.014486 -0.029856 -0.037438
v -0.015200 -0.029856 -0.037938
v -0.015990 -0.029856 -0.038306
v -0.016832 -0.029856 -0.038532
v -0.012700 -0.029856 0.000127
v 0.012700 -0.029856 0.000127
v 0.012700 -0.003624 -0.024689
v 0.012700 -0.003824 -0.024385
v 0.012700 -0.004071 -0.024122
v 0.012700 -0.007088 -0.026817
v 0.012700 -0.006888 -0.027121
v 0.012700 -0.006642 -0.027384
v 0.012700 -0.005703 -0.027849
v 0.012700 -0.005530 -0.027873
v 0.012700 -0.005356 -0.027882
v 0.012700 -0.005182 -0.027873
v 0.012700 -0.005009 -0.027849
v 0.012700 -0.004838 -0.027809
v 0.012700 -0.004672 -0.027753
v 0.012700 -0.004511 -0.027682
v 0.012700 -0.004356 -0.027596
v 0.012700 -0.004209 -0.027497
v 0.012700 -0.004071 -0.027384
v 0.012700 -0.003824 -0.027121
v 0.012700 -0.003624 -0.026817
v 0.012700 -0.003477 -0.026481
v 0.012700 -0.003386 -0.026123
v 0.012700 -0.005356 -0.023624
v 0.012700 -0.005182 -0.023633
v 0.012700 -0.005009 -0.023657
v 0.012700 -0.005530 -0.023633
v 0.012700 -0.005703 -0.023657
v 0.012700 -0.005874 -0.023697
v 0.012700 -0.006201 -0.027682
v 0.012700 -0.006040 -0.027753
v 0.012700 -0.005874 -0.027809
v 0.012700 -0.003356 -0.025753
v 0.012700 -0.003386 -0.025383
v 0.012700 -0.003477 -0.025025
v 0.012700 -0.004511 -0.023824
v 0.012700 -0.004672 -0.023753
v 0.012700 -0.004838 -0.023697
v 0.012700 -0.006040 -0.023753
v 0.012700 -0.006201 -0.023824
v 0.012700 -0.006356 -0.023910
v 0.012700 -0.006503 -0.024009
v 0.012700 -0.006642 -0.024122
v 0.012700 -0.006888 -0.024385
v 0.012700 -0.007356 -0.025753
v 0.012700 -0.007326 -0.026123
v 0.012700 -0.007235 -0.026481
v 0.012700 -0.007088 -0.024689
v 0.012700 -0.007235 -0.025025
v 0.012700 -0.007326 -0.025383
v 0.012700 -0.006503 -0.027497
v 0.012700 -0.006356 -0.027596
v 0.012700 -0.004209 -0.024009
v 0.012700 -0.004356 -0.023910
v 0.012938 -0.029856 0.012192
v 0.012069 -0.029780 0.012192
v 0.011227 -0.029555 0.012192
v 0.010437 -0.029186 0.012192
v 0.009724 -0.028686 0.012192
v 0.009107 -0.028070 0.012192
v 0.008607 -0.027356 0.012192
v 0.008239 -0.026566 0.012192
v 0.008013 -0.025724 0.012192
v 0.007938 -0.024856 0.012192
v 0.007938 -0.019050 0.012192
v 0.007817 -0.017672 0.012192
v 0.007459 -0.016335 0.012192
v 0.006874 -0.015081 0.012192
v 0.006080 -0.013948 0.012192
v 0.005102 -0.012970 0.012192
v 0.003969 -0.012176 0.012192
v 0.002715 -0.011591 0.012192
v 0.001378 -0.011233 0.012192
v 0.000000 -0.011112 0.012192
v -0.001378 -0.011233 0.012192
v -0.002715 -0.011591 0.012192
v -0.003969 -0.012176 0.012192
v -0.005102 -0.012970 0.012192
v -0.006080 -0.013948 0.012192
v -0.006874 -0.015081 0.012192
v -0.007459 -0.016335 0.012192
v -0.007817 -0.017672 0.012192
v -0.007938 -0.019050 0.012192
v -0.007938 -0.024856 0.012192
v -0.008013 -0.025724 0.012192
v -0.008239 -0.026566 0.012192
v -0.008607 -0.027356 0.012192
v -0.009107 -0.028070 0.012192
v -0.009724 -0.028686 0.012192
v -0.010437 -0.029186 0.012192
v -0.011227 -0.029555 0.012192
v -0.012069 -0.029780 0.012192
v -0.012938 -0.029856 0.012192
v -0.025400 -0.029856 0.012192
v -0.012069 0.029780 0.012192
v -0.011227 0.029555 0.012192
v -0.010437 0.029186 0.012192
v -0.009724 0.028686 0.012192
v -0.009107 0.028070 0.012192
v -0.008607 0.027356 0.012192
v -0.008239 0.026566 0.012192
v -0.008013 0.025724 0.012192
v -0.007938 0.024856 0.012192
v -0.007938 0.019050 0.012192
v -0.007817 0.017672 0.012192
v -0.007459 0.016335 0.012192
v -0.006874 0.015081 0.012192
v -0.006080 0.013948 0.012192
v -0.005102 0.012970 0.012192
v -0.003969 0.012176 0.012192
v -0.002715 0.011591 0.012192
v -0.001378 0.011233 0.012192
v 0.000000 0.011113 0.012192
v 0.001378 0.011233 0.012192
v 0.002715 0.011591 0.012192
v 0.003969 0.012176 0.012192
v 0.005102 0.012970 0.012192
v 0.006080 0.013948 0.012192
v 0.006874 0.015081 0.012192
v 0.007459 0.016335 0.012192
v 0.007817 0.017672 0.012192
v 0.007938 0.019050 0.012192
v 0.007938 0.024856 0.012192
v 0.008013 0.025724 0.012192
v 0.008239 0.026566 0.012192
v 0.008607 0.027356 0.012192
v 0.009107 0.028070 0.012192
v 0.009724 0.028686 0.012192
v 0.010437 0.029186 0.012192
v 0.011227 0.029555 0.012192
v 0.012069 0.029780 0.012192
v 0.037086 -0.004356 0.012192
v 0.041920 0.038527 0.006174
v 0.027202 0.038527 -0.034229
v 0.027251 0.038824 -0.034246
v 0.037197 0.050529 -0.037870
v 0.051915 0.050529 0.002533
v 0.035076 0.049674 -0.037097
v 0.049794 0.049674 0.003306
v 0.033110 0.048467 -0.036381
v 0.047828 0.048467 0.004022
v 0.031353 0.046940 -0.035741
v 0.046071 0.046940 0.004662
v 0.029848 0.045133 -0.035193
v 0.044566 0.045133 0.005210
v 0.028635 0.043092 -0.034751
v 0.043353 0.043092 0.005652
v 0.027745 0.040871 -0.034427
v 0.042463 0.040871 0.005976
v 0.027429 0.039710 -0.034312
v 0.027305 0.039121 -0.034266
v 0.027070 0.037415 -0.034181
v 0.055353 0.051587 0.001280
v 0.043373 0.051587 -0.031605
v 0.077228 0.062609 -0.049988
v 0.076987 0.062568 -0.050236
v 0.082739 0.064865 -0.057653
v 0.074082 0.061729 -0.049744
v 0.073943 0.061661 -0.049431
v 0.048117 0.053413 -0.037024
v 0.077697 0.062609 -0.048702
v 0.077663 0.062634 -0.049048
v 0.086504 0.064865 -0.047317
v 0.077571 0.062642 -0.049385
v 0.077425 0.062634 -0.049701
v 0.047420 0.053152 -0.036305
v 0.047693 0.053246 -0.036500
v 0.047927 0.053334 -0.036742
v 0.048255 0.053482 -0.037337
v 0.048338 0.053537 -0.037671
v 0.074506 0.061896 -0.050268
v 0.074271 0.061809 -0.050026
v 0.076709 0.062512 -0.050439
v 0.076402 0.062444 -0.050589
v 0.076076 0.062364 -0.050683
v 0.076754 0.062183 -0.046991
v 0.077027 0.062277 -0.047186
v 0.077262 0.062364 -0.047429
v 0.077451 0.062444 -0.047710
v 0.047068 0.053413 -0.039903
v 0.047375 0.053482 -0.039753
v 0.047653 0.053537 -0.039550
v 0.045211 0.052575 -0.036532
v 0.045489 0.052630 -0.036329
v 0.073861 0.061605 -0.049097
v 0.073836 0.061564 -0.048752
v 0.073870 0.061539 -0.048406
v 0.077589 0.062512 -0.048023
v 0.077672 0.062568 -0.048357
v 0.075457 0.061809 -0.046771
v 0.075792 0.061896 -0.046736
v 0.076127 0.061990 -0.046762
v 0.076451 0.062087 -0.046848
v 0.046742 0.053334 -0.039997
v 0.046406 0.053246 -0.040032
v 0.039608 0.051587 -0.041941
v 0.046071 0.053152 -0.040006
v 0.040635 0.051587 -0.039122
v 0.045747 0.053056 -0.039920
v 0.045444 0.052959 -0.039778
v 0.045171 0.052866 -0.039582
v 0.044936 0.052778 -0.039340
v 0.044747 0.052699 -0.039058
v 0.045796 0.052699 -0.036179
v 0.046122 0.052778 -0.036085
v 0.046458 0.052866 -0.036050
v 0.074545 0.061605 -0.047218
v 0.074823 0.061661 -0.047015
v 0.075130 0.061729 -0.046865
v 0.075740 0.062277 -0.050718
v 0.075406 0.062183 -0.050692
v 0.075082 0.062087 -0.050606
v 0.044535 0.052509 -0.037720
v 0.044627 0.052500 -0.037383
v 0.044773 0.052509 -0.037067
v 0.044970 0.052534 -0.036780
v 0.046793 0.052959 -0.036076
v 0.047116 0.053056 -0.036162
v 0.048362 0.053578 -0.038016
v 0.048329 0.053603 -0.038362
v 0.074779 0.061990 -0.050464
v 0.048237 0.053612 -0.038699
v 0.048091 0.053603 -0.039015
v 0.047894 0.053578 -0.039302
v 0.044609 0.052630 -0.038745
v 0.044526 0.052575 -0.038411
v 0.044501 0.052534 -0.038066
v 0.073961 0.061531 -0.048070
v 0.074107 0.061539 -0.047753
v 0.074304 0.061564 -0.047466
v 0.085872 0.053338 -0.058794
v 0.084273 0.053338 -0.063181
v 0.078791 0.073511 -0.061184
v 0.084154 0.073511 -0.046461
v 0.041024 0.060233 -0.030749
v 0.034847 0.059175 -0.037014
v 0.054373 0.060233 0.005895
v 0.049566 0.059175 0.003389
v 0.050935 0.059175 0.007147
v 0.045070 0.061798 -0.035449
v 0.044767 0.061701 -0.035306
v 0.044443 0.061605 -0.035220
v 0.044108 0.061511 -0.035194
v 0.075313 0.071279 -0.048192
v 0.075347 0.071254 -0.047846
v 0.043772 0.061424 -0.035229
v 0.043446 0.061344 -0.035323
v 0.043139 0.061276 -0.035473
v 0.032222 0.059175 -0.044220
v 0.042397 0.061344 -0.038202
v 0.042587 0.061424 -0.038484
v 0.042821 0.061511 -0.038726
v 0.043095 0.061605 -0.038922
v 0.043398 0.061701 -0.039064
v 0.071486 0.070210 -0.047896
v 0.071511 0.070251 -0.048241
v 0.071594 0.070306 -0.048575
v 0.071732 0.070375 -0.048888
v 0.072732 0.070732 -0.049750
v 0.073056 0.070829 -0.049836
v 0.073391 0.070922 -0.049862
v 0.073726 0.071010 -0.049827
v 0.074677 0.070922 -0.046330
v 0.074912 0.071010 -0.046573
v 0.075101 0.071089 -0.046854
v 0.073442 0.070542 -0.045880
v 0.073107 0.070454 -0.045915
v 0.072781 0.070375 -0.046009
v 0.072474 0.070306 -0.046159
v 0.044392 0.061979 -0.039141
v 0.044718 0.062059 -0.039047
v 0.071611 0.070176 -0.047214
v 0.042277 0.061146 -0.036527
v 0.042186 0.061154 -0.036864
v 0.071921 0.070454 -0.049170
v 0.072156 0.070542 -0.049412
v 0.072429 0.070636 -0.049608
v 0.075322 0.071213 -0.047501
v 0.075239 0.071158 -0.047167
v 0.074404 0.070829 -0.046135
v 0.074101 0.070732 -0.045992
v 0.073777 0.070636 -0.045906
v 0.072195 0.070251 -0.046362
v 0.071954 0.070210 -0.046611
v 0.071758 0.070185 -0.046897
v 0.044056 0.061891 -0.039176
v 0.046013 0.062224 -0.037160
v 0.045988 0.062183 -0.036815
v 0.045343 0.061891 -0.035644
v 0.045578 0.061979 -0.035886
v 0.074052 0.071089 -0.049733
v 0.074359 0.071158 -0.049583
v 0.074638 0.071213 -0.049380
v 0.071520 0.070185 -0.047550
v 0.043721 0.061798 -0.039150
v 0.045905 0.062127 -0.036481
v 0.045767 0.062059 -0.036168
v 0.042152 0.061179 -0.037210
v 0.042177 0.061220 -0.037555
v 0.042259 0.061276 -0.037889
v 0.045025 0.062127 -0.038897
v 0.045303 0.062183 -0.038694
v 0.045544 0.062224 -0.038446
v 0.045741 0.062249 -0.038159
v 0.045887 0.062257 -0.037843
v 0.045979 0.062249 -0.037506
v 0.042861 0.061220 -0.035676
v 0.042620 0.061179 -0.035924
v 0.042423 0.061154 -0.036211
v 0.074879 0.071254 -0.049132
v 0.075075 0.071279 -0.048845
v 0.075222 0.071288 -0.048529
v 0.015938 0.036120 -0.038288
v 0.033573 0.039971 0.009215
v 0.028828 0.057806 -0.042983
v 0.016230 0.039971 -0.038394
v 0.034401 0.043590 0.008913
v 0.017099 0.043722 -0.038711
v 0.034442 0.043722 0.008898
v 0.035815 0.047173 0.008398
v 0.018523 0.047276 -0.039229
v 0.035866 0.047276 0.008379
v 0.037754 0.050467 0.007692
v 0.020463 0.050541 -0.039936
v 0.037806 0.050541 0.007673
v 0.040214 0.053432 0.006795
v 0.022871 0.053432 -0.040813
v 0.043027 0.055875 0.005771
v 0.025683 0.055875 -0.041838
v 0.046171 0.057806 0.004625
v 0.045926 0.036120 0.008972
v 0.045926 -0.004356 0.008972
v 0.044556 0.036120 0.005214
v 0.044556 -0.004356 0.005214
v 0.046072 0.038045 0.008919
v 0.044703 0.038045 0.005160
v 0.046506 0.039921 0.008760
v 0.045137 0.039921 0.005002
v 0.047218 0.041698 0.008501
v 0.045849 0.041698 0.004743
v 0.048188 0.043330 0.008148
v 0.046819 0.043330 0.004389
v 0.049392 0.044776 0.007709
v 0.048023 0.044776 0.003951
v 0.050798 0.045997 0.007197
v 0.049429 0.045997 0.003439
v 0.052370 0.046963 0.006624
v 0.051001 0.046963 0.002866
v 0.054068 0.047647 0.006006
v 0.052699 0.047647 0.002248
v 0.057506 0.048705 0.004754
v 0.056136 0.048705 0.000995
v 0.037184 0.047173 0.012156
v 0.047520 0.057796 0.008391
v 0.044360 0.055849 0.009542
v 0.041536 0.053384 0.010571
v 0.039123 0.050467 0.011450
v 0.037705 0.039002 -0.046217
v 0.039303 0.039002 -0.041830
v 0.037281 0.038830 -0.046062
v 0.038879 0.038830 -0.041675
v 0.036888 0.038589 -0.045919
v 0.038486 0.038589 -0.041532
v 0.036536 0.038284 -0.045791
v 0.038134 0.038284 -0.041404
v 0.036235 0.037922 -0.045682
v 0.037833 0.037922 -0.041294
v 0.035993 0.037514 -0.045593
v 0.037591 0.037514 -0.041206
v 0.035815 0.037070 -0.045528
v 0.037413 0.037070 -0.041141
v 0.035706 0.036601 -0.045489
v 0.037304 0.036601 -0.041102
v 0.035670 0.036120 -0.045476
v 0.037268 0.036120 -0.041088
v 0.037268 -0.004356 -0.041088
v 0.035670 -0.004356 -0.045476
v 0.032019 0.006913 -0.044146
v 0.031863 0.007269 -0.044089
v 0.028975 0.029595 -0.043037
v 0.031652 0.007590 -0.044012
v 0.031391 0.007867 -0.043917
v 0.031089 0.008092 -0.043807
v 0.056088 0.048755 -0.052913
v 0.056444 0.048653 -0.053043
v 0.056811 0.048619 -0.053177
v 0.030755 0.008258 -0.043685
v 0.030399 0.008360 -0.043556
v 0.028673 0.029820 -0.042927
v 0.030032 0.008394 -0.043422
v 0.028413 0.030098 -0.042832
v 0.028201 0.030419 -0.042755
v 0.028413 0.004698 -0.042832
v 0.028673 0.004420 -0.042927
v 0.030032 0.003894 -0.043422
v 0.030399 0.003928 -0.043556
v 0.056444 0.053085 -0.053043
v 0.056088 0.052983 -0.052913
v 0.055754 0.052818 -0.052792
v 0.054729 0.050478 -0.052418
v 0.054824 0.050099 -0.052453
v 0.054980 0.049744 -0.052510
v 0.055191 0.049423 -0.052587
v 0.055452 0.052593 -0.052682
v 0.055191 0.052315 -0.052587
v 0.054980 0.051994 -0.052510
v 0.055452 0.049145 -0.052682
v 0.055754 0.048920 -0.052792
v 0.058797 0.050099 -0.053901
v 0.058893 0.050478 -0.053935
v 0.058925 0.050869 -0.053947
v 0.057534 0.052983 -0.053440
v 0.057178 0.053085 -0.053311
v 0.056811 0.053119 -0.053177
v 0.028201 0.005019 -0.042755
v 0.031089 0.029595 -0.043807
v 0.031391 0.029820 -0.043917
v 0.031652 0.030098 -0.044012
v 0.057178 0.048653 -0.053311
v 0.057534 0.048755 -0.053440
v 0.057868 0.048920 -0.053562
v 0.058170 0.049145 -0.053672
v 0.028975 0.004195 -0.043037
v 0.029309 0.004030 -0.043158
v 0.029665 0.003928 -0.043288
v 0.058430 0.049423 -0.053767
v 0.058641 0.049744 -0.053844
v 0.030755 0.004030 -0.043685
v 0.031089 0.004195 -0.043807
v 0.031391 0.004420 -0.043917
v 0.031652 0.004698 -0.044012
v 0.031863 0.005019 -0.044089
v 0.032019 0.005374 -0.044146
v 0.032114 0.006535 -0.044180
v 0.029309 0.029430 -0.043158
v 0.029665 0.029328 -0.043288
v 0.031863 0.030419 -0.044089
v 0.032019 0.030774 -0.044146
v 0.058893 0.051260 -0.053935
v 0.058797 0.051639 -0.053901
v 0.058641 0.051994 -0.053844
v 0.058430 0.052315 -0.053767
v 0.027918 0.006144 -0.042652
v 0.027950 0.005753 -0.042663
v 0.028045 0.005374 -0.042698
v 0.032019 0.032313 -0.044146
v 0.032114 0.031935 -0.044180
v 0.058170 0.052593 -0.053672
v 0.057868 0.052818 -0.053562
v 0.032114 0.031153 -0.044180
v 0.032146 0.031544 -0.044192
v 0.031089 0.033492 -0.043807
v 0.030755 0.033658 -0.043685
v 0.030399 0.033760 -0.043556
v 0.030032 0.033794 -0.043422
v 0.029665 0.033760 -0.043288
v 0.029309 0.033658 -0.043158
v 0.028975 0.033492 -0.043037
v 0.028673 0.033267 -0.042927
v 0.028413 0.032990 -0.042832
v 0.028201 0.032669 -0.042755
v 0.028413 0.007590 -0.042832
v 0.028673 0.007867 -0.042927
v 0.028975 0.008092 -0.043037
v 0.028201 0.007269 -0.042755
v 0.028045 0.006913 -0.042698
v 0.027950 0.006535 -0.042663
v 0.032114 0.005753 -0.044180
v 0.032146 0.006144 -0.044192
v 0.028045 0.032313 -0.042698
v 0.027950 0.031935 -0.042663
v 0.027918 0.031544 -0.042652
v 0.030032 0.029294 -0.043422
v 0.030399 0.029328 -0.043556
v 0.030755 0.029430 -0.043685
v 0.029309 0.008258 -0.043158
v 0.029665 0.008360 -0.043288
v 0.027950 0.031153 -0.042663
v 0.028045 0.030774 -0.042698
v 0.054824 0.051639 -0.052453
v 0.054729 0.051260 -0.052418
v 0.054697 0.050869 -0.052407
v 0.031863 0.032669 -0.044089
v 0.031652 0.032990 -0.044012
v 0.031391 0.033267 -0.043917
v 0.031630 0.008394 -0.039035
v 0.031997 0.008360 -0.039168
v 0.032353 0.008258 -0.039298
v 0.032687 0.008092 -0.039420
v 0.032989 0.007867 -0.039530
v 0.033250 0.007590 -0.039625
v 0.033461 0.007269 -0.039702
v 0.033617 0.006913 -0.039758
v 0.033712 0.006535 -0.039793
v 0.033744 0.006144 -0.039805
v 0.033712 0.005753 -0.039793
v 0.033617 0.005374 -0.039758
v 0.033461 0.005019 -0.039702
v 0.033250 0.004698 -0.039625
v 0.032989 0.004420 -0.039530
v 0.032687 0.004195 -0.039420
v 0.032353 0.004030 -0.039298
v 0.031997 0.003928 -0.039168
v 0.031630 0.003894 -0.039035
v 0.031263 0.003928 -0.038901
v 0.030907 0.004030 -0.038771
v 0.030573 0.004195 -0.038650
v 0.030271 0.004420 -0.038540
v 0.030011 0.004698 -0.038445
v 0.029799 0.005019 -0.038368
v 0.029644 0.005374 -0.038311
v 0.029548 0.005753 -0.038276
v 0.029516 0.006144 -0.038265
v 0.029548 0.006535 -0.038276
v 0.029644 0.006913 -0.038311
v 0.029799 0.007269 -0.038368
v 0.030011 0.007590 -0.038445
v 0.030271 0.007867 -0.038540
v 0.030573 0.008092 -0.038650
v 0.030907 0.008258 -0.038771
v 0.031263 0.008360 -0.038901
v 0.031630 0.033794 -0.039035
v 0.031997 0.033760 -0.039168
v 0.032353 0.033658 -0.039298
v 0.032687 0.033492 -0.039420
v 0.032989 0.033267 -0.039530
v 0.033250 0.032990 -0.039625
v 0.033461 0.032669 -0.039702
v 0.033617 0.032313 -0.039758
v 0.033712 0.031935 -0.039793
v 0.033744 0.031544 -0.039805
v 0.033712 0.031153 -0.039793
v 0.033617 0.030774 -0.039758
v 0.033461 0.030419 -0.039702
v 0.033250 0.030098 -0.039625
v 0.032989 0.029820 -0.039530
v 0.032687 0.029595 -0.039420
v 0.032353 0.029430 -0.039298
v 0.031997 0.029328 -0.039168
v 0.031630 0.029294 -0.039035
v 0.031263 0.029328 -0.038901
v 0.030907 0.029430 -0.038771
v 0.030573 0.029595 -0.038650
v 0.030271 0.029820 -0.038540
v 0.030011 0.030098 -0.038445
v 0.029799 0.030419 -0.038368
v 0.029644 0.030774 -0.038311
v 0.029548 0.031153 -0.038276
v 0.029516 0.031544 -0.038265
v 0.029548 0.031935 -0.038276
v 0.029644 0.032313 -0.038311
v 0.029799 0.032669 -0.038368
v 0.030011 0.032990 -0.038445
v 0.030271 0.033267 -0.038540
v 0.030573 0.033492 -0.038650
v 0.030907 0.033658 -0.038771
v 0.031263 0.033760 -0.038901
v 0.058409 0.053119 -0.048790
v 0.058776 0.053085 -0.048924
v 0.059132 0.052983 -0.049053
v 0.059466 0.052818 -0.049175
v 0.059768 0.052593 -0.049285
v 0.060028 0.052315 -0.049380
v 0.060240 0.051994 -0.049457
v 0.060395 0.051639 -0.049513
v 0.060491 0.051260 -0.049548
v 0.060523 0.050869 -0.049560
v 0.060491 0.050478 -0.049548
v 0.060395 0.050099 -0.049513
v 0.060240 0.049744 -0.049457
v 0.060028 0.049423 -0.049380
v 0.059768 0.049145 -0.049285
v 0.059466 0.048920 -0.049175
v 0.059132 0.048755 -0.049053
v 0.058776 0.048653 -0.048924
v 0.058409 0.048619 -0.048790
v 0.058042 0.048653 -0.048656
v 0.057686 0.048755 -0.048526
v 0.057352 0.048920 -0.048405
v 0.057050 0.049145 -0.048295
v 0.056789 0.049423 -0.048200
v 0.056578 0.049744 -0.048123
v 0.056422 0.050099 -0.048066
v 0.056327 0.050478 -0.048031
v 0.056295 0.050869 -0.048020
v 0.056327 0.051260 -0.048031
v 0.056422 0.051639 -0.048066
v 0.056578 0.051994 -0.048123
v 0.056789 0.052315 -0.048200
v 0.057050 0.052593 -0.048295
v 0.057352 0.052818 -0.048405
v 0.057686 0.052983 -0.048526
v 0.058042 0.053085 -0.048656
v 0.037201 0.051203 -0.041064
v 0.034888 0.050398 -0.040222
v 0.032734 0.049194 -0.039437
v 0.029134 0.045735 -0.038125
v 0.027789 0.043576 -0.037635
v 0.026800 0.041210 -0.037275
v 0.026196 0.038701 -0.037055
v 0.030797 0.047625 -0.038731
v 0.027134 0.038059 -0.034204
v 0.027223 0.038701 -0.034236
v 0.027337 0.039337 -0.034278
v 0.027476 0.039969 -0.034328
v 0.027827 0.041210 -0.034456
v 0.028816 0.043576 -0.034817
v 0.030160 0.045735 -0.035306
v 0.031824 0.047625 -0.035913
v 0.033761 0.049194 -0.036618
v 0.035915 0.050398 -0.037403
v 0.038228 0.051203 -0.038245
vn 0.3423 -0.0000 0.9396
vn -0.6023 -0.0000 0.7983
vn -0.0872 -0.0000 -0.9962
vn -0.2588 -0.0000 -0.9659
vn -0.2589 -0.0000 -0.9659
vn -0.4276 -0.0000 -0.9040
vn -0.4226 -0.0000 -0.9063
vn -0.3422 -0.0030 -0.9396
vn -0.4279 -0.0000 -0.9038
vn -0.5736 -0.0000 -0.8192
vn -0.7071 -0.0000 -0.7071
vn -0.8192 -0.0000 -0.5736
vn -0.8191 -0.0000 -0.5736
vn -0.9063 -0.0000 -0.4226
vn -0.9659 -0.0000 -0.2588
vn -0.9962 -0.0000 -0.0872
vn -0.0000 1.0000 -0.0000
vn -0.0000 -0.0000 -1.0000
vn 0.9396 -0.0000 -0.3423
vn 0.9396 -0.0001 -0.3424
vn 0.9396 -0.0001 -0.3423
vn 0.9396 0.0001 -0.3423
vn -0.9962 0.0872 -0.0000
vn -0.9659 0.2588 -0.0000
vn -0.9063 0.4226 -0.0000
vn -0.8191 0.5736 -0.0000
vn -0.7071 0.7071 -0.0000
vn -0.5736 0.8191 -0.0000
vn -0.5736 0.8192 -0.0000
vn -0.4226 0.9063 -0.0000
vn -0.2588 0.9659 -0.0000
vn -0.0872 0.9962 -0.0000
vn 0.0872 0.9962 -0.0000
vn 0.2588 0.9659 -0.0000
vn 0.4226 0.9063 -0.0000
vn 0.5736 0.8192 -0.0000
vn 0.7071 0.7071 -0.0000
vn 0.8191 0.5736 -0.0000
vn 0.9063 0.4226 -0.0000
vn 0.9659 0.2588 -0.0000
vn 0.9962 0.0872 -0.0000
vn 0.9962 -0.0872 -0.0000
vn 0.9659 -0.2588 -0.0000
vn 0.9063 -0.4226 -0.0000
vn 0.8192 -0.5736 -0.0000
vn 0.7071 -0.7071 -0.0000
vn 0.5736 -0.8192 -0.0000
vn 0.4226 -0.9063 -0.0000
vn 0.2588 -0.9659 -0.0000
vn 0.0872 -0.9962 -0.0000
vn -0.0872 -0.9962 -0.0000
vn -0.2588 -0.9659 -0.0000
vn -0.4226 -0.9063 -0.0000
vn -0.5736 -0.8191 -0.0000
vn -0.5736 -0.8192 -0.0000
vn -0.7071 -0.7071 -0.0000
vn -0.8192 -0.5736 -0.0000
vn -0.9063 -0.4226 -0.0000
vn -0.9659 -0.2588 -0.0000
vn -0.9962 -0.0872 -0.0000
vn -0.8192 0.5736 -0.0000
vn 0.8192 0.5736 -0.0000
vn 0.8191 -0.5736 -0.0000
vn -0.8191 -0.5736 -0.0000
vn -0.0000 -0.0000 1.0000
vn 0.0001 -0.0000 1.0000
vn -0.0001 -0.0000 1.0000
vn 0.9962 -0.0000 -0.0872
vn 0.9659 -0.0000 -0.2588
vn 0.9063 -0.0000 -0.4226
vn 0.8191 -0.0000 -0.5736
vn 0.8192 -0.0000 -0.5736
vn 0.7071 -0.0000 -0.7071
vn 0.5736 -0.0000 -0.8192
vn 0.4226 -0.0000 -0.9063
vn 0.2588 -0.0000 -0.9659
vn 0.0872 -0.0000 -0.9962
vn 1.0000 -0.0000 -0.0000
vn -1.0000 -0.0000 -0.0000
vn -0.0000 -1.0000 -0.0000
vn 0.9259 -0.1704 -0.3373
vn 0.3329 -0.9351 -0.1213
vn 0.4696 -0.8662 -0.1711
vn 0.5941 -0.7748 -0.2164
vn 0.7032 -0.6633 -0.2562
vn 0.7941 -0.5346 -0.2893
vn 0.8644 -0.3921 -0.3149
vn 0.9025 -0.2783 -0.3288
vn 0.9119 -0.2394 -0.3334
vn 0.9164 -0.2198 -0.3344
vn 0.9224 -0.1902 -0.3362
vn 0.9322 -0.1251 -0.3396
vn 0.9361 -0.0805 -0.3423
vn 0.9388 -0.0418 -0.3420
vn 0.2611 -0.9606 -0.0951
vn 0.2611 -0.9606 -0.0950
vn 0.2611 -0.9606 -0.0952
vn 0.2610 -0.9606 -0.0951
vn 0.2616 -0.9606 -0.0943
vn 0.9026 0.2779 -0.3288
vn -0.2611 0.9606 0.0951
vn -0.2611 0.9606 0.0952
vn -0.2611 0.9606 0.0950
vn -0.2610 0.9606 0.0952
vn -0.2614 0.9606 0.0939
vn -0.2610 0.9606 0.0951
vn -0.9365 0.0805 0.3412
vn -0.3329 0.9351 0.1213
vn -0.9129 0.2366 0.3326
vn -0.9124 0.2394 0.3321
vn -0.8921 0.3140 0.3250
vn -0.8653 0.3898 0.3152
vn -0.8644 0.3921 0.3147
vn -0.8330 0.4627 0.3034
vn -0.7950 0.5330 0.2896
vn -0.7941 0.5346 0.2891
vn -0.7521 0.5994 0.2740
vn -0.7032 0.6633 0.2562
vn -0.5941 0.7748 0.2164
vn -0.4696 0.8662 0.1711
vn -0.9396 -0.0000 0.3423
vn -0.9369 -0.0000 0.3495
vn 0.9365 -0.0805 -0.3412
vn 0.9123 -0.2394 -0.3323
vn -0.8570 0.4553 0.2415
vn -0.9627 0.0658 -0.2625
vn -0.9379 0.1181 0.3262
vn -0.9023 0.2365 0.3605
vn -0.3331 0.9350 0.1219
vn -0.4697 0.8662 0.1706
vn -0.4704 0.8654 0.1724
vn -0.5944 0.7748 0.2155
vn -0.5953 0.7732 0.2183
vn -0.7036 0.6633 0.2549
vn -0.7046 0.6607 0.2586
vn -0.9452 0.2214 0.2402
vn -0.9040 0.2725 0.3293
vn -0.8807 0.3460 0.3236
vn -0.8738 0.3897 0.2909
vn -0.8518 0.4221 0.3103
vn -0.8330 0.4627 0.3035
vn -0.7955 0.5309 0.2922
vn -0.3423 -0.0000 -0.9396
vn 0.8693 0.2768 -0.4094
vn 0.8693 0.2768 -0.4095
vn 0.7833 0.2684 -0.5608
vn 0.6734 0.2518 -0.6951
vn 0.5430 0.2276 -0.8083
vn 0.5431 0.2276 -0.8083
vn 0.3962 0.1965 -0.8969
vn 0.2373 0.1594 -0.9583
vn 0.0712 0.1174 -0.9905
vn -0.0970 0.0719 -0.9927
vn -0.2623 0.0242 -0.9647
vn -0.4197 -0.0242 -0.9074
vn -0.5642 -0.0719 -0.8225
vn -0.6917 -0.1174 -0.7126
vn -0.7981 -0.1594 -0.5811
vn -0.8803 -0.1965 -0.4319
vn -0.9357 -0.2276 -0.2696
vn -0.9627 -0.2518 -0.0991
vn -0.9604 -0.2684 0.0744
vn -0.9290 -0.2768 0.2456
vn -0.9290 -0.2768 0.2457
vn -0.8693 -0.2768 0.4095
vn -0.8693 -0.2768 0.4094
vn -0.7832 -0.2684 0.5608
vn -0.7833 -0.2684 0.5608
vn -0.6734 -0.2518 0.6951
vn -0.5430 -0.2276 0.8083
vn -0.3962 -0.1965 0.8969
vn -0.2373 -0.1594 0.9583
vn -0.0712 -0.1174 0.9905
vn -0.0713 -0.1174 0.9905
vn 0.0970 -0.0719 0.9927
vn 0.2623 -0.0242 0.9647
vn 0.4196 0.0242 0.9074
vn 0.5642 0.0719 0.8225
vn 0.6917 0.1174 0.7126
vn 0.7981 0.1594 0.5811
vn 0.8803 0.1965 0.4319
vn 0.9357 0.2276 0.2696
vn 0.9627 0.2518 0.0991
vn 0.9604 0.2684 -0.0744
vn 0.9290 0.2768 -0.2457
vn -0.4196 -0.0242 -0.9074
vn -0.8803 -0.1965 -0.4318
vn -0.8802 -0.1965 -0.4319
vn -0.2374 -0.1594 0.9583
vn 0.4695 -0.8662 -0.1710
vn -0.3422 -0.0000 -0.9396
vn -0.3424 -0.0000 -0.9396
vn -0.3423 -0.0001 -0.9396
vn -0.3423 0.0001 -0.9396
vn -0.3421 -0.0000 -0.9397
vn -0.3402 0.0001 -0.9404
vn -0.3424 -0.0000 -0.9395
vn 0.3264 -0.3007 0.8961
vn 0.3302 -0.2588 0.9077
vn 0.3162 -0.3827 0.8681
vn 0.3098 -0.4226 0.8517
vn 0.3036 -0.4617 0.8334
vn 0.2887 -0.5373 0.7924
vn 0.2799 -0.5736 0.7698
vn 0.2716 -0.6087 0.7455
vn 0.2420 -0.7071 0.6644
vn 0.1963 -0.8192 0.5389
vn 0.1447 -0.9063 0.3971
vn 0.0886 -0.9659 0.2432
vn 0.0298 -0.9962 0.0819
vn -0.0298 -0.9962 -0.0819
vn -0.0886 -0.9659 -0.2432
vn -0.1447 -0.9063 -0.3971
vn -0.1963 -0.8192 -0.5389
vn -0.2420 -0.7071 -0.6644
vn -0.2716 -0.6087 -0.7455
vn -0.2808 -0.5736 -0.7695
vn -0.2887 -0.5373 -0.7924
vn -0.3036 -0.4618 -0.8334
vn -0.3106 -0.4226 -0.8514
vn -0.3162 -0.3827 -0.8681
vn -0.3264 -0.3007 -0.8961
vn -0.3310 -0.2588 -0.9074
vn -0.3342 -0.2164 -0.9173
vn -0.3394 -0.1305 -0.9316
vn -0.3414 -0.0872 -0.9359
vn -0.3420 -0.0436 -0.9387
vn -0.3420 0.0436 -0.9387
vn -0.3414 0.0872 -0.9359
vn -0.3394 0.1305 -0.9316
vn -0.3342 0.2164 -0.9173
vn -0.3310 0.2588 -0.9074
vn -0.3264 0.3007 -0.8961
vn -0.3162 0.3827 -0.8681
vn -0.3106 0.4226 -0.8514
vn -0.3036 0.4618 -0.8334
vn -0.2887 0.5373 -0.7925
vn -0.2808 0.5736 -0.7695
vn -0.2716 0.6088 -0.7454
vn -0.2420 0.7071 -0.6644
vn -0.1963 0.8192 -0.5389
vn -0.1447 0.9063 -0.3971
vn -0.0886 0.9659 -0.2432
vn -0.0298 0.9962 -0.0819
vn 0.0298 0.9962 0.0819
vn 0.0886 0.9659 0.2432
vn 0.1447 0.9063 0.3971
vn 0.1963 0.8192 0.5389
vn 0.2420 0.7071 0.6644
vn 0.2804 0.5736 0.7697
vn 0.2877 0.5375 0.7927
vn 0.2716 0.6088 0.7454
vn 0.3306 0.2588 0.9076
vn 0.3333 0.2165 0.9176
vn 0.3264 0.3007 0.8961
vn 0.3102 0.4226 0.8516
vn 0.3153 0.3828 0.8684
vn 0.3036 0.4617 0.8334
vn 0.3342 -0.2164 0.9173
vn 0.3394 -0.1305 0.9316
vn 0.3405 -0.0872 0.9362
vn 0.3420 -0.0436 0.9387
vn 0.3410 0.0872 0.9360
vn 0.3410 0.0436 0.9390
vn 0.3394 0.1305 0.9316
vn -0.0819 -0.9962 0.0298
vn -0.2432 -0.9659 0.0886
vn -0.3971 -0.9063 0.1447
vn -0.3971 -0.9063 0.1446
vn -0.5390 -0.8191 0.1963
vn -0.5389 -0.8192 0.1963
vn -0.6644 -0.7071 0.2420
vn -0.7697 -0.5736 0.2804
vn -0.8516 -0.4226 0.3102
vn -0.9076 -0.2588 0.3306
vn -0.9360 -0.0872 0.3410
vn -0.9360 0.0872 0.3410
vn -0.9076 0.2588 0.3306
vn -0.8516 0.4226 0.3102
vn -0.7697 0.5736 0.2804
vn -0.6644 0.7071 0.2420
vn -0.5389 0.8191 0.1963
vn -0.3971 0.9063 0.1446
vn -0.3971 0.9063 0.1447
vn -0.2432 0.9659 0.0886
vn -0.0819 0.9962 0.0298
vn 0.0819 0.9962 -0.0298
vn 0.2432 0.9659 -0.0886
vn 0.3971 0.9063 -0.1447
vn 0.5389 0.8191 -0.1963
vn 0.6644 0.7071 -0.2420
vn 0.7697 0.5736 -0.2804
vn 0.8516 0.4226 -0.3102
vn 0.9076 0.2588 -0.3306
vn 0.9360 0.0871 -0.3410
vn 0.9360 -0.0871 -0.3410
vn 0.9076 -0.2588 -0.3306
vn 0.8516 -0.4226 -0.3102
vn 0.7697 -0.5736 -0.2804
vn 0.6644 -0.7071 -0.2420
vn 0.5389 -0.8191 -0.1963
vn 0.3971 -0.9063 -0.1447
vn 0.2432 -0.9659 -0.0886
vn 0.0819 -0.9962 -0.0298
vn 0.3971 0.9063 -0.1446
vn 0.3971 -0.9063 -0.1446
vn -0.9360 0.0871 0.3410
vn -0.5389 0.8192 0.1963
vn 0.5389 0.8192 -0.1963
vn 0.9360 0.0872 -0.3410
vn 0.9360 -0.0872 -0.3410
vn 0.5389 -0.8192 -0.1963
vn 0.3422 -0.0000 0.9396
vn 0.3421 -0.0000 0.9397
vn 0.3434 -0.0001 0.9392
vn 0.3423 -0.0001 0.9396
vn 0.3425 -0.0004 0.9395
vn 0.3422 0.0001 0.9396
vn -0.3415 -0.0000 -0.9399
vn -0.3426 -0.0000 -0.9395
vn -0.3420 0.0001 -0.9397
vn -0.3418 -0.0001 -0.9398
vn -0.3427 0.0001 -0.9395
vn 0.1393 -0.9889 -0.0508
vn 0.2921 -0.9504 -0.1064
vn 0.4367 -0.8854 -0.1591
vn 0.5692 -0.7957 -0.2073
vn 0.6857 -0.6837 -0.2498
vn 0.7831 -0.5526 -0.2853
vn 0.8586 -0.4061 -0.3128
vn 0.9230 -0.1871 -0.3362
vn 0.9147 -0.2483 -0.3188
vn 0.9238 -0.2279 -0.3077
vn 0.8996 -0.2886 -0.3277
vn 0.9423 -0.0835 -0.3241
vn 0.9375 -0.1044 -0.3319
vn 0.9296 -0.1458 -0.3386
s 0
f 1//1 2//1 3//1
f 3//1 2//1 4//1
f 5//2 6//2 7//2
f 7//2 8//2 5//2
f 5//2 8//2 9//2
f 5//2 9//2 10//2
f 10//2 11//2 5//2
f 5//2 11//2 12//2
f 5//2 12//2 13//2
f 14//3 15//3 16//3
f 14//3 16//3 17//3
f 17//4 16//4 18//4
f 17//5 18//5 19//5
f 20//6 21//6 22//6
f 19//7 18//7 23//7
f 19//8 23//8 22//8
f 22//9 23//9 20//9
f 20//10 23//10 24//10
f 20//10 24//10 25//10
f 25//11 24//11 26//11
f 25//11 26//11 27//11
f 27//12 26//12 28//12
f 27//13 28//13 29//13
f 29//14 28//14 30//14
f 29//14 30//14 31//14
f 31//15 30//15 32//15
f 31//15 32//15 33//15
f 33//16 32//16 34//16
f 33//16 34//16 35//16
f 36//17 37//17 38//17
f 38//17 37//17 39//17
f 40//17 5//17 13//17
f 40//17 13//17 35//17
f 35//17 13//17 21//17
f 35//17 21//17 20//17
f 41//17 5//17 42//17
f 42//17 5//17 40//17
f 42//17 40//17 38//17
f 38//17 40//17 43//17
f 38//17 43//17 36//17
f 36//17 43//17 44//17
f 29//17 20//17 27//17
f 27//17 20//17 25//17
f 29//17 31//17 20//17
f 20//17 31//17 33//17
f 20//17 33//17 35//17
f 45//17 46//17 44//17
f 44//17 46//17 47//17
f 44//17 47//17 36//17
f 48//17 49//17 50//17
f 50//17 49//17 51//17
f 50//17 51//17 52//17
f 48//17 50//17 44//17
f 44//17 50//17 53//17
f 44//17 53//17 45//17
f 54//18 55//18 14//18
f 14//18 55//18 15//18
f 55//19 54//19 2//19
f 2//19 54//19 56//19
f 57//19 58//19 59//19
f 60//19 61//19 62//19
f 59//19 63//19 57//19
f 57//19 63//19 64//19
f 57//19 64//19 61//19
f 61//19 64//19 65//19
f 61//19 65//19 62//19
f 66//19 67//19 2//19
f 2//19 67//19 68//19
f 2//19 68//19 69//19
f 70//19 71//19 56//19
f 72//19 73//19 4//19
f 4//19 73//19 74//19
f 4//19 74//19 57//19
f 57//19 74//19 75//19
f 57//19 75//19 58//19
f 76//19 77//19 56//19
f 56//19 77//19 78//19
f 69//19 79//19 2//19
f 2//19 79//19 80//19
f 2//19 80//19 4//19
f 4//19 80//19 81//19
f 4//19 81//19 72//19
f 71//19 82//19 56//19
f 56//19 82//19 83//19
f 56//19 83//19 84//19
f 62//19 85//19 60//19
f 60//19 85//19 86//19
f 60//19 86//19 56//19
f 56//19 86//19 87//19
f 56//19 87//19 76//19
f 78//19 88//19 56//19
f 56//19 88//19 89//19
f 56//19 89//19 70//19
f 90//19 91//19 2//19
f 2//19 91//19 92//19
f 2//19 92//19 66//19
f 84//19 93//19 56//19
f 56//20 93//20 94//20
f 56//21 94//21 2//21
f 2//21 94//21 95//21
f 2//22 95//22 90//22
f 96//23 97//23 98//23
f 98//23 97//23 99//23
f 98//24 99//24 100//24
f 100//24 99//24 101//24
f 100//25 101//25 102//25
f 102//25 101//25 103//25
f 102//26 103//26 104//26
f 104//26 103//26 105//26
f 104//27 105//27 106//27
f 106//27 105//27 107//27
f 106//28 107//28 108//28
f 108//29 107//29 109//29
f 108//30 109//30 110//30
f 110//30 109//30 111//30
f 110//31 111//31 112//31
f 112//31 111//31 113//31
f 112//32 113//32 114//32
f 114//32 113//32 115//32
f 114//33 115//33 116//33
f 116//33 115//33 117//33
f 116//34 117//34 118//34
f 118//34 117//34 119//34
f 118//35 119//35 120//35
f 120//35 119//35 121//35
f 120//36 121//36 122//36
f 122//36 121//36 123//36
f 122//37 123//37 124//37
f 124//37 123//37 125//37
f 124//38 125//38 126//38
f 126//38 125//38 127//38
f 126//39 127//39 128//39
f 128//39 127//39 129//39
f 128//40 129//40 130//40
f 130//40 129//40 131//40
f 130//41 131//41 132//41
f 132//41 131//41 133//41
f 132//42 133//42 134//42
f 134//42 133//42 135//42
f 134//43 135//43 136//43
f 136//43 135//43 137//43
f 136//44 137//44 138//44
f 138//44 137//44 139//44
f 138//45 139//45 140//45
f 140//45 139//45 141//45
f 140//46 141//46 142//46
f 142//46 141//46 143//46
f 142//47 143//47 144//47
f 144//47 143//47 145//47
f 144//48 145//48 146//48
f 146//48 145//48 147//48
f 146//49 147//49 148//49
f 148//49 147//49 149//49
f 148//50 149//50 150//50
f 150//50 149//50 151//50
f 150//51 151//51 152//51
f 152//51 151//51 153//51
f 152//52 153//52 154//52
f 154//52 153//52 155//52
f 154//53 155//53 156//53
f 156//53 155//53 157//53
f 156//54 157//54 158//54
f 158//55 157//55 159//55
f 158//56 159//56 160//56
f 160//56 159//56 161//56
f 160//57 161//57 162//57
f 162//57 161//57 163//57
f 162//58 163//58 164//58
f 164//58 163//58 165//58
f 164//59 165//59 166//59
f 166//59 165//59 167//59
f 166//60 167//60 96//60
f 96//60 167//60 97//60
f 168//23 169//23 170//23
f 170//23 169//23 171//23
f 170//24 171//24 172//24
f 172//24 171//24 173//24
f 172//25 173//25 174//25
f 174//25 173//25 175//25
f 174//61 175//61 176//61
f 176//61 175//61 177//61
f 176//27 177//27 178//27
f 178//27 177//27 179//27
f 178//28 179//28 180//28
f 180//29 179//29 181//29
f 180//30 181//30 182//30
f 182//30 181//30 183//30
f 182//31 183//31 184//31
f 184//31 183//31 185//31
f 184//32 185//32 186//32
f 186//32 185//32 187//32
f 186//33 187//33 188//33
f 188//33 187//33 189//33
f 188//34 189//34 190//34
f 190//34 189//34 191//34
f 190//35 191//35 192//35
f 192//35 191//35 193//35
f 192//36 193//36 194//36
f 194//36 193//36 195//36
f 194//37 195//37 196//37
f 196//37 195//37 197//37
f 196//62 197//62 198//62
f 198//62 197//62 199//62
f 198//39 199//39 200//39
f 200//39 199//39 201//39
f 200//40 201//40 202//40
f 202//40 201//40 203//40
f 202//41 203//41 204//41
f 204//41 203//41 205//41
f 204//42 205//42 206//42
f 206//42 205//42 207//42
f 206//43 207//43 208//43
f 208//43 207//43 209//43
f 208//44 209//44 210//44
f 210//44 209//44 211//44
f 210//63 211//63 212//63
f 212//63 211//63 213//63
f 212//46 213//46 214//46
f 214//46 213//46 215//46
f 214//47 215//47 216//47
f 216//47 215//47 217//47
f 216//48 217//48 218//48
f 218//48 217//48 219//48
f 218//49 219//49 220//49
f 220//49 219//49 221//49
f 220//50 221//50 222//50
f 222//50 221//50 223//50
f 222//51 223//51 224//51
f 224//51 223//51 225//51
f 224//52 225//52 226//52
f 226//52 225//52 227//52
f 226//53 227//53 228//53
f 228//53 227//53 229//53
f 228//54 229//54 230//54
f 230//55 229//55 231//55
f 230//56 231//56 232//56
f 232//56 231//56 233//56
f 232//64 233//64 234//64
f 234//64 233//64 235//64
f 234//58 235//58 236//58
f 236//58 235//58 237//58
f 236//59 237//59 238//59
f 238//59 237//59 239//59
f 238//60 239//60 168//60
f 168//60 239//60 169//60
f 110//65 112//65 240//65
f 241//65 242//65 120//65
f 243//65 244//65 245//65
f 245//65 244//65 246//65
f 245//65 246//65 247//65
f 248//65 112//65 114//65
f 126//65 128//65 249//65
f 106//65 108//65 250//65
f 251//66 116//66 242//66
f 242//65 116//65 118//65
f 242//65 118//65 120//65
f 249//65 128//65 252//65
f 248//67 253//67 112//67
f 112//65 253//65 254//65
f 112//65 254//65 240//65
f 128//65 130//65 252//65
f 252//65 130//65 132//65
f 252//65 132//65 255//65
f 255//65 132//65 134//65
f 255//65 134//65 256//65
f 256//65 134//65 136//65
f 256//65 136//65 257//65
f 257//65 136//65 138//65
f 257//65 138//65 258//65
f 258//65 138//65 140//65
f 258//65 140//65 259//65
f 259//65 140//65 142//65
f 259//65 142//65 260//65
f 260//65 142//65 144//65
f 260//65 144//65 261//65
f 261//65 144//65 146//65
f 261//65 146//65 262//65
f 262//65 146//65 148//65
f 262//65 148//65 263//65
f 263//65 148//65 150//65
f 263//65 150//65 264//65
f 264//65 150//65 152//65
f 264//65 152//65 265//65
f 265//65 152//65 154//65
f 265//65 154//65 266//65
f 266//65 154//65 156//65
f 266//65 156//65 267//65
f 267//65 156//65 158//65
f 267//65 158//65 268//65
f 268//65 158//65 160//65
f 268//65 160//65 269//65
f 269//65 160//65 162//65
f 269//65 162//65 270//65
f 270//65 162//65 164//65
f 270//65 164//65 271//65
f 271//65 164//65 166//65
f 271//65 166//65 272//65
f 110//65 240//65 108//65
f 108//65 240//65 273//65
f 108//65 273//65 250//65
f 166//65 96//65 272//65
f 272//65 96//65 98//65
f 272//65 98//65 274//65
f 114//65 116//65 248//65
f 248//65 116//65 251//65
f 248//65 251//65 246//65
f 246//65 251//65 275//65
f 246//65 275//65 247//65
f 126//65 249//65 124//65
f 124//65 249//65 276//65
f 124//65 276//65 122//65
f 122//65 276//65 277//65
f 122//65 277//65 120//65
f 120//65 277//65 278//65
f 120//65 278//65 241//65
f 98//65 100//65 274//65
f 274//65 100//65 102//65
f 274//65 102//65 250//65
f 250//65 102//65 104//65
f 250//65 104//65 106//65
f 38//65 279//65 42//65
f 42//65 279//65 280//65
f 42//65 280//65 281//65
f 282//65 283//65 220//65
f 220//65 283//65 284//65
f 220//65 284//65 285//65
f 286//65 287//65 224//65
f 224//65 287//65 288//65
f 289//65 290//65 206//65
f 214//65 216//65 285//65
f 285//65 216//65 218//65
f 285//65 218//65 220//65
f 206//65 208//65 289//65
f 289//65 208//65 210//65
f 289//65 210//65 285//65
f 285//65 210//65 212//65
f 285//65 212//65 214//65
f 281//65 280//65 291//65
f 291//65 280//65 292//65
f 291//65 292//65 293//65
f 286//65 224//65 294//65
f 294//65 224//65 226//65
f 294//65 226//65 228//65
f 295//65 296//65 236//65
f 236//65 238//65 295//65
f 295//65 238//65 168//65
f 295//65 168//65 297//65
f 297//65 168//65 170//65
f 297//65 170//65 298//65
f 298//65 170//65 172//65
f 298//65 172//65 299//65
f 299//65 172//65 174//65
f 299//65 174//65 300//65
f 300//65 174//65 176//65
f 300//65 176//65 301//65
f 301//65 176//65 178//65
f 301//65 178//65 302//65
f 302//65 178//65 180//65
f 302//65 180//65 303//65
f 303//65 180//65 182//65
f 303//65 182//65 304//65
f 304//65 182//65 184//65
f 304//65 184//65 305//65
f 305//65 184//65 186//65
f 305//65 186//65 306//65
f 306//65 186//65 188//65
f 306//65 188//65 307//65
f 307//65 188//65 190//65
f 307//65 190//65 308//65
f 308//65 190//65 192//65
f 308//65 192//65 309//65
f 309//65 192//65 194//65
f 309//65 194//65 310//65
f 310//65 194//65 196//65
f 310//65 196//65 311//65
f 311//65 196//65 198//65
f 311//65 198//65 312//65
f 312//65 198//65 200//65
f 312//65 200//65 313//65
f 313//65 200//65 202//65
f 313//65 202//65 290//65
f 290//65 202//65 204//65
f 290//65 204//65 206//65
f 288//65 314//65 224//65
f 224//67 314//67 293//67
f 224//65 293//65 222//65
f 222//65 293//65 292//65
f 222//65 292//65 220//65
f 220//66 292//66 315//66
f 220//65 315//65 282//65
f 228//65 230//65 294//65
f 294//65 230//65 232//65
f 294//65 232//65 296//65
f 296//65 232//65 234//65
f 296//65 234//65 236//65
f 316//18 317//18 47//18
f 47//18 317//18 36//18
f 44//68 318//68 319//68
f 44//68 319//68 48//68
f 48//69 319//69 320//69
f 48//69 320//69 49//69
f 49//70 320//70 321//70
f 49//70 321//70 51//70
f 51//71 321//71 322//71
f 51//72 322//72 52//72
f 52//73 322//73 323//73
f 52//73 323//73 50//73
f 50//74 323//74 324//74
f 50//74 324//74 53//74
f 53//75 324//75 325//75
f 53//75 325//75 45//75
f 45//76 325//76 326//76
f 45//76 326//76 46//76
f 46//77 326//77 316//77
f 46//77 316//77 47//77
f 44//78 43//78 318//78
f 318//78 43//78 327//78
f 169//18 239//18 40//18
f 40//18 239//18 237//18
f 40//18 237//18 235//18
f 235//18 233//18 40//18
f 40//18 233//18 231//18
f 40//18 231//18 229//18
f 183//18 181//18 153//18
f 43//18 149//18 147//18
f 229//18 227//18 40//18
f 40//18 227//18 225//18
f 40//18 225//18 43//18
f 43//18 225//18 223//18
f 193//18 149//18 195//18
f 195//18 149//18 197//18
f 153//18 181//18 155//18
f 115//18 328//18 117//18
f 117//18 328//18 327//18
f 117//18 327//18 119//18
f 115//18 113//18 328//18
f 328//18 113//18 111//18
f 328//18 111//18 109//18
f 147//18 145//18 43//18
f 43//18 145//18 143//18
f 43//18 143//18 141//18
f 133//18 131//18 327//18
f 125//18 123//18 327//18
f 327//18 123//18 121//18
f 327//18 121//18 119//18
f 223//18 221//18 43//18
f 43//18 221//18 219//18
f 43//18 219//18 217//18
f 217//18 215//18 43//18
f 43//18 215//18 213//18
f 43//18 213//18 211//18
f 211//18 209//18 43//18
f 43//18 209//18 207//18
f 43//18 207//18 205//18
f 181//18 179//18 328//18
f 328//18 179//18 177//18
f 109//18 107//18 328//18
f 328//18 107//18 105//18
f 328//18 105//18 103//18
f 103//18 101//18 328//18
f 328//18 101//18 99//18
f 328//18 99//18 97//18
f 177//18 175//18 328//18
f 328//18 175//18 173//18
f 328//18 173//18 40//18
f 40//18 173//18 171//18
f 40//18 171//18 169//18
f 131//18 129//18 327//18
f 327//18 129//18 127//18
f 327//18 127//18 125//18
f 205//18 203//18 43//18
f 43//18 203//18 201//18
f 43//18 201//18 149//18
f 149//18 201//18 199//18
f 149//18 199//18 197//18
f 193//18 191//18 149//18
f 149//18 191//18 189//18
f 149//18 189//18 151//18
f 151//18 189//18 187//18
f 151//18 187//18 153//18
f 153//18 187//18 185//18
f 153//18 185//18 183//18
f 141//18 139//18 43//18
f 43//18 139//18 137//18
f 43//18 137//18 327//18
f 327//18 137//18 135//18
f 327//18 135//18 133//18
f 161//18 159//18 181//18
f 181//18 159//18 157//18
f 181//18 157//18 155//18
f 97//18 167//18 328//18
f 328//18 167//18 165//18
f 328//18 165//18 181//18
f 181//18 165//18 163//18
f 181//18 163//18 161//18
f 329//79 330//79 40//79
f 40//79 330//79 331//79
f 332//79 333//79 34//79
f 34//79 333//79 334//79
f 335//79 336//79 34//79
f 34//79 336//79 337//79
f 34//79 337//79 35//79
f 337//79 338//79 35//79
f 35//79 338//79 339//79
f 35//79 339//79 340//79
f 340//79 341//79 35//79
f 35//79 341//79 342//79
f 35//79 342//79 343//79
f 343//79 344//79 35//79
f 35//79 344//79 345//79
f 35//79 345//79 346//79
f 346//79 347//79 35//79
f 35//79 347//79 348//79
f 35//79 348//79 349//79
f 350//79 328//79 351//79
f 351//79 328//79 40//79
f 351//79 40//79 352//79
f 350//79 353//79 328//79
f 328//79 353//79 354//79
f 328//79 354//79 355//79
f 356//79 357//79 34//79
f 34//79 357//79 358//79
f 34//79 358//79 335//79
f 349//79 359//79 35//79
f 35//79 359//79 360//79
f 35//79 360//79 40//79
f 40//79 360//79 361//79
f 40//79 361//79 329//79
f 362//79 363//79 40//79
f 40//79 363//79 364//79
f 40//79 364//79 352//79
f 355//79 365//79 328//79
f 328//79 365//79 366//79
f 328//79 366//79 367//79
f 367//79 368//79 328//79
f 328//79 368//79 369//79
f 328//79 369//79 370//79
f 371//79 372//79 34//79
f 34//79 372//79 373//79
f 34//79 373//79 332//79
f 370//79 374//79 328//79
f 328//79 374//79 375//79
f 328//79 375//79 34//79
f 34//79 375//79 376//79
f 34//79 376//79 371//79
f 334//79 377//79 34//79
f 34//79 377//79 378//79
f 34//79 378//79 356//79
f 331//79 379//79 40//79
f 40//79 379//79 380//79
f 40//79 380//79 362//79
f 243//51 381//51 382//51
f 243//51 382//51 244//51
f 244//52 382//52 383//52
f 244//52 383//52 246//52
f 246//53 383//53 384//53
f 246//53 384//53 248//53
f 248//55 384//55 385//55
f 248//55 385//55 253//55
f 253//56 385//56 386//56
f 253//56 386//56 254//56
f 254//64 386//64 387//64
f 254//64 387//64 240//64
f 240//58 387//58 388//58
f 240//58 388//58 273//58
f 273//59 388//59 389//59
f 273//59 389//59 250//59
f 250//60 389//60 390//60
f 250//60 390//60 274//60
f 390//79 391//79 274//79
f 274//79 391//79 272//79
f 272//60 391//60 271//60
f 271//60 391//60 392//60
f 271//59 392//59 270//59
f 270//59 392//59 393//59
f 270//58 393//58 269//58
f 269//58 393//58 394//58
f 269//57 394//57 268//57
f 268//57 394//57 395//57
f 268//56 395//56 267//56
f 267//56 395//56 396//56
f 267//55 396//55 266//55
f 266//55 396//55 397//55
f 266//53 397//53 265//53
f 265//53 397//53 398//53
f 265//52 398//52 264//52
f 264//52 398//52 399//52
f 264//51 399//51 263//51
f 263//51 399//51 400//51
f 263//50 400//50 262//50
f 262//50 400//50 401//50
f 262//49 401//49 261//49
f 261//49 401//49 402//49
f 261//48 402//48 260//48
f 260//48 402//48 403//48
f 260//47 403//47 259//47
f 259//47 403//47 404//47
f 259//46 404//46 258//46
f 258//46 404//46 405//46
f 258//45 405//45 257//45
f 257//45 405//45 406//45
f 257//44 406//44 256//44
f 256//44 406//44 407//44
f 256//43 407//43 255//43
f 255//43 407//43 408//43
f 255//42 408//42 252//42
f 252//42 408//42 409//42
f 249//78 252//78 410//78
f 410//78 252//78 409//78
f 249//42 410//42 411//42
f 249//42 411//42 276//42
f 276//43 411//43 412//43
f 276//43 412//43 277//43
f 277//44 412//44 413//44
f 277//44 413//44 278//44
f 278//63 413//63 414//63
f 278//63 414//63 241//63
f 241//46 414//46 415//46
f 241//46 415//46 242//46
f 242//47 415//47 416//47
f 242//47 416//47 251//47
f 251//48 416//48 417//48
f 251//48 417//48 275//48
f 275//49 417//49 418//49
f 275//49 418//49 247//49
f 247//50 418//50 419//50
f 247//50 419//50 245//50
f 37//79 36//79 420//79
f 420//79 36//79 317//79
f 38//33 39//33 421//33
f 38//33 421//33 279//33
f 279//34 421//34 422//34
f 279//34 422//34 280//34
f 280//35 422//35 423//35
f 280//35 423//35 292//35
f 292//36 423//36 424//36
f 292//36 424//36 315//36
f 315//37 424//37 425//37
f 315//37 425//37 282//37
f 282//38 425//38 426//38
f 282//38 426//38 283//38
f 283//39 426//39 427//39
f 283//39 427//39 284//39
f 284//40 427//40 428//40
f 284//40 428//40 285//40
f 285//41 428//41 429//41
f 285//41 429//41 289//41
f 429//78 430//78 289//78
f 289//78 430//78 290//78
f 290//41 430//41 313//41
f 313//41 430//41 431//41
f 313//40 431//40 312//40
f 312//40 431//40 432//40
f 312//39 432//39 311//39
f 311//39 432//39 433//39
f 311//62 433//62 310//62
f 310//62 433//62 434//62
f 310//37 434//37 309//37
f 309//37 434//37 435//37
f 309//36 435//36 308//36
f 308//36 435//36 436//36
f 308//35 436//35 307//35
f 307//35 436//35 437//35
f 307//34 437//34 306//34
f 306//34 437//34 438//34
f 306//33 438//33 305//33
f 305//33 438//33 439//33
f 305//32 439//32 304//32
f 304//32 439//32 440//32
f 304//31 440//31 303//31
f 303//31 440//31 441//31
f 303//30 441//30 302//30
f 302//30 441//30 442//30
f 302//29 442//29 301//29
f 301//29 442//29 443//29
f 301//27 443//27 300//27
f 300//27 443//27 444//27
f 300//61 444//61 299//61
f 299//61 444//61 445//61
f 299//25 445//25 298//25
f 298//25 445//25 446//25
f 298//24 446//24 297//24
f 297//24 446//24 447//24
f 297//23 447//23 295//23
f 295//23 447//23 448//23
f 296//79 295//79 449//79
f 449//79 295//79 448//79
f 296//23 449//23 450//23
f 296//23 450//23 294//23
f 294//24 450//24 451//24
f 294//24 451//24 286//24
f 286//25 451//25 452//25
f 286//25 452//25 287//25
f 287//26 452//26 453//26
f 287//26 453//26 288//26
f 288//27 453//27 454//27
f 288//27 454//27 314//27
f 314//29 454//29 455//29
f 314//29 455//29 293//29
f 293//30 455//30 456//30
f 293//30 456//30 291//30
f 291//31 456//31 457//31
f 291//31 457//31 281//31
f 281//32 457//32 41//32
f 281//32 41//32 42//32
f 403//65 402//65 433//65
f 437//65 436//65 402//65
f 397//65 396//65 3//65
f 3//65 396//65 395//65
f 3//65 395//65 394//65
f 431//65 430//65 37//65
f 37//65 430//65 429//65
f 37//65 429//65 39//65
f 394//65 393//65 3//65
f 3//65 393//65 392//65
f 3//65 392//65 1//65
f 444//65 397//65 445//65
f 445//65 397//65 3//65
f 445//65 3//65 446//65
f 446//65 3//65 458//65
f 446//65 458//65 447//65
f 436//65 435//65 402//65
f 402//65 435//65 434//65
f 402//65 434//65 433//65
f 447//65 458//65 448//65
f 448//65 458//65 5//65
f 448//65 5//65 449//65
f 449//65 5//65 41//65
f 449//65 41//65 457//65
f 420//65 408//65 407//65
f 406//65 405//65 433//65
f 433//65 405//65 404//65
f 433//65 404//65 403//65
f 382//65 381//65 387//65
f 431//65 37//65 432//65
f 432//65 37//65 420//65
f 432//65 420//65 433//65
f 433//65 420//65 407//65
f 433//65 407//65 406//65
f 444//65 443//65 397//65
f 397//65 443//65 442//65
f 397//65 442//65 441//65
f 387//65 381//65 388//65
f 412//65 411//65 419//65
f 419//65 411//65 410//65
f 419//65 410//65 420//65
f 420//65 410//65 409//65
f 420//65 409//65 408//65
f 385//65 384//65 383//65
f 457//65 456//65 449//65
f 449//65 456//65 455//65
f 449//65 455//65 454//65
f 454//65 453//65 449//65
f 449//65 453//65 452//65
f 449//65 452//65 450//65
f 450//65 452//65 451//65
f 39//65 429//65 421//65
f 421//65 429//65 428//65
f 421//65 428//65 427//65
f 427//65 426//65 421//65
f 421//65 426//65 425//65
f 421//65 425//65 422//65
f 422//65 425//65 424//65
f 422//65 424//65 423//65
f 392//65 391//65 1//65
f 1//65 391//65 390//65
f 1//65 390//65 381//65
f 381//65 390//65 389//65
f 381//65 389//65 388//65
f 418//65 417//65 419//65
f 419//65 417//65 416//65
f 419//65 416//65 415//65
f 415//65 414//65 419//65
f 419//65 414//65 413//65
f 419//65 413//65 412//65
f 437//65 402//65 438//65
f 438//65 402//65 401//65
f 438//65 401//65 439//65
f 439//65 401//65 400//65
f 439//65 400//65 440//65
f 440//65 400//65 399//65
f 440//65 399//65 441//65
f 441//65 399//65 398//65
f 441//65 398//65 397//65
f 382//65 387//65 383//65
f 383//65 387//65 386//65
f 383//65 386//65 385//65
f 419//80 420//80 245//80
f 245//80 420//80 317//80
f 327//80 328//80 243//80
f 243//80 328//80 1//80
f 243//80 1//80 381//80
f 243//80 245//80 327//80
f 327//80 245//80 317//80
f 327//80 317//80 318//80
f 318//80 317//80 316//80
f 318//80 316//80 326//80
f 323//80 322//80 321//80
f 321//80 320//80 323//80
f 323//80 320//80 319//80
f 323//80 319//80 318//80
f 326//80 325//80 318//80
f 318//80 325//80 324//80
f 318//80 324//80 323//80
f 26//80 32//80 28//80
f 28//80 32//80 30//80
f 26//80 24//80 32//80
f 32//80 24//80 23//80
f 32//80 23//80 18//80
f 18//80 16//80 32//80
f 32//80 16//80 15//80
f 32//80 15//80 34//80
f 34//80 15//80 55//80
f 34//80 55//80 328//80
f 328//80 55//80 2//80
f 328//80 2//80 1//80
f 459//81 460//81 461//81
f 462//82 463//82 464//82
f 464//82 463//82 465//82
f 464//83 465//83 466//83
f 466//83 465//83 467//83
f 466//84 467//84 468//84
f 468//84 467//84 469//84
f 468//85 469//85 470//85
f 470//85 469//85 471//85
f 470//86 471//86 472//86
f 472//86 471//86 473//86
f 472//87 473//87 474//87
f 474//87 473//87 475//87
f 474//88 475//88 476//88
f 476//89 475//89 459//89
f 476//90 459//90 477//90
f 477//91 459//91 461//91
f 460//92 459//92 478//92
f 478//93 459//93 57//93
f 478//94 57//94 61//94
f 479//95 463//95 480//95
f 480//95 463//95 462//95
f 481//95 482//95 483//95
f 484//95 485//95 486//95
f 487//95 488//95 489//95
f 489//95 488//95 490//95
f 489//95 490//95 483//95
f 483//95 490//95 491//95
f 483//95 491//95 481//95
f 492//96 493//96 485//96
f 485//97 493//97 494//97
f 485//95 494//95 486//95
f 495//95 496//95 497//95
f 495//95 497//95 486//95
f 486//95 497//95 498//95
f 486//95 498//95 484//95
f 482//95 499//95 483//95
f 483//95 499//95 500//95
f 483//95 500//95 501//95
f 502//95 503//95 489//95
f 489//96 503//96 504//96
f 489//97 504//97 505//97
f 506//95 483//95 507//95
f 507//95 483//95 508//95
f 509//95 510//95 480//95
f 485//95 511//95 492//95
f 492//95 511//95 512//95
f 492//95 512//95 513//95
f 505//95 514//95 489//95
f 489//97 514//97 515//97
f 489//95 515//95 487//95
f 516//97 517//97 480//97
f 480//95 517//95 518//95
f 480//95 518//95 489//95
f 489//96 518//96 519//96
f 489//97 519//97 502//97
f 506//95 520//95 483//95
f 483//95 520//95 521//95
f 483//95 521//95 522//95
f 522//95 521//95 523//95
f 522//95 523//95 524//95
f 524//96 523//96 525//96
f 524//97 525//97 526//97
f 526//95 527//95 524//95
f 524//95 527//95 528//95
f 524//95 528//95 529//95
f 510//95 530//95 480//95
f 480//95 530//95 531//95
f 480//95 531//95 532//95
f 533//95 534//95 480//95
f 480//95 534//95 535//95
f 480//95 535//95 516//95
f 501//95 536//95 483//95
f 483//95 536//95 537//95
f 483//95 537//95 538//95
f 539//95 540//95 462//95
f 462//95 540//95 541//95
f 462//95 541//95 480//95
f 480//95 541//95 542//95
f 480//95 542//95 509//95
f 532//95 543//95 480//95
f 480//95 543//95 544//95
f 480//95 544//95 492//95
f 496//95 545//95 497//95
f 497//95 545//95 546//95
f 497//98 546//98 547//98
f 547//95 546//95 548//95
f 547//99 548//99 538//99
f 538//95 548//95 549//95
f 538//95 549//95 483//95
f 483//95 549//95 550//95
f 483//95 550//95 508//95
f 529//95 551//95 524//95
f 524//95 551//95 552//95
f 524//95 552//95 462//95
f 462//95 552//95 553//95
f 462//95 553//95 539//95
f 513//95 554//95 492//95
f 492//95 554//95 555//95
f 492//95 555//95 480//95
f 480//95 555//95 556//95
f 480//95 556//95 533//95
f 557//100 558//100 483//100
f 483//100 558//100 559//100
f 483//100 559//100 489//100
f 489//100 559//100 560//100
f 561//101 562//101 563//101
f 563//101 562//101 564//101
f 563//101 564//101 565//101
f 566//101 567//101 561//101
f 561//101 567//101 568//101
f 561//101 568//101 569//101
f 570//102 571//102 560//102
f 569//101 572//101 561//101
f 561//101 572//101 573//101
f 561//101 573//101 574//101
f 575//101 576//101 577//101
f 577//101 578//101 575//101
f 575//101 578//101 579//101
f 575//101 579//101 580//101
f 581//103 582//103 575//103
f 575//102 582//102 583//102
f 575//101 583//101 584//101
f 585//101 586//101 559//101
f 559//101 586//101 587//101
f 559//101 587//101 588//101
f 589//102 560//102 590//102
f 590//102 560//102 591//102
f 592//101 593//101 561//101
f 561//101 593//101 594//101
f 561//101 594//101 595//101
f 596//101 597//101 598//101
f 562//101 599//101 600//101
f 584//101 601//101 575//101
f 575//101 601//101 602//101
f 575//101 602//101 559//101
f 559//101 602//101 603//101
f 559//101 603//101 585//101
f 571//101 604//101 560//101
f 560//101 604//101 605//101
f 560//103 605//103 591//103
f 589//101 606//101 560//101
f 560//101 606//101 607//101
f 560//101 607//101 561//101
f 561//103 607//103 608//103
f 561//102 608//102 592//102
f 595//101 609//101 561//101
f 561//102 609//102 610//102
f 561//101 610//101 611//101
f 596//101 598//101 612//101
f 613//101 614//101 611//101
f 566//104 561//104 615//104
f 615//101 561//101 611//101
f 615//102 611//102 616//102
f 588//101 617//101 559//101
f 559//101 617//101 618//101
f 559//101 618//101 619//101
f 581//101 575//101 620//101
f 620//101 575//101 580//101
f 620//101 580//101 598//101
f 598//105 580//105 621//105
f 598//106 621//106 612//106
f 614//101 622//101 611//101
f 611//102 622//102 623//102
f 611//103 623//103 616//103
f 600//101 624//101 562//101
f 562//101 624//101 625//101
f 562//101 625//101 575//101
f 575//101 625//101 626//101
f 575//101 626//101 576//101
f 597//101 627//101 598//101
f 598//101 627//101 628//101
f 598//101 628//101 629//101
f 629//101 630//101 598//101
f 598//101 630//101 631//101
f 598//101 631//101 611//101
f 611//101 631//101 632//101
f 611//101 632//101 613//101
f 574//101 633//101 561//101
f 561//101 633//101 634//101
f 561//101 634//101 562//101
f 562//101 634//101 635//101
f 562//101 635//101 599//101
f 619//101 636//101 559//101
f 559//101 636//101 637//101
f 559//101 637//101 560//101
f 560//101 637//101 638//101
f 560//101 638//101 570//101
f 639//107 12//107 640//107
f 562//108 575//108 641//108
f 639//107 640//107 642//107
f 642//109 640//109 643//109
f 642//110 643//110 644//110
f 643//111 645//111 644//111
f 644//112 645//112 646//112
f 644//113 646//113 647//113
f 646//114 648//114 647//114
f 647//115 648//115 649//115
f 647//116 649//116 650//116
f 649//117 651//117 650//117
f 650//118 651//118 652//118
f 650//118 652//118 653//118
f 653//119 652//119 654//119
f 653//119 654//119 655//119
f 655//120 654//120 656//120
f 655//120 656//120 641//120
f 641//108 656//108 564//108
f 641//108 564//108 562//108
f 21//121 13//121 12//121
f 12//121 639//121 21//121
f 21//122 639//122 22//122
f 657//19 658//19 659//19
f 659//19 658//19 660//19
f 657//123 659//123 661//123
f 661//123 659//123 662//123
f 661//124 662//124 663//124
f 663//124 662//124 664//124
f 663//87 664//87 665//87
f 665//87 664//87 666//87
f 665//86 666//86 667//86
f 667//86 666//86 668//86
f 667//85 668//85 669//85
f 669//85 668//85 670//85
f 669//84 670//84 671//84
f 671//84 670//84 672//84
f 671//83 672//83 673//83
f 673//83 672//83 674//83
f 673//82 674//82 675//82
f 675//82 674//82 676//82
f 677//95 675//95 678//95
f 678//95 675//95 676//95
f 480//100 561//100 479//100
f 479//100 561//100 563//100
f 479//100 563//100 678//100
f 678//100 563//100 677//100
f 7//125 6//125 679//125
f 12//126 11//126 640//126
f 640//127 11//127 10//127
f 640//128 10//128 643//128
f 565//108 564//108 656//108
f 565//129 656//129 680//129
f 680//130 656//130 654//130
f 680//131 654//131 681//131
f 681//132 654//132 652//132
f 681//133 652//133 682//133
f 682//134 652//134 651//134
f 682//135 651//135 683//135
f 10//136 9//136 643//136
f 643//137 9//137 8//137
f 643//111 8//111 645//111
f 645//138 8//138 7//138
f 645//139 7//139 646//139
f 646//140 7//140 679//140
f 646//141 679//141 648//141
f 648//142 679//142 683//142
f 648//115 683//115 649//115
f 649//117 683//117 651//117
f 458//80 3//80 658//80
f 658//80 3//80 4//80
f 658//80 4//80 660//80
f 677//1 563//1 675//1
f 675//1 563//1 565//1
f 675//1 565//1 673//1
f 673//1 565//1 680//1
f 673//1 680//1 671//1
f 671//1 680//1 681//1
f 671//1 681//1 669//1
f 669//1 681//1 682//1
f 669//1 682//1 667//1
f 667//1 682//1 683//1
f 667//1 683//1 665//1
f 665//1 683//1 679//1
f 665//1 679//1 663//1
f 663//1 679//1 6//1
f 458//1 658//1 5//1
f 5//1 658//1 657//1
f 5//1 657//1 6//1
f 6//1 657//1 661//1
f 6//1 661//1 663//1
f 660//143 4//143 659//143
f 659//143 4//143 57//143
f 659//143 57//143 662//143
f 662//143 57//143 459//143
f 662//143 459//143 664//143
f 664//143 459//143 475//143
f 664//143 475//143 666//143
f 666//143 475//143 473//143
f 666//143 473//143 668//143
f 668//143 473//143 471//143
f 668//143 471//143 670//143
f 670//143 471//143 469//143
f 670//143 469//143 672//143
f 672//143 469//143 467//143
f 672//143 467//143 674//143
f 674//143 467//143 465//143
f 674//143 465//143 676//143
f 676//143 465//143 463//143
f 676//143 463//143 678//143
f 678//143 463//143 479//143
f 560//1 561//1 489//1
f 489//1 561//1 480//1
f 540//144 599//144 541//144
f 541//145 599//145 635//145
f 541//146 635//146 542//146
f 542//146 635//146 634//146
f 542//147 634//147 509//147
f 509//147 634//147 633//147
f 509//148 633//148 510//148
f 510//149 633//149 574//149
f 510//150 574//150 530//150
f 530//150 574//150 573//150
f 530//151 573//151 531//151
f 531//151 573//151 572//151
f 531//152 572//152 532//152
f 532//152 572//152 569//152
f 532//153 569//153 543//153
f 543//153 569//153 568//153
f 543//154 568//154 544//154
f 544//154 568//154 567//154
f 544//155 567//155 492//155
f 492//155 567//155 566//155
f 492//156 566//156 493//156
f 493//156 566//156 615//156
f 493//157 615//157 494//157
f 494//157 615//157 616//157
f 494//158 616//158 486//158
f 486//158 616//158 623//158
f 486//159 623//159 495//159
f 495//159 623//159 622//159
f 495//160 622//160 496//160
f 496//160 622//160 614//160
f 496//161 614//161 545//161
f 545//161 614//161 613//161
f 545//162 613//162 546//162
f 546//162 613//162 632//162
f 546//163 632//163 548//163
f 548//164 632//164 631//164
f 548//165 631//165 549//165
f 549//166 631//166 630//166
f 549//167 630//167 550//167
f 550//168 630//168 629//168
f 550//169 629//169 508//169
f 508//169 629//169 628//169
f 508//170 628//170 507//170
f 507//170 628//170 627//170
f 507//171 627//171 506//171
f 506//171 627//171 597//171
f 506//172 597//172 520//172
f 520//172 597//172 596//172
f 520//173 596//173 521//173
f 521//174 596//174 612//174
f 521//175 612//175 523//175
f 523//175 612//175 621//175
f 523//176 621//176 525//176
f 525//176 621//176 580//176
f 525//177 580//177 526//177
f 526//177 580//177 579//177
f 526//178 579//178 527//178
f 527//178 579//178 578//178
f 527//179 578//179 528//179
f 528//179 578//179 577//179
f 528//180 577//180 529//180
f 529//180 577//180 576//180
f 529//181 576//181 551//181
f 551//181 576//181 626//181
f 551//182 626//182 552//182
f 552//182 626//182 625//182
f 552//183 625//183 553//183
f 553//183 625//183 624//183
f 553//184 624//184 539//184
f 539//184 624//184 600//184
f 539//185 600//185 540//185
f 540//185 600//185 599//185
f 554//144 598//144 555//144
f 555//144 598//144 611//144
f 555//146 611//146 556//146
f 556//146 611//146 610//146
f 556//147 610//147 533//147
f 533//147 610//147 609//147
f 533//148 609//148 534//148
f 534//148 609//148 595//148
f 534//150 595//150 535//150
f 535//150 595//150 594//150
f 535//151 594//151 516//151
f 516//151 594//151 593//151
f 516//152 593//152 517//152
f 517//152 593//152 592//152
f 517//153 592//153 518//153
f 518//153 592//153 608//153
f 518//154 608//154 519//154
f 519//154 608//154 607//154
f 519//186 607//186 502//186
f 502//155 607//155 606//155
f 502//156 606//156 503//156
f 503//156 606//156 589//156
f 503//157 589//157 504//157
f 504//157 589//157 590//157
f 504//158 590//158 505//158
f 505//158 590//158 591//158
f 505//187 591//187 514//187
f 514//188 591//188 605//188
f 514//160 605//160 515//160
f 515//160 605//160 604//160
f 515//161 604//161 487//161
f 487//161 604//161 571//161
f 487//162 571//162 488//162
f 488//162 571//162 570//162
f 488//163 570//163 490//163
f 490//164 570//164 638//164
f 490//166 638//166 491//166
f 491//165 638//165 637//165
f 491//168 637//168 481//168
f 481//167 637//167 636//167
f 481//169 636//169 482//169
f 482//169 636//169 619//169
f 482//170 619//170 499//170
f 499//170 619//170 618//170
f 499//171 618//171 500//171
f 500//171 618//171 617//171
f 500//189 617//189 501//189
f 501//172 617//172 588//172
f 501//174 588//174 536//174
f 536//173 588//173 587//173
f 536//175 587//175 537//175
f 537//175 587//175 586//175
f 537//176 586//176 538//176
f 538//176 586//176 585//176
f 538//177 585//177 547//177
f 547//177 585//177 603//177
f 547//178 603//178 497//178
f 497//178 603//178 602//178
f 497//179 602//179 498//179
f 498//179 602//179 601//179
f 498//180 601//180 484//180
f 484//180 601//180 584//180
f 484//181 584//181 485//181
f 485//181 584//181 583//181
f 485//182 583//182 511//182
f 511//182 583//182 582//182
f 511//183 582//183 512//183
f 512//183 582//183 581//183
f 512//184 581//184 513//184
f 513//184 581//184 620//184
f 513//185 620//185 554//185
f 554//185 620//185 598//185
f 684//82 685//82 686//82
f 686//82 685//82 687//82
f 686//83 687//83 688//83
f 688//190 687//190 689//190
f 688//84 689//84 690//84
f 690//84 689//84 691//84
f 690//85 691//85 692//85
f 692//85 691//85 693//85
f 692//86 693//86 694//86
f 694//86 693//86 695//86
f 694//87 695//87 696//87
f 696//87 695//87 697//87
f 696//124 697//124 698//124
f 698//124 697//124 699//124
f 698//123 699//123 700//123
f 700//123 699//123 701//123
f 702//19 703//19 701//19
f 701//19 703//19 700//19
f 702//80 56//80 703//80
f 703//80 56//80 54//80
f 54//80 14//80 703//80
f 703//80 14//80 17//80
f 703//80 17//80 19//80
f 685//95 684//95 557//95
f 557//95 684//95 558//95
f 704//143 705//143 706//143
f 705//143 707//143 706//143
f 706//143 707//143 708//143
f 706//143 708//143 709//143
f 710//143 711//143 684//143
f 684//143 711//143 712//143
f 709//143 713//143 706//143
f 706//143 713//143 714//143
f 706//143 714//143 715//143
f 715//143 714//143 716//143
f 715//143 716//143 717//143
f 717//143 716//143 718//143
f 19//143 719//143 720//143
f 721//143 722//143 703//143
f 559//143 723//143 575//143
f 575//143 723//143 724//143
f 575//143 724//143 725//143
f 726//143 727//143 684//143
f 684//143 727//143 728//143
f 684//143 728//143 729//143
f 725//143 730//143 575//143
f 575//143 730//143 731//143
f 575//143 731//143 732//143
f 729//143 733//143 684//143
f 684//143 733//143 734//143
f 684//143 734//143 710//143
f 735//143 736//143 558//143
f 558//143 736//143 737//143
f 738//143 739//143 559//143
f 559//143 739//143 740//143
f 559//191 740//191 723//191
f 719//143 19//143 741//143
f 741//192 19//192 22//192
f 742//143 743//143 703//143
f 703//143 743//143 744//143
f 712//143 745//143 684//143
f 684//143 745//143 746//143
f 684//143 746//143 558//143
f 558//193 746//193 747//193
f 558//194 747//194 748//194
f 720//143 749//143 19//143
f 19//143 749//143 750//143
f 19//143 750//143 703//143
f 703//143 750//143 751//143
f 703//143 751//143 721//143
f 748//143 752//143 558//143
f 558//143 752//143 753//143
f 558//143 753//143 735//143
f 722//143 754//143 703//143
f 703//143 754//143 755//143
f 703//143 755//143 756//143
f 756//143 757//143 703//143
f 703//143 757//143 758//143
f 703//191 758//191 759//191
f 704//195 706//195 760//195
f 760//143 706//143 761//143
f 760//191 761//191 762//191
f 744//143 763//143 703//143
f 703//191 763//191 764//191
f 703//143 764//143 700//143
f 737//143 765//143 558//143
f 558//143 765//143 766//143
f 558//143 766//143 559//143
f 559//143 766//143 767//143
f 559//143 767//143 768//143
f 769//143 770//143 22//143
f 22//143 770//143 771//143
f 22//143 771//143 741//143
f 772//143 692//143 773//143
f 773//191 692//191 694//191
f 768//143 774//143 559//143
f 559//143 774//143 775//143
f 559//143 775//143 738//143
f 764//143 776//143 700//143
f 700//143 776//143 777//143
f 700//143 777//143 698//143
f 698//143 777//143 773//143
f 698//143 773//143 696//143
f 696//143 773//143 694//143
f 778//143 779//143 575//143
f 575//143 779//143 780//143
f 575//143 780//143 641//143
f 641//143 780//143 781//143
f 641//143 781//143 655//143
f 655//143 781//143 782//143
f 655//143 782//143 653//143
f 653//143 782//143 783//143
f 653//143 783//143 650//143
f 650//143 783//143 784//143
f 650//143 784//143 647//143
f 647//143 784//143 785//143
f 647//143 785//143 644//143
f 644//143 785//143 786//143
f 644//143 786//143 642//143
f 642//143 786//143 787//143
f 642//143 787//143 639//143
f 788//143 639//143 789//143
f 789//143 639//143 790//143
f 788//143 791//143 639//143
f 639//143 791//143 792//143
f 639//143 792//143 22//143
f 22//143 792//143 793//143
f 22//143 793//143 769//143
f 759//143 794//143 703//143
f 703//191 794//191 795//191
f 703//143 795//143 760//143
f 684//143 686//143 575//143
f 787//143 796//143 639//143
f 639//143 796//143 797//143
f 639//143 797//143 798//143
f 762//143 799//143 760//143
f 760//143 799//143 800//143
f 760//143 800//143 703//143
f 703//143 800//143 801//143
f 703//143 801//143 742//143
f 686//143 688//143 575//143
f 575//143 688//143 690//143
f 575//143 690//143 692//143
f 790//143 639//143 802//143
f 802//143 639//143 798//143
f 802//143 798//143 803//143
f 803//196 798//196 804//196
f 803//143 804//143 716//143
f 716//197 804//197 805//197
f 716//192 805//192 718//192
f 732//143 806//143 575//143
f 575//143 806//143 807//143
f 575//143 807//143 684//143
f 684//143 807//143 808//143
f 684//143 808//143 726//143
f 772//143 809//143 692//143
f 692//143 809//143 810//143
f 692//143 810//143 575//143
f 575//143 810//143 811//143
f 575//143 811//143 778//143
f 88//198 341//198 340//198
f 88//199 340//199 89//199
f 341//200 88//200 342//200
f 342//201 88//201 78//201
f 342//202 78//202 343//202
f 343//203 78//203 344//203
f 344//204 78//204 77//204
f 344//205 77//205 345//205
f 345//206 77//206 76//206
f 345//206 76//206 346//206
f 346//207 76//207 87//207
f 346//207 87//207 347//207
f 347//208 87//208 86//208
f 347//208 86//208 348//208
f 348//209 86//209 85//209
f 348//209 85//209 349//209
f 349//210 85//210 62//210
f 349//210 62//210 359//210
f 359//211 62//211 65//211
f 359//211 65//211 360//211
f 360//212 65//212 64//212
f 360//212 64//212 361//212
f 361//213 64//213 63//213
f 361//213 63//213 329//213
f 329//214 63//214 59//214
f 329//214 59//214 330//214
f 330//215 59//215 58//215
f 330//215 58//215 331//215
f 331//216 58//216 379//216
f 379//217 58//217 75//217
f 379//218 75//218 380//218
f 380//219 75//219 362//219
f 362//220 75//220 74//220
f 362//221 74//221 363//221
f 363//222 74//222 364//222
f 364//223 74//223 73//223
f 364//224 73//224 352//224
f 352//225 73//225 351//225
f 351//226 73//226 72//226
f 351//227 72//227 350//227
f 350//228 72//228 353//228
f 353//229 72//229 81//229
f 353//230 81//230 354//230
f 354//231 81//231 355//231
f 355//232 81//232 80//232
f 355//233 80//233 365//233
f 365//234 80//234 366//234
f 366//235 80//235 79//235
f 366//236 79//236 367//236
f 367//237 79//237 368//237
f 368//238 79//238 69//238
f 368//239 69//239 369//239
f 369//240 69//240 68//240
f 369//240 68//240 370//240
f 370//241 68//241 67//241
f 370//241 67//241 374//241
f 374//242 67//242 66//242
f 374//242 66//242 375//242
f 375//243 66//243 92//243
f 375//243 92//243 376//243
f 376//244 92//244 91//244
f 376//244 91//244 371//244
f 371//245 91//245 90//245
f 371//245 90//245 372//245
f 372//246 90//246 95//246
f 372//246 95//246 373//246
f 373//247 95//247 94//247
f 373//247 94//247 332//247
f 332//248 94//248 93//248
f 332//248 93//248 333//248
f 333//249 93//249 84//249
f 333//249 84//249 334//249
f 83//250 378//250 84//250
f 84//251 378//251 377//251
f 84//252 377//252 334//252
f 82//253 71//253 335//253
f 335//254 358//254 82//254
f 82//255 358//255 357//255
f 82//256 357//256 83//256
f 83//257 357//257 356//257
f 83//258 356//258 378//258
f 340//259 339//259 89//259
f 89//260 339//260 338//260
f 89//261 338//261 70//261
f 70//262 338//262 337//262
f 70//263 337//263 71//263
f 71//264 337//264 336//264
f 71//265 336//265 335//265
f 812//266 716//266 813//266
f 813//266 716//266 714//266
f 813//267 714//267 814//267
f 814//267 714//267 713//267
f 814//268 713//268 815//268
f 815//269 713//269 709//269
f 815//270 709//270 816//270
f 816//271 709//271 708//271
f 816//272 708//272 817//272
f 817//272 708//272 707//272
f 817//273 707//273 818//273
f 818//273 707//273 705//273
f 818//274 705//274 819//274
f 819//274 705//274 704//274
f 819//275 704//275 820//275
f 820//275 704//275 760//275
f 820//276 760//276 821//276
f 821//276 760//276 795//276
f 821//277 795//277 822//277
f 822//277 795//277 794//277
f 822//278 794//278 823//278
f 823//278 794//278 759//278
f 823//279 759//279 824//279
f 824//279 759//279 758//279
f 824//280 758//280 825//280
f 825//280 758//280 757//280
f 825//281 757//281 826//281
f 826//281 757//281 756//281
f 826//282 756//282 827//282
f 827//282 756//282 755//282
f 827//283 755//283 828//283
f 828//284 755//284 754//284
f 828//285 754//285 829//285
f 829//285 754//285 722//285
f 829//286 722//286 830//286
f 830//286 722//286 721//286
f 830//287 721//287 831//287
f 831//287 721//287 751//287
f 831//288 751//288 832//288
f 832//288 751//288 750//288
f 832//289 750//289 833//289
f 833//289 750//289 749//289
f 833//290 749//290 834//290
f 834//290 749//290 720//290
f 834//291 720//291 835//291
f 835//291 720//291 719//291
f 835//292 719//292 836//292
f 836//292 719//292 741//292
f 836//293 741//293 837//293
f 837//293 741//293 771//293
f 837//294 771//294 838//294
f 838//294 771//294 770//294
f 838//295 770//295 839//295
f 839//295 770//295 769//295
f 839//296 769//296 840//296
f 840//296 769//296 793//296
f 840//297 793//297 841//297
f 841//297 793//297 792//297
f 841//298 792//298 842//298
f 842//298 792//298 791//298
f 842//299 791//299 843//299
f 843//299 791//299 788//299
f 843//300 788//300 844//300
f 844//300 788//300 789//300
f 844//301 789//301 845//301
f 845//301 789//301 790//301
f 845//302 790//302 846//302
f 846//302 790//302 802//302
f 846//303 802//303 847//303
f 847//303 802//303 803//303
f 847//304 803//304 812//304
f 812//304 803//304 716//304
f 848//266 781//266 849//266
f 849//266 781//266 780//266
f 849//267 780//267 850//267
f 850//267 780//267 779//267
f 850//269 779//269 851//269
f 851//268 779//268 778//268
f 851//270 778//270 852//270
f 852//271 778//271 811//271
f 852//272 811//272 853//272
f 853//272 811//272 810//272
f 853//273 810//273 854//273
f 854//273 810//273 809//273
f 854//274 809//274 855//274
f 855//274 809//274 772//274
f 855//275 772//275 856//275
f 856//275 772//275 773//275
f 856//276 773//276 857//276
f 857//276 773//276 777//276
f 857//277 777//277 858//277
f 858//277 777//277 776//277
f 858//278 776//278 859//278
f 859//278 776//278 764//278
f 859//279 764//279 860//279
f 860//279 764//279 763//279
f 860//280 763//280 861//280
f 861//280 763//280 744//280
f 861//281 744//281 862//281
f 862//281 744//281 743//281
f 862//282 743//282 863//282
f 863//282 743//282 742//282
f 863//284 742//284 864//284
f 864//284 742//284 801//284
f 864//285 801//285 865//285
f 865//285 801//285 800//285
f 865//286 800//286 866//286
f 866//286 800//286 799//286
f 866//287 799//287 867//287
f 867//287 799//287 762//287
f 867//288 762//288 868//288
f 868//288 762//288 761//288
f 868//305 761//305 869//305
f 869//289 761//289 706//289
f 869//290 706//290 870//290
f 870//290 706//290 715//290
f 870//291 715//291 871//291
f 871//291 715//291 717//291
f 871//292 717//292 872//292
f 872//292 717//292 718//292
f 872//293 718//293 873//293
f 873//293 718//293 805//293
f 873//294 805//294 874//294
f 874//294 805//294 804//294
f 874//295 804//295 875//295
f 875//295 804//295 798//295
f 875//296 798//296 876//296
f 876//296 798//296 797//296
f 876//297 797//297 877//297
f 877//297 797//297 796//297
f 877//298 796//298 878//298
f 878//298 796//298 787//298
f 878//299 787//299 879//299
f 879//299 787//299 786//299
f 879//300 786//300 880//300
f 880//300 786//300 785//300
f 880//301 785//301 881//301
f 881//301 785//301 784//301
f 881//302 784//302 882//302
f 882//306 784//306 783//306
f 882//303 783//303 883//303
f 883//303 783//303 782//303
f 883//304 782//304 848//304
f 848//304 782//304 781//304
f 884//266 740//266 885//266
f 885//266 740//266 739//266
f 885//267 739//267 886//267
f 886//267 739//267 738//267
f 886//268 738//268 887//268
f 887//269 738//269 775//269
f 887//271 775//271 888//271
f 888//271 775//271 774//271
f 888//272 774//272 889//272
f 889//272 774//272 768//272
f 889//273 768//273 890//273
f 890//273 768//273 767//273
f 890//274 767//274 891//274
f 891//274 767//274 766//274
f 891//275 766//275 892//275
f 892//275 766//275 765//275
f 892//276 765//276 893//276
f 893//276 765//276 737//276
f 893//277 737//277 894//277
f 894//307 737//307 736//307
f 894//278 736//278 895//278
f 895//278 736//278 735//278
f 895//279 735//279 896//279
f 896//279 735//279 753//279
f 896//280 753//280 897//280
f 897//280 753//280 752//280
f 897//281 752//281 898//281
f 898//281 752//281 748//281
f 898//308 748//308 899//308
f 899//308 748//308 747//308
f 899//284 747//284 900//284
f 900//283 747//283 746//283
f 900//285 746//285 901//285
f 901//285 746//285 745//285
f 901//286 745//286 902//286
f 902//286 745//286 712//286
f 902//287 712//287 903//287
f 903//287 712//287 711//287
f 903//288 711//288 904//288
f 904//288 711//288 710//288
f 904//305 710//305 905//305
f 905//289 710//289 734//289
f 905//290 734//290 906//290
f 906//309 734//309 733//309
f 906//291 733//291 907//291
f 907//291 733//291 729//291
f 907//292 729//292 908//292
f 908//292 729//292 728//292
f 908//293 728//293 909//293
f 909//293 728//293 727//293
f 909//294 727//294 910//294
f 910//294 727//294 726//294
f 910//310 726//310 911//310
f 911//295 726//295 808//295
f 911//296 808//296 912//296
f 912//311 808//311 807//311
f 912//297 807//297 913//297
f 913//297 807//297 806//297
f 913//298 806//298 914//298
f 914//298 806//298 732//298
f 914//299 732//299 915//299
f 915//299 732//299 731//299
f 915//300 731//300 916//300
f 916//300 731//300 730//300
f 916//312 730//312 917//312
f 917//312 730//312 725//312
f 917//306 725//306 918//306
f 918//302 725//302 724//302
f 918//303 724//303 919//303
f 919//303 724//303 723//303
f 919//304 723//304 884//304
f 884//304 723//304 740//304
f 827//1 828//1 702//1
f 832//1 833//1 56//1
f 56//1 833//1 834//1
f 56//1 834//1 835//1
f 835//1 836//1 56//1
f 56//1 836//1 837//1
f 56//313 837//313 838//313
f 827//1 702//1 826//1
f 828//1 829//1 702//1
f 702//1 829//1 830//1
f 702//1 830//1 56//1
f 56//1 830//1 831//1
f 56//1 831//1 832//1
f 56//1 867//1 868//1
f 866//1 867//1 840//1
f 840//1 867//1 56//1
f 840//1 56//1 839//1
f 839//1 56//1 838//1
f 868//1 869//1 56//1
f 56//1 869//1 870//1
f 56//1 870//1 871//1
f 693//1 691//1 852//1
f 914//1 522//1 913//1
f 913//1 522//1 912//1
f 816//313 817//313 701//313
f 701//1 817//1 818//1
f 702//1 822//1 823//1
f 854//1 855//1 701//1
f 701//1 855//1 856//1
f 701//1 856//1 857//1
f 818//1 819//1 701//1
f 701//313 819//313 820//313
f 701//1 820//1 702//1
f 702//314 820//314 821//314
f 702//1 821//1 822//1
f 823//1 824//1 702//1
f 702//1 824//1 825//1
f 702//1 825//1 826//1
f 904//1 905//1 687//1
f 687//1 905//1 906//1
f 687//1 906//1 907//1
f 859//313 860//313 814//313
f 814//1 860//1 861//1
f 814//1 861//1 862//1
f 816//1 701//1 815//1
f 815//1 701//1 857//1
f 815//1 857//1 814//1
f 814//315 857//315 858//315
f 814//1 858//1 859//1
f 912//1 522//1 911//1
f 911//1 522//1 920//1
f 911//1 920//1 910//1
f 910//1 920//1 921//1
f 910//1 921//1 922//1
f 914//1 915//1 522//1
f 522//1 915//1 916//1
f 522//1 916//1 917//1
f 917//1 918//1 522//1
f 522//1 918//1 919//1
f 522//1 919//1 483//1
f 919//1 884//1 483//1
f 483//316 884//316 885//316
f 483//1 885//1 886//1
f 840//313 841//313 866//313
f 866//1 841//1 842//1
f 866//1 842//1 843//1
f 862//1 863//1 814//1
f 814//1 863//1 864//1
f 814//1 864//1 865//1
f 693//1 852//1 695//1
f 685//316 902//316 687//316
f 687//1 902//1 903//1
f 687//1 903//1 904//1
f 843//1 844//1 866//1
f 866//1 844//1 845//1
f 866//1 845//1 846//1
f 854//1 701//1 853//1
f 853//1 701//1 699//1
f 853//1 699//1 852//1
f 852//1 699//1 697//1
f 852//1 697//1 695//1
f 886//1 887//1 483//1
f 483//1 887//1 888//1
f 483//1 888//1 889//1
f 892//1 557//1 891//1
f 891//1 557//1 483//1
f 891//1 483//1 890//1
f 890//1 483//1 889//1
f 892//1 893//1 557//1
f 557//1 893//1 894//1
f 557//1 894//1 895//1
f 874//1 60//1 873//1
f 873//1 60//1 56//1
f 873//1 56//1 872//1
f 872//1 56//1 871//1
f 874//1 875//1 60//1
f 60//1 875//1 876//1
f 60//1 876//1 877//1
f 883//1 923//1 882//1
f 882//1 923//1 924//1
f 882//1 924//1 881//1
f 881//1 924//1 925//1
f 881//1 925//1 880//1
f 880//1 925//1 926//1
f 880//1 926//1 879//1
f 879//1 926//1 60//1
f 879//1 60//1 878//1
f 878//1 60//1 877//1
f 910//1 689//1 909//1
f 909//317 689//317 687//317
f 909//1 687//1 908//1
f 908//1 687//1 907//1
f 883//1 848//1 923//1
f 923//1 848//1 849//1
f 923//1 849//1 850//1
f 922//1 927//1 910//1
f 910//1 927//1 923//1
f 910//1 923//1 689//1
f 689//1 923//1 850//1
f 689//1 850//1 691//1
f 691//1 850//1 851//1
f 691//1 851//1 852//1
f 846//1 847//1 866//1
f 866//1 847//1 812//1
f 866//1 812//1 865//1
f 865//1 812//1 813//1
f 865//1 813//1 814//1
f 895//1 896//1 557//1
f 557//1 896//1 897//1
f 557//1 897//1 898//1
f 898//1 899//1 557//1
f 557//1 899//1 900//1
f 557//1 900//1 685//1
f 685//318 900//318 901//318
f 685//1 901//1 902//1
f 478//319 928//319 460//319
f 460//320 928//320 929//320
f 460//195 929//195 461//195
f 461//321 929//321 477//321
f 477//322 929//322 930//322
f 477//197 930//197 476//197
f 476//320 930//320 931//320
f 476//197 931//197 474//197
f 474//191 931//191 932//191
f 474//191 932//191 472//191
f 472//323 932//323 933//323
f 472//143 933//143 470//143
f 470//143 933//143 934//143
f 470//143 934//143 468//143
f 468//143 934//143 935//143
f 468//143 935//143 466//143
f 466//143 935//143 936//143
f 466//143 936//143 464//143
f 464//143 936//143 937//143
f 464//143 937//143 462//143
f 462//143 937//143 938//143
f 462//143 938//143 524//143
f 522//324 524//324 920//324
f 920//324 524//324 938//324
f 920//325 938//325 921//325
f 921//325 938//325 937//325
f 921//326 937//326 922//326
f 922//326 937//326 936//326
f 922//327 936//327 927//327
f 927//327 936//327 935//327
f 927//328 935//328 923//328
f 923//328 935//328 934//328
f 923//329 934//329 924//329
f 924//329 934//329 933//329
f 924//330 933//330 925//330
f 925//330 933//330 932//330
f 929//331 926//331 930//331
f 930//332 926//332 925//332
f 930//333 925//333 931//333
f 931//334 925//334 932//334
f 61//94 60//94 478//94
f 478//335 60//335 926//335
f 478//336 926//336 928//336
f 928//337 926//337 929//337
