# Blender 5.2.0 LTS
# www.blender.org
mtllib thumb_tip.mtl
o thumb_tip
v 0.002003 -0.031939 -0.002397
v -0.006253 -0.031712 -0.002359
v -0.002390 -0.051890 -0.002347
v 0.006463 -0.031788 -0.004053
v -0.009458 -0.031530 -0.004037
v 0.003139 -0.051480 -0.002514
v 0.008937 -0.031788 -0.007154
v 0.009588 -0.031705 -0.019132
v -0.009449 -0.031623 -0.024969
v -0.007666 -0.053666 -0.002716
v -0.009330 -0.031695 -0.003555
v 0.006785 -0.051631 -0.004345
v -0.008580 -0.056709 -0.003769
v -0.009910 -0.055645 -0.004188
v -0.006177 -0.031712 -0.026643
v 0.001596 -0.057533 -0.004241
v 0.008949 -0.051978 -0.007390
v 0.009588 -0.031705 -0.009867
v -0.011218 -0.057691 -0.006927
v -0.010639 -0.033687 -0.023789
v -0.011239 -0.033747 -0.021374
v -0.011265 -0.033908 -0.007986
v 0.006771 -0.055398 -0.005530
v 0.005649 -0.031712 -0.025414
v 0.002254 -0.031840 -0.026577
v -0.008751 -0.054433 -0.025792
v 0.009483 -0.052878 -0.010105
v 0.009593 -0.051480 -0.019153
v -0.006684 -0.053313 -0.026399
v 0.001890 -0.051633 -0.026619
v 0.004707 -0.059250 -0.007277
v 0.008937 -0.031788 -0.021846
v -0.010837 -0.057680 -0.022978
v -0.008826 -0.060044 -0.006433
v 0.000260 -0.061348 -0.008693
v 0.008981 -0.051631 -0.021733
v 0.007358 -0.051707 -0.024169
v -0.009108 -0.057774 -0.024515
v -0.010723 -0.061161 -0.014998
v 0.008591 -0.056170 -0.009367
v 0.008427 -0.056493 -0.018872
v 0.001349 -0.056939 -0.025198
v -0.009198 -0.061422 -0.009347
v 0.006725 -0.058854 -0.010393
v 0.007040 -0.057137 -0.021588
v 0.002651 -0.061519 -0.011720
v -0.009118 -0.060616 -0.021420
v 0.005102 -0.057377 -0.023649
v -0.008826 -0.062096 -0.014575
v 0.005600 -0.059929 -0.017940
v 0.001732 -0.060238 -0.021844
v 0.000576 -0.061854 -0.018116
vn 0.0046 0.0015 1.0000
vn 0.0162 0.9908 0.1342
vn 0.0278 0.9981 0.0546
vn 0.0305 -0.0042 0.9995
vn 0.0153 0.9999 0.0077
vn 0.0057 1.0000 -0.0044
vn -0.0658 -0.0120 0.9978
vn -0.1316 0.9270 0.3513
vn 0.3476 0.0146 0.9375
vn 0.0162 0.9998 0.0129
vn -0.3622 0.0081 0.9321
vn 0.0546 -0.3563 0.9328
vn 0.4486 -0.0059 0.8937
vn -0.5428 -0.0091 0.8398
vn -0.4238 -0.1797 0.8877
vn 0.7817 -0.0069 0.6236
vn -0.1257 0.9921 -0.0000
vn -0.9631 0.0353 0.2668
vn 0.0513 -0.3402 0.9390
vn -0.7673 0.6413 -0.0032
vn 0.4226 -0.2734 0.8641
vn 0.8155 0.0047 0.5787
vn 0.0154 0.9996 -0.0228
vn -0.9129 0.0163 0.4079
vn 0.9724 -0.0022 0.2332
vn 0.9999 -0.0051 0.0114
vn 1.0000 0.0003 -0.0000
vn 0.0024 0.9932 -0.1164
vn -0.4549 0.0182 -0.8904
vn -0.8006 0.5991 0.0057
vn -0.9055 0.0107 0.4242
vn 0.0219 -0.2795 0.9599
vn 0.3567 -0.3393 0.8704
vn 0.0078 0.0020 -1.0000
vn -0.0236 -0.0107 -0.9997
vn -0.2795 -0.0043 -0.9601
vn 0.7909 -0.1864 0.5829
vn 0.9807 -0.0071 0.1955
vn -0.8017 -0.0030 -0.5977
vn -0.6873 -0.0189 -0.7261
vn 0.0757 0.9959 -0.0484
vn 0.0057 1.0000 -0.0045
vn -0.8941 0.3944 -0.2121
vn -0.6008 -0.4759 0.6423
vn 0.4082 -0.5494 0.7291
vn -0.5880 -0.4779 0.6525
vn -1.0000 -0.0021 -0.0020
vn 0.1699 -0.7729 0.6113
vn 0.3244 -0.0040 -0.9459
vn -0.6561 -0.2073 -0.7256
vn -0.9705 -0.0001 -0.2409
vn 0.9467 -0.1999 0.2528
vn 0.9724 0.0005 -0.2333
vn 0.9730 0.0008 -0.2308
vn -0.0142 -0.6234 0.7817
vn 0.8418 -0.2873 0.4571
vn 0.7354 0.0207 -0.6773
vn 0.4085 -0.0219 -0.9125
vn -0.9996 -0.0152 -0.0237
vn -0.7053 -0.6659 0.2431
vn 0.9735 -0.2277 -0.0233
vn 0.0264 -0.2612 -0.9649
vn -0.0856 -0.3477 -0.9337
vn -0.9959 -0.0869 -0.0236
vn 0.8322 -0.0013 -0.5544
vn -0.9361 -0.2566 0.2408
vn 0.8879 -0.2288 -0.3992
vn 0.0496 -0.7657 0.6412
vn 0.9225 -0.3305 -0.1994
vn 0.9647 -0.2631 -0.0077
vn -0.0306 -0.3747 -0.9267
vn 0.3244 -0.8948 0.3068
vn 0.6912 -0.5711 0.4427
vn 0.6913 -0.6216 0.3684
vn 0.8200 -0.5723 0.0053
vn -0.0226 -0.9026 0.4298
vn -0.5401 -0.6190 -0.5702
vn -0.4550 -0.8867 0.0819
vn 0.7247 -0.6547 -0.2149
vn 0.7992 -0.2956 -0.5233
vn 0.3390 -0.2756 -0.8995
vn 0.0110 -0.7122 -0.7019
vn -0.7751 -0.5831 -0.2433
vn 0.3944 -0.2384 -0.8875
vn 0.4874 -0.8482 0.2076
vn 0.7688 -0.6391 -0.0235
vn 0.7050 -0.3377 -0.6237
vn -0.0008 -0.7366 -0.6764
vn -0.0011 -0.9918 0.1277
vn -0.4028 -0.8980 -0.1770
vn 0.5380 -0.8420 0.0398
vn 0.0301 -0.9963 0.0801
vn 0.2081 -0.6853 -0.6979
vn 0.0404 -0.9984 0.0391
vn 0.4750 -0.7793 -0.4088
vn 0.4833 -0.7973 -0.3616
vn -0.0535 -0.9765 -0.2089
vn 0.3590 -0.9309 -0.0678
vn 0.3522 -0.8937 -0.2780
vn 0.0166 -0.9193 -0.3931
s 0
usemtl white.001
f 1//1 2//1 3//1
f 1//2 4//2 5//2
f 1//3 5//3 2//3
f 1//4 3//4 6//4
f 5//5 7//5 8//5
f 5//6 8//6 9//6
f 2//7 10//7 3//7
f 2//8 5//8 11//8
f 1//9 6//9 4//9
f 5//10 4//10 7//10
f 2//11 11//11 10//11
f 3//12 10//12 6//12
f 6//13 12//13 4//13
f 10//14 11//14 14//14
f 14//15 13//15 10//15
f 4//16 17//16 7//16
f 7//17 18//17 8//17
f 5//18 19//18 11//18
f 10//19 13//19 6//19
f 5//20 9//20 21//20
f 6//21 23//21 12//21
f 4//22 12//22 17//22
f 9//23 25//23 15//23
f 5//24 22//24 19//24
f 18//25 7//25 17//25
f 18//26 27//26 28//26
f 18//27 28//27 8//27
f 9//28 24//28 25//28
f 15//29 26//29 9//29
f 5//30 21//30 22//30
f 14//31 11//31 19//31
f 16//32 6//32 13//32
f 6//33 16//33 23//33
f 15//34 25//34 30//34
f 15//35 30//35 29//35
f 15//36 29//36 26//36
f 12//37 23//37 17//37
f 18//38 17//38 27//38
f 9//39 26//39 33//39
f 9//40 33//40 20//40
f 8//41 32//41 24//41
f 8//42 24//42 9//42
f 9//43 20//43 21//43
f 14//44 19//44 34//44
f 31//45 23//45 16//45
f 14//46 34//46 13//46
f 22//47 21//47 19//47
f 31//48 16//48 35//48
f 24//49 30//49 25//49
f 26//50 38//50 33//50
f 20//51 33//51 21//51
f 17//52 40//52 27//52
f 8//53 28//53 32//53
f 36//54 32//54 28//54
f 16//55 13//55 34//55
f 23//56 40//56 17//56
f 32//57 37//57 24//57
f 24//58 37//58 30//58
f 21//59 33//59 19//59
f 19//60 39//60 34//60
f 27//61 41//61 28//61
f 30//62 42//62 29//62
f 29//63 38//63 26//63
f 19//64 33//64 39//64
f 32//65 36//65 37//65
f 39//66 43//66 34//66
f 28//67 41//67 45//67
f 34//68 35//68 16//68
f 28//69 45//69 36//69
f 40//70 41//70 27//70
f 42//71 38//71 29//71
f 35//72 46//72 31//72
f 23//73 31//73 40//73
f 40//74 31//74 44//74
f 44//75 41//75 40//75
f 34//76 43//76 35//76
f 38//77 47//77 33//77
f 43//78 39//78 49//78
f 45//79 41//79 50//79
f 37//80 36//80 45//80
f 48//81 42//81 30//81
f 38//82 42//82 51//82
f 39//83 33//83 47//83
f 37//84 48//84 30//84
f 46//85 44//85 31//85
f 44//86 50//86 41//86
f 48//87 37//87 45//87
f 51//88 47//88 38//88
f 49//89 35//89 43//89
f 47//90 49//90 39//90
f 44//91 46//91 50//91
f 35//92 49//92 46//92
f 48//93 51//93 42//93
f 46//94 49//94 52//94
f 51//95 45//95 50//95
f 45//96 51//96 48//96
f 47//97 52//97 49//97
f 46//98 52//98 50//98
f 51//99 50//99 52//99
f 51//100 52//100 47//100
