# Blender 5.2.0 LTS
# www.blender.org
mtllib tip.mtl
o tip
v 0.002003 -0.019940 0.026603
v -0.006556 -0.019635 0.026619
v -0.005950 -0.039631 0.026664
v 0.002041 -0.039700 0.026584
v 0.005537 -0.019668 0.025490
v 0.009588 -0.019706 0.019133
v 0.007853 -0.019788 0.005402
v -0.008583 -0.019596 0.003099
v -0.009617 -0.019596 0.025147
v 0.004835 -0.039929 0.025903
v 0.008402 -0.019739 0.022696
v -0.008374 -0.044885 0.025322
v -0.009457 -0.019614 0.004080
v 0.007648 -0.040051 0.023707
v -0.009806 -0.043417 0.025023
v -0.011250 -0.021908 0.021430
v -0.010714 -0.020175 0.014576
v 0.004158 -0.044317 0.024868
v 0.009585 -0.019706 0.009792
v -0.006177 -0.019712 0.002357
v -0.009738 -0.043680 0.003971
v -0.011041 -0.045161 0.022792
v 0.009499 -0.039707 0.019725
v 0.003436 -0.019776 0.002702
v 0.009536 -0.040767 0.014424
v -0.006215 -0.039821 0.002353
v -0.011154 -0.021722 0.007039
v -0.008256 -0.044846 0.003786
v 0.000867 -0.046059 0.024564
v 0.003479 -0.047831 0.022098
v 0.006866 -0.044389 0.022510
v 0.009197 -0.040275 0.008081
v -0.010938 -0.048220 0.019638
v 0.005265 -0.040776 0.003427
v 0.002611 -0.039898 0.002435
v -0.009238 -0.048413 0.021893
v -0.010966 -0.046230 0.006567
v 0.008601 -0.044266 0.018884
v -0.010984 -0.048531 0.010733
v 0.008283 -0.040373 0.006068
v 0.008355 -0.044505 0.009923
v 0.001094 -0.043856 0.003165
v 0.000260 -0.049348 0.020307
v -0.010149 -0.049691 0.015990
v -0.008676 -0.047969 0.006324
v 0.005789 -0.047775 0.014570
v 0.005950 -0.045186 0.006057
v 0.003093 -0.047051 0.005827
v -0.009341 -0.049241 0.008755
v 0.000381 -0.050000 0.013649
v 0.003265 -0.049017 0.009380
v 0.000191 -0.049825 0.010332
vn 0.0020 0.0023 1.0000
vn 0.0101 -0.0009 0.9999
vn 0.0341 0.9407 0.3375
vn -0.0002 1.0000 -0.0060
vn 0.0123 0.9999 -0.0045
vn 0.0047 1.0000 0.0002
vn 0.0044 0.9998 0.0174
vn 0.2375 0.0116 0.9713
vn 0.3004 -0.0003 0.9538
vn 0.0504 0.9984 0.0262
vn -0.0217 0.9998 -0.0010
vn 0.1605 -0.5257 0.8354
vn 0.6983 0.0097 0.7158
vn -0.4334 -0.0013 0.9012
vn 0.0076 -0.2508 0.9680
vn -0.4642 -0.0121 0.8856
vn 0.0459 -0.2362 0.9706
vn 0.6153 -0.0052 0.7883
vn -0.8590 0.5082 0.0613
vn -0.4356 0.9001 -0.0041
vn -0.2364 -0.0329 0.9711
vn -0.0476 0.9989 -0.0000
vn -0.7467 0.0117 -0.6651
vn -0.9188 0.0148 0.3945
vn 0.5852 -0.2708 0.7644
vn 0.9488 0.0051 0.3157
vn 0.0143 0.9997 -0.0187
vn 0.0109 0.9928 -0.1192
vn 0.9072 -0.0128 0.4206
vn 1.0000 -0.0042 0.0078
vn 1.0000 -0.0024 -0.0003
vn -0.8216 0.5659 -0.0682
vn -0.8764 0.0044 0.4816
vn 0.0359 0.0001 -0.9994
vn -0.2947 0.0007 -0.9556
vn 0.8827 -0.2660 0.3874
vn 0.9984 -0.0143 -0.0544
vn -0.1461 -0.0288 -0.9888
vn -0.8711 0.0124 -0.4910
vn -0.9583 0.2859 -0.0027
vn 0.0466 -0.2563 0.9655
vn 0.2650 -0.6279 0.7318
vn 0.6194 -0.3106 0.7210
vn -0.5241 -0.0300 -0.8512
vn -0.9997 -0.0103 -0.0225
vn 0.0094 0.0129 -0.9999
vn -0.5930 -0.4415 0.6734
vn 0.9300 0.0130 -0.3672
vn 0.5215 0.0160 -0.8531
vn -0.9044 0.0013 -0.4267
vn -0.5696 -0.4968 0.6547
vn 0.5222 -0.5878 0.6179
vn 0.9784 -0.2013 0.0471
vn 0.3496 -0.0019 -0.9369
vn -1.0000 -0.0073 -0.0068
vn 0.8770 -0.2485 0.4112
vn 0.9104 0.0056 -0.4137
vn 0.0064 -0.2767 -0.9609
vn -0.0290 -0.6930 0.7203
vn -0.9999 -0.0075 -0.0085
vn 0.9722 -0.2236 -0.0692
vn 0.6593 -0.0105 -0.7518
vn -0.0482 -0.1635 -0.9854
vn -0.9999 -0.0122 0.0056
vn 0.0268 -0.7982 0.6018
vn 0.8638 -0.3356 -0.3759
vn 0.2575 -0.2700 -0.9278
vn -0.7015 -0.5229 0.4842
vn -0.8566 -0.5155 0.0224
vn 0.0260 -0.7853 0.6186
vn 0.9597 -0.2803 -0.0189
vn -0.4348 -0.8639 0.2541
vn 0.8105 -0.3919 -0.4353
vn -0.4892 -0.5095 -0.7079
vn -0.4650 -0.5115 -0.7226
vn -0.0592 -0.9737 0.2199
vn 0.6634 -0.6880 0.2941
vn 0.6385 -0.7457 0.1904
vn 0.3709 -0.4325 -0.8218
vn 0.3613 -0.4530 -0.8150
vn 0.0158 -0.6341 -0.7731
vn -0.6937 -0.6292 -0.3505
vn -0.5024 -0.8577 -0.1094
vn 0.3797 -0.9200 0.0970
vn 0.7833 -0.6216 -0.0049
vn 0.5841 -0.7796 -0.2261
vn 0.7190 -0.6686 -0.1898
vn 0.6488 -0.3129 -0.6936
vn -0.5568 -0.6637 -0.4996
vn -0.0076 -0.9952 0.0974
vn 0.2958 -0.9516 0.0838
vn 0.4223 -0.9032 0.0771
vn -0.0442 -0.9968 -0.0669
vn 0.5168 -0.7383 -0.4334
vn 0.0165 -0.6319 -0.7749
vn -0.0529 -0.9974 -0.0498
vn 0.0476 -0.8731 -0.4853
vn 0.2349 -0.9699 -0.0648
vn 0.0215 -0.8882 -0.4590
vn 0.0602 -0.8483 -0.5260
s 0
usemtl white
f 1//1 2//1 3//1
f 1//2 3//2 4//2
f 1//3 5//3 2//3
f 5//4 6//4 7//4
f 5//5 7//5 8//5
f 5//6 8//6 9//6
f 5//7 9//7 2//7
f 4//8 10//8 5//8
f 4//9 5//9 1//9
f 5//10 11//10 6//10
f 9//11 8//11 13//11
f 4//12 12//12 10//12
f 5//13 14//13 11//13
f 9//14 15//14 2//14
f 3//15 12//15 4//15
f 12//16 3//16 2//16
f 10//17 12//17 18//17
f 5//18 10//18 14//18
f 9//19 17//19 16//19
f 13//20 17//20 9//20
f 2//21 15//21 12//21
f 7//22 6//22 19//22
f 8//23 21//23 13//23
f 16//24 22//24 9//24
f 10//25 18//25 14//25
f 6//26 11//26 23//26
f 8//27 7//27 24//27
f 8//28 24//28 20//28
f 11//29 14//29 23//29
f 6//30 23//30 25//30
f 6//31 25//31 19//31
f 13//32 27//32 17//32
f 15//33 9//33 22//33
f 20//34 24//34 26//34
f 20//35 26//35 8//35
f 14//36 31//36 23//36
f 19//37 25//37 32//37
f 8//38 28//38 21//38
f 13//39 21//39 27//39
f 16//40 17//40 27//40
f 18//41 12//41 29//41
f 30//42 18//42 29//42
f 14//43 18//43 31//43
f 8//44 26//44 28//44
f 22//45 16//45 33//45
f 24//46 35//46 26//46
f 15//47 22//47 12//47
f 7//48 19//48 32//48
f 24//49 7//49 34//49
f 27//50 21//50 37//50
f 12//51 22//51 36//51
f 30//52 31//52 18//52
f 23//53 38//53 25//53
f 24//54 34//54 35//54
f 27//55 39//55 16//55
f 31//56 38//56 23//56
f 7//57 32//57 40//57
f 26//58 35//58 28//58
f 36//59 29//59 12//59
f 27//60 37//60 39//60
f 25//61 41//61 32//61
f 7//62 40//62 34//62
f 35//63 42//63 28//63
f 16//64 39//64 33//64
f 29//65 36//65 30//65
f 32//66 41//66 40//66
f 34//67 42//67 35//67
f 22//68 33//68 36//68
f 33//69 39//69 44//69
f 30//70 36//70 43//70
f 25//71 38//71 41//71
f 36//72 33//72 44//72
f 41//73 47//73 40//73
f 21//74 28//74 45//74
f 21//75 45//75 37//75
f 36//76 44//76 43//76
f 31//77 30//77 38//77
f 38//78 30//78 46//78
f 42//79 34//79 47//79
f 42//80 47//80 48//80
f 42//81 48//81 28//81
f 39//82 37//82 49//82
f 39//83 49//83 44//83
f 30//84 43//84 50//84
f 38//85 46//85 41//85
f 41//86 46//86 47//86
f 47//87 46//87 51//87
f 40//88 47//88 34//88
f 37//89 45//89 49//89
f 44//90 50//90 43//90
f 30//91 51//91 46//91
f 30//92 50//92 51//92
f 50//93 44//93 49//93
f 47//94 51//94 48//94
f 48//95 45//95 28//95
f 49//96 52//96 50//96
f 48//97 51//97 45//97
f 52//98 51//98 50//98
f 45//99 52//99 49//99
f 45//100 51//100 52//100
