# https://github.com/mikedh/trimesh
v -0.05362462 -0.01181076 -0.03909659
v -0.05222111 -0.01830947 -0.03052869
v -0.04670813 -0.01947096 -0.04186803
v -0.04906064 -0.01152335 -0.04541852
v -0.05304993 -0.00325528 -0.04299414
v -0.04494570 -0.00315863 -0.04904193
v -0.05763095 -0.00348039 -0.03519125
v -0.05004554 0.00820396 -0.04431236
v -0.05751041 -0.01003631 -0.03162605
v -0.05885550 -0.01029837 -0.02370994
v -0.05723691 -0.01269615 -0.01549631
v -0.05066441 -0.02045673 -0.02131070
v -0.06037466 -0.00354354 -0.02539527
v -0.06102108 -0.00434755 -0.01465682
v -0.06115212 0.00310594 -0.01771679
v -0.06042614 0.00273659 -0.00547124
v -0.05988424 -0.00513850 -0.00434358
v -0.05887887 -0.00032190 0.00276267
v -0.05686631 -0.01085886 -0.00506635
v -0.05129304 -0.01690892 -0.01134482
v -0.04730345 -0.01544250 -0.00536699
v -0.05321379 -0.01196485 -0.00149240
v -0.04857750 -0.01133148 0.00116715
v -0.05642748 -0.00587880 0.00347717
v -0.04073058 -0.02701147 -0.03755906
v -0.03604294 -0.02501330 -0.04517045
v -0.04140958 -0.01558215 -0.04827408
v -0.02962834 -0.03299495 -0.03417360
v -0.02938169 -0.03087573 -0.04167195
v -0.02858691 -0.01982021 -0.05057748
v -0.04332983 0.00647985 -0.04978329
v -0.03337594 0.00558925 -0.05223897
v -0.03399685 -0.00785107 -0.05203350
v -0.01823871 -0.00830633 -0.05329997
v -0.02657896 -0.00040962 -0.05355872
v -0.02083046 -0.02857483 -0.04728404
v -0.01441185 -0.03405143 -0.04023185
v -0.02023337 -0.02455738 -0.05092214
v -0.01670463 -0.01947834 -0.05236100
v -0.00887499 -0.02468862 -0.05062215
v -0.01446916 0.00861132 -0.05353292
v -0.04218690 -0.02730067 -0.02802046
v -0.04323079 -0.02362422 -0.01847163
v -0.03457647 -0.02919927 -0.02183765
v -0.03102199 -0.02360964 -0.01352047
v -0.03332990 -0.03238706 -0.02760964
v -0.02664851 -0.03331368 -0.02379180
v -0.04164771 -0.01957652 -0.01095064
v -0.03216024 -0.01703268 -0.00750891
v -0.04013032 -0.01600918 -0.00616281
v -0.04255870 -0.01259311 -0.00190693
v -0.03831302 -0.00843230 -0.00016639
v -0.03400262 -0.01095629 -0.00322608
v -0.02570530 -0.01056361 -0.00313632
v -0.03898956 -0.00422810 0.00229477
v -0.03309487 -0.00240842 -0.00047412
v -0.03820500 0.00257613 0.00255921
v -0.02456069 -0.03505117 -0.02838152
v -0.01404743 -0.03611406 -0.03152630
v -0.02125754 -0.03029597 -0.01723957
v -0.00325558 -0.03614687 -0.03499173
v -0.01365919 -0.03504237 -0.02315252
v -0.00956545 -0.03254735 -0.01634011
v -0.01685973 -0.02402657 -0.00980739
v -0.02128847 -0.01681034 -0.00551513
v -0.01095665 -0.02869556 -0.01208545
v -0.01017266 -0.01968522 -0.00436474
v -0.02679251 -0.00349383 -0.00149805
v -0.02256791 -0.00377058 -0.00006579
v -0.02037879 -0.00847415 0.00042333
v -0.01498364 -0.01433083 -0.00023290
v -0.05227029 -0.00825514 0.00482314
v -0.05085183 -0.00283248 0.00812054
v -0.05555624 -0.00000995 0.00736137
v -0.04804787 -0.00726528 0.00573976
v -0.04565237 0.00256480 0.00742187
v -0.04354219 -0.00839472 0.00267674
v -0.04402710 -0.00307147 0.00587691
v -0.01959269 -0.01714955 0.02084522
v -0.01393104 -0.01865447 0.01149432
v -0.01469905 -0.02092326 0.02543773
v -0.01136034 -0.02190400 0.01817225
v -0.02346058 -0.00509372 0.01046991
v -0.02746663 -0.00037078 0.01858247
v -0.02577947 -0.00879057 0.02081622
v -0.02010211 -0.01298320 0.01175043
v -0.02434760 0.00348414 0.01126775
v -0.01897806 -0.01005569 0.00474143
v -0.01404870 -0.01535581 0.00489885
v -0.02152757 -0.00054225 0.00427530
v -0.02090779 -0.00572162 0.00455554
v -0.02360135 -0.01243413 0.03042069
v -0.02749941 -0.00628881 0.02946766
v -0.01905869 -0.01793613 0.02922888
v -0.01892185 -0.01606164 0.03461157
v -0.02876394 -0.00235597 0.02554851
v -0.02380563 -0.00498666 0.03702679
v -0.02773007 -0.00001506 0.03237972
v -0.01143862 -0.01953354 0.03370825
v -0.01974805 -0.01175812 0.03832388
v -0.02384472 0.00262301 0.03823776
v -0.01471899 -0.01573954 0.03877862
v -0.01281310 -0.01166566 0.04273727
v -0.01771908 -0.00669712 0.04229659
v -0.01037435 -0.00537376 0.04588714
v -0.01625174 0.00168806 0.04359177
v -0.05620739 0.00380062 -0.03803153
v -0.05175432 0.01494495 -0.03957167
v -0.05553458 0.01091682 -0.03499155
v -0.04627307 0.01854104 -0.04253240
v -0.05102675 0.01916292 -0.03298060
v -0.05931675 0.00407896 -0.02897688
v -0.05788235 0.01133611 -0.02339786
v -0.04924776 0.02220104 -0.02709783
v -0.05280997 0.01829920 -0.02268382
v -0.05624473 0.01369739 -0.01461892
v -0.05063220 0.01827427 -0.01566613
v -0.05988790 0.00821880 -0.01252777
v -0.05697299 0.00997639 -0.00563727
v -0.05115802 0.01214280 -0.00180704
v -0.05170292 0.01522648 -0.00884108
v -0.04741328 0.01570858 -0.00595199
v -0.04878955 0.00875468 0.00434400
v -0.03848492 0.01574336 -0.04874878
v -0.03812410 0.02396938 -0.04470586
v -0.02683438 0.02656385 -0.04725542
v -0.04216523 0.02572080 -0.03824190
v -0.03310888 0.02986467 -0.04083589
v -0.02224644 0.01883521 -0.05170235
v 0.00361620 0.01442742 -0.05262944
v -0.01511616 0.03154012 -0.04555283
v -0.02271284 0.03283187 -0.04125227
v -0.02792257 0.03375305 -0.03580570
v -0.01165388 0.02723292 -0.04963061
v -0.00754147 0.02079139 -0.05238229
v -0.00987041 0.03480875 -0.03946537
v -0.04356399 0.01894825 -0.01100672
v -0.04263199 0.01387370 -0.00286163
v -0.04250733 0.00800735 0.00343815
v -0.03389904 0.00996652 -0.00169619
v -0.03255734 0.00440917 -0.00055183
v -0.02782746 0.00474135 -0.00149701
v -0.03309241 0.01740852 -0.00740926
v -0.02368251 0.01275096 -0.00339901
v -0.02162695 0.02110498 -0.00865628
v -0.04401912 0.02621262 -0.03019317
v -0.04404311 0.02381845 -0.02095201
v -0.03604127 0.03039418 -0.02610305
v -0.03400149 0.02372913 -0.01430097
v -0.03370909 0.02873290 -0.02010476
v -0.03586605 0.03103186 -0.03360883
v -0.02512798 0.03296332 -0.02231906
v -0.02352879 0.02861666 -0.01581094
v -0.02167710 0.00458625 0.00034160
v -0.01512973 0.01326710 0.00081397
v -0.01554281 0.01675390 -0.00329553
v -0.01101212 0.02060678 -0.00497789
v -0.02675995 0.03439279 -0.02915542
v -0.01785126 0.03571196 -0.03353213
v -0.01425863 0.03577410 -0.02524319
v -0.01229986 0.03293755 -0.01783536
v -0.00979333 0.02673732 -0.01037125
v -0.05572313 0.00568182 0.00331873
v -0.05118982 0.00349227 0.00840460
v -0.04719946 0.00611148 0.00740723
v -0.02286575 0.01059476 0.01318229
v -0.01935731 0.00882760 0.00574471
v -0.01824247 0.01411418 0.00963559
v -0.01928954 0.01656036 0.01605963
v -0.01249805 0.01630499 0.00652709
v -0.01475733 0.01833591 0.01197344
v -0.02652764 0.00671033 0.01823265
v -0.02762708 0.00582619 0.02696811
v -0.02585086 0.00599064 0.03474467
v -0.02509117 0.01170464 0.02915615
v -0.02455023 0.01030749 0.03323845
v -0.02386846 0.01290046 0.02257013
v -0.01815876 0.01853079 0.02395939
v -0.01969115 0.01520803 0.03193630
v -0.01116249 0.02068362 0.03040830
v -0.01220436 0.02133693 0.01944277
v -0.01949767 0.00940460 0.03909900
v -0.01182837 0.00888391 0.04418235
v -0.01013389 0.01523360 0.03949230
v -0.00311166 -0.03020628 -0.04617286
v 0.00030053 -0.03418468 -0.04059275
v -0.00186087 -0.01478722 -0.05254747
v 0.01035123 -0.03008193 -0.04271382
v 0.00920628 -0.02183206 -0.04889572
v 0.00151979 -0.00049080 -0.05333074
v 0.00819710 -0.03437280 -0.03526342
v 0.01882299 -0.02989115 -0.03561064
v 0.02052053 -0.02324483 -0.04336630
v 0.02236306 -0.01357618 -0.04754515
v 0.02595238 -0.02340009 -0.03689913
v 0.01375530 -0.00831135 -0.05143163
v 0.01529201 0.00606164 -0.05155148
v 0.02397712 -0.00182450 -0.04879993
v 0.00258304 -0.03546298 -0.02633309
v 0.00002694 -0.03373110 -0.01811482
v 0.00802356 -0.03354637 -0.01927532
v -0.00119940 -0.02971341 -0.01198638
v -0.00506521 -0.02486471 -0.00779512
v 0.00486754 -0.02566056 -0.00820286
v 0.00256218 -0.02094079 -0.00353146
v 0.01336602 -0.02164807 -0.00676615
v -0.00609796 -0.01827174 0.00064709
v 0.00547482 -0.01891755 0.00316610
v 0.01430910 -0.03326304 -0.02891448
v 0.01500516 -0.03123062 -0.02026100
v 0.02440318 -0.02717787 -0.03073533
v 0.02092905 -0.02968812 -0.02602719
v 0.02190416 -0.02635111 -0.01832571
v 0.02604120 -0.02354688 -0.02271576
v 0.02793338 -0.02291826 -0.03040803
v 0.00980612 -0.02922661 -0.01332193
v 0.01856173 -0.01552755 -0.00439213
v 0.01867921 -0.02460962 -0.01261563
v 0.02429970 -0.01973947 -0.01348857
v 0.02060248 -0.01836100 -0.00810245
v 0.01318356 -0.01615303 -0.00082215
v 0.01760476 -0.01035473 0.00206695
v 0.02034811 -0.01042670 -0.00248686
v 0.02399303 -0.01303109 -0.00807162
v 0.02713019 -0.00509280 -0.00931088
v 0.02142974 -0.00525838 0.00000577
v 0.02328898 0.00350219 -0.00168704
v 0.02806985 -0.01538223 -0.04181981
v 0.02883042 -0.00709258 -0.04495736
v 0.03219998 -0.00480896 -0.03874859
v 0.03103163 -0.01583338 -0.03366248
v 0.02948371 0.00151428 -0.04459998
v 0.02998825 -0.01861793 -0.02583346
v 0.02885793 -0.01439786 -0.01708761
v 0.03398760 -0.00767127 -0.03129555
v 0.03264715 -0.01217848 -0.02553001
v 0.03210576 -0.00768571 -0.01906058
v 0.03425797 -0.00535536 -0.02528756
v 0.03394624 0.00232770 -0.03015814
v 0.03274906 -0.00022747 -0.01961413
v 0.02950859 0.00383234 -0.01243791
v -0.00618987 -0.02159162 0.01060278
v -0.00343694 -0.02344271 0.01702212
v -0.00870235 -0.01894832 0.00554518
v 0.00338047 -0.02175873 0.01130490
v -0.00252646 -0.02015552 0.00497175
v 0.00351555 -0.02301350 0.02227706
v -0.00672916 -0.02282934 0.02511513
v -0.00039163 -0.02075937 0.03288295
v 0.00724066 -0.02127895 0.02953367
v 0.01405417 -0.01804994 0.01070935
v 0.01245179 -0.02087314 0.01810854
v 0.01146808 -0.02133083 0.02479923
v 0.01337115 -0.01870732 0.03061083
v 0.01464970 -0.01409666 0.00487733
v 0.02125424 -0.00433753 0.00652306
v 0.02221344 -0.01494716 0.01417715
v 0.02035912 -0.01212487 0.00998246
v 0.02685574 -0.01044763 0.01500467
v 0.02545794 -0.00651125 0.01168305
v 0.02769075 -0.00024217 0.01279172
v 0.02489387 0.00383614 0.01097101
v 0.01462689 -0.01501312 0.03494099
v 0.01899711 -0.01536385 0.03111848
v 0.02142855 -0.01694050 0.01849029
v 0.01942438 -0.01770886 0.02527380
v 0.02060690 -0.00951200 0.03494488
v 0.01137638 -0.01168208 0.03952581
v 0.02424815 -0.01340701 0.02953467
v 0.02114439 -0.00038436 0.03675467
v 0.02715165 -0.00364006 0.03405770
v 0.02659076 0.00382527 0.03428662
v -0.00761127 -0.01598435 0.04085340
v -0.00432908 -0.01863087 0.03811245
v -0.00392351 -0.01049428 0.04506108
v -0.00671809 0.00117265 0.04755406
v -0.00227741 -0.00445655 0.04772143
v 0.00165667 -0.01525365 0.04069889
v 0.00806000 -0.01768603 0.03564597
v 0.00201395 0.00080625 0.04780860
v 0.00544105 -0.00673822 0.04524722
v 0.01441805 -0.00321546 0.04113708
v 0.01630135 0.00433104 0.03925874
v 0.01209611 0.00423268 0.04287889
v 0.00882079 0.00028068 0.04578586
v 0.03143490 -0.00425657 0.01692860
v 0.02713975 -0.01322527 0.01869094
v 0.02792398 -0.01238421 0.02517621
v 0.03139397 -0.00847482 0.02148737
v 0.03462147 -0.00278918 0.02317690
v 0.03292846 0.00209460 0.01800433
v 0.03525499 -0.00001586 0.02711417
v 0.03480630 0.00307477 0.02367815
v 0.02790565 -0.00905596 0.03116135
v 0.03033898 -0.00031393 0.03369487
v 0.03253934 -0.00365989 0.02958772
v 0.03471575 -0.00081570 0.02003482
v 0.03375821 0.00370261 0.02916665
v 0.00282779 0.02479299 -0.04999267
v 0.00035652 0.03168383 -0.04427700
v 0.00150744 0.03518007 -0.03749034
v 0.00742525 0.03390562 -0.03890972
v 0.01490508 0.01785772 -0.04976185
v 0.02417154 0.00950494 -0.04756660
v 0.02255953 0.01834800 -0.04550511
v 0.01376742 0.02578855 -0.04578385
v 0.01401829 0.03058072 -0.03988870
v 0.02387291 0.02314245 -0.04012057
v 0.02701930 0.02381617 -0.03499337
v 0.02183444 0.02834989 -0.03428081
v -0.00705324 0.01817151 0.00064864
v -0.00915934 0.01692986 0.00326814
v -0.00043534 0.02168813 -0.00316948
v 0.00825761 0.02210830 -0.00503572
v 0.00901429 0.01905214 -0.00043146
v -0.00246000 0.03605190 -0.03046969
v -0.00038922 0.03451608 -0.02077981
v 0.01126205 0.03327000 -0.02438895
v 0.00370660 0.02649651 -0.00900880
v -0.00091879 0.03107155 -0.01401506
v 0.01510572 0.01527147 0.00061127
v 0.01514369 0.01905331 -0.00498741
v 0.02753577 0.01051514 -0.01130800
v 0.02125048 0.01319061 -0.00472486
v 0.02057678 0.02126989 -0.01178097
v 0.01142176 0.03377963 -0.03317951
v 0.02003524 0.03014672 -0.02807954
v 0.02120114 0.02685907 -0.02084672
v 0.01113451 0.02934612 -0.01524141
v 0.01271552 0.02425611 -0.00901044
v 0.03002033 0.01072932 -0.03995193
v 0.02967391 0.01890216 -0.03562086
v 0.03227002 0.01309236 -0.03155322
v 0.03177321 0.01007012 -0.02165783
v 0.02793314 0.02184687 -0.02829246
v 0.02740080 0.01800423 -0.01761132
v 0.02547395 0.01561206 -0.01118889
v -0.00406019 0.02021551 0.00787221
v -0.00917100 0.02078822 0.01221122
v 0.00473401 0.01998089 0.00603534
v -0.00228215 0.02316121 0.01703476
v 0.00245974 0.02224223 0.01187979
v -0.00542616 0.02341855 0.02538023
v -0.00568589 0.01986545 0.03638636
v -0.00193406 0.02197075 0.03222477
v 0.00287402 0.02340296 0.02520276
v 0.00793442 0.02204484 0.01717631
v 0.00093987 0.01613165 0.03955913
v 0.00720649 0.01991706 0.03228101
v 0.01174467 0.01731150 0.00462618
v 0.01587995 0.01452067 0.00600526
v 0.01586028 0.01738547 0.01259944
v 0.02174175 0.00585951 0.00728964
v 0.01902420 0.01046626 0.00329146
v 0.02000875 0.01217641 0.00973070
v 0.02505205 0.00944305 0.01309663
v 0.01736920 0.01888825 0.02231666
v 0.02339203 0.01377264 0.01515347
v 0.01085260 0.02140386 0.02558222
v 0.01695785 0.01609741 0.03063720
v 0.01181364 0.01183775 0.03841120
v 0.01975581 0.00811539 0.03548636
v 0.02383246 0.01085399 0.03205731
v 0.02427309 0.01533958 0.02054686
v 0.02452991 0.01437293 0.02720645
v -0.00968322 0.00564755 0.04646962
v -0.00366363 0.00834666 0.04583566
v 0.00602150 0.00727180 0.04488195
v 0.02943551 0.00630181 0.01567259
v 0.03257972 0.00737228 0.02069638
v 0.02865421 0.01128485 0.01874780
v 0.02941004 0.00834863 0.03081303
v 0.03165723 0.00258108 0.03260583
v 0.03084913 0.01009520 0.02507092
vn -0.81057684 -0.38329637 -0.44277429
vn -0.74305309 -0.64904622 -0.16312910
vn -0.63175178 -0.58969739 -0.50313683
vn -0.62274974 -0.28197933 -0.72984273
vn -0.74716603 -0.04324015 -0.66322938
vn -0.44769616 -0.04200030 -0.89319881
vn -0.91785020 -0.08951611 -0.38670127
vn -0.66427650 0.21749117 -0.71514636
vn -0.89071488 -0.36902861 -0.26541455
vn -0.89707189 -0.43535364 -0.07569166
vn -0.80053315 -0.59229274 0.09130160
vn -0.63133816 -0.76715048 0.11354412
vn -0.98096213 -0.10082070 -0.16597739
vn -0.97848208 -0.20399979 0.03093374
vn -0.98958049 0.13496047 -0.05016107
vn -0.96075820 0.19383508 0.19842290
vn -0.93684948 -0.28924802 0.19659256
vn -0.90370515 0.03940309 0.42633836
vn -0.72712569 -0.63736653 0.25505320
vn -0.47049647 -0.82660050 0.30881173
vn -0.12653942 -0.86050015 0.49348483
vn -0.40982797 -0.79832491 0.44126904
vn 0.01405788 -0.80654443 0.59100631
vn -0.68152261 -0.47286366 0.55850415
vn -0.53437434 -0.79488189 -0.28741407
vn -0.38521023 -0.62656033 -0.67752139
vn -0.39414226 -0.34364592 -0.85238451
vn -0.30454987 -0.93258096 -0.19375792
vn -0.27966257 -0.84301529 -0.45947150
vn -0.21289861 -0.33149679 -0.91912135
vn -0.42879534 0.15010955 -0.89084324
vn -0.19090396 0.10042820 -0.97645781
vn -0.20779244 -0.11604531 -0.97126504
vn -0.03326346 -0.07615209 -0.99654122
vn -0.08961415 -0.00195515 -0.99597464
vn -0.14348033 -0.71579715 -0.68340898
vn -0.08767282 -0.90853293 -0.40851119
vn -0.14629820 -0.47219303 -0.86927014
vn -0.03786742 -0.17465373 -0.98390149
vn 0.05964550 -0.44634985 -0.89286854
vn -0.02292115 0.06265407 -0.99777206
vn -0.54047781 -0.83958834 0.05454502
vn -0.36006717 -0.84352387 0.39852117
vn -0.35174805 -0.80802832 0.47261352
vn -0.19556395 -0.71892267 0.66701195
vn -0.41597333 -0.90314403 0.10628760
vn -0.23461049 -0.88107798 0.41068176
vn -0.14746460 -0.82179917 0.55036380
vn -0.05090045 -0.63360974 0.77197658
vn 0.06018961 -0.74670153 0.66243040
vn 0.18179060 -0.72449971 0.66487018
vn 0.37864214 -0.47155585 0.79640769
vn 0.15233357 -0.48476859 0.86127458
vn -0.19553055 -0.39344863 0.89831285
vn 0.48882767 -0.27377308 0.82830901
vn 0.31260477 -0.16459330 0.93551446
vn 0.49507880 0.08113893 0.86505113
vn -0.18399163 -0.98162620 0.05056767
vn -0.07302930 -0.99597704 -0.05192750
vn -0.21003598 -0.77273729 0.59896741
vn 0.03894897 -0.98904792 -0.14236289
vn -0.08491386 -0.95328171 0.28990277
vn -0.10658478 -0.84820686 0.51883023
vn -0.21631348 -0.63300301 0.74331398
vn -0.24775882 -0.57964443 0.77629112
vn -0.16239491 -0.69251168 0.70289079
vn -0.22840827 -0.72706580 0.64746041
vn -0.11260162 -0.14749686 0.98263195
vn -0.64898703 -0.17356665 0.74073643
vn -0.72737789 -0.44828406 0.51957946
vn -0.50871674 -0.77633499 0.37217101
vn -0.29536402 -0.64233052 0.70722811
vn -0.05852185 -0.28473441 0.95681843
vn -0.58475090 0.00400313 0.81120303
vn 0.18476572 -0.55752351 0.80933872
vn 0.39807421 0.04810819 0.91609089
vn 0.35307242 -0.57933323 0.73465153
vn 0.43917921 -0.24787474 0.86352750
vn -0.68544183 -0.71484866 -0.13842287
vn -0.52408325 -0.79838844 -0.29650066
vn -0.40074223 -0.91292074 0.07733944
vn -0.35725438 -0.92486488 -0.13036207
vn -0.90327066 -0.24826405 -0.34995297
vn -0.96280937 -0.04538822 -0.26634193
vn -0.87725576 -0.44400755 -0.18242704
vn -0.75757384 -0.57368012 -0.31140488
vn -0.89624016 0.14122031 -0.42048829
vn -0.81399298 -0.55953974 -0.15598304
vn -0.58278832 -0.77476652 -0.24514202
vn -0.99589844 0.02120215 -0.08795890
vn -0.95161899 -0.25184873 -0.17604976
vn -0.81015737 -0.54859022 0.20662480
vn -0.90798431 -0.36356286 0.20829437
vn -0.59682276 -0.78708683 0.15587466
vn -0.57495346 -0.71077110 0.40525666
vn -0.99411019 -0.09858940 -0.04500070
vn -0.76001551 -0.23163547 0.60722436
vn -0.93552194 -0.01374527 0.35300108
vn -0.22645430 -0.90119296 0.36955338
vn -0.65098822 -0.45191085 0.60991059
vn -0.69414842 0.07616394 0.71579119
vn -0.35745767 -0.70514239 0.61237098
vn -0.31622938 -0.46296894 0.82804513
vn -0.54653083 -0.19924721 0.81339081
vn -0.29955065 -0.20647820 0.93146989
vn -0.51098187 0.07094402 0.85665890
vn -0.86186941 0.14561836 -0.48577404
vn -0.75383273 0.43939701 -0.48853504
vn -0.87041198 0.36036075 -0.33544464
vn -0.60025776 0.50538396 -0.61990135
vn -0.74872622 0.62516319 -0.22040879
vn -0.95823328 0.17103872 -0.22920457
vn -0.88484506 0.45479305 -0.10105693
vn -0.65337638 0.75595145 0.04045633
vn -0.70645795 0.70513127 0.06088564
vn -0.72468695 0.67517917 0.13770224
vn -0.48859508 0.82699856 0.27811550
vn -0.90932420 0.40619671 0.09018720
vn -0.72189143 0.61413446 0.31892259
vn -0.35275546 0.80083708 0.48396648
vn -0.46425392 0.82301928 0.32727291
vn -0.19577687 0.85929191 0.47253448
vn -0.14158110 0.76726931 0.62550188
vn -0.35261502 0.32958239 -0.87580711
vn -0.42640975 0.58076305 -0.69346161
vn -0.23510664 0.57701810 -0.78216046
vn -0.57943929 0.73357314 -0.35513456
vn -0.36129058 0.80058852 -0.47804511
vn -0.14277041 0.26959251 -0.95233213
vn 0.11338173 0.14025789 -0.98360170
vn -0.08222267 0.78082872 -0.61931086
vn -0.18220798 0.86966426 -0.45878570
vn -0.26256169 0.94103030 -0.21336196
vn -0.03247797 0.54160647 -0.84000453
vn 0.01131429 0.25546762 -0.96675141
vn -0.00843029 0.94474008 -0.32771194
vn -0.21679582 0.85092733 0.47845820
vn 0.04834445 0.77816321 0.62619871
vn 0.36079218 0.53221314 0.76588391
vn 0.19781692 0.45160031 0.87001473
vn 0.30599881 0.13434323 0.94250550
vn -0.02188971 0.13022960 0.99124220
vn -0.06004287 0.68445801 0.72657559
vn -0.20232559 0.46780083 0.86036431
vn -0.19488270 0.62685447 0.75437007
vn -0.58354433 0.81200905 -0.01083123
vn -0.45224296 0.82575756 0.33704711
vn -0.42184319 0.87848355 0.22431001
vn -0.23870786 0.74088781 0.62777688
vn -0.33715449 0.79469486 0.50476423
vn -0.44408640 0.88834245 -0.11676881
vn -0.23084904 0.88248321 0.40979520
vn -0.20822636 0.72593552 0.65548410
vn -0.70337878 0.26169935 0.66088709
vn -0.59119757 0.73013859 0.34261214
vn -0.32652044 0.65149724 0.68478883
vn -0.25176277 0.70385021 0.66423670
vn -0.25091583 0.96294283 0.09890581
vn -0.09313917 0.98865589 -0.11783308
vn -0.07270001 0.97693384 0.20078590
vn -0.10484327 0.84742056 0.52046737
vn -0.14468589 0.71142369 0.68770802
vn -0.64765417 0.56076922 0.51583132
vn -0.19594737 0.31741719 0.92782054
vn 0.17071695 0.49270802 0.85328455
vn -0.81124266 0.45901233 -0.36220578
vn -0.82566952 0.48489996 -0.28834332
vn -0.63460645 0.60928947 -0.47543770
vn -0.65029960 0.72584568 -0.22418404
vn -0.47887826 0.80266090 -0.35554337
vn -0.47519083 0.80827357 -0.34768883
vn -0.92746614 0.29750732 -0.22648611
vn -0.96236621 0.26969660 0.03339190
vn -0.83853490 0.27852366 0.46827746
vn -0.79315445 0.59584288 0.12600506
vn -0.74273599 0.52037375 0.42137205
vn -0.79272526 0.60562072 -0.06935560
vn -0.56497726 0.82299972 0.05892508
vn -0.53932689 0.75625020 0.37042158
vn -0.36149122 0.88121006 0.30461931
vn -0.36305916 0.92768924 -0.08706733
vn -0.53522969 0.47795294 0.69648415
vn -0.34905921 0.47225618 0.80940210
vn -0.28003660 0.68303960 0.67456386
vn 0.08425770 -0.68656759 -0.72216728
vn 0.11415161 -0.88087095 -0.45938630
vn 0.08882201 -0.16696498 -0.98195384
vn 0.30593875 -0.72593298 -0.61597304
vn 0.23307331 -0.40885622 -0.88233408
vn 0.07153090 -0.01771008 -0.99728115
vn 0.25188765 -0.94236303 -0.22023742
vn 0.48542665 -0.81429968 -0.31824048
vn 0.48582898 -0.56377223 -0.66793044
vn 0.44679741 -0.29984793 -0.84288985
vn 0.71709749 -0.58837820 -0.37360712
vn 0.21681618 -0.13545552 -0.96676913
vn 0.24813886 0.06451763 -0.96657363
vn 0.45054638 -0.02858499 -0.89229527
vn 0.11200703 -0.98808481 0.10555962
vn 0.04028892 -0.91487016 0.40173300
vn 0.22432608 -0.92350986 0.31113880
vn 0.01073801 -0.76133375 0.64827125
vn -0.09805169 -0.65727206 0.74724782
vn 0.10562017 -0.70260574 0.70369706
vn 0.04318280 -0.83252917 0.55229560
vn 0.30035633 -0.67336714 0.67554628
vn -0.24186677 -0.96729643 0.07640729
vn 0.24774528 -0.96568021 -0.07800004
vn 0.34613642 -0.93809364 0.01303492
vn 0.37511398 -0.86785585 0.32575410
vn 0.67231494 -0.73708975 -0.06849328
vn 0.56196944 -0.81882152 0.11713948
vn 0.60480564 -0.69809349 0.38324355
vn 0.77509007 -0.57937353 0.25211445
vn 0.83281266 -0.55229201 -0.03737119
vn 0.23823399 -0.77420576 0.58638725
vn 0.53693261 -0.51280694 0.66987492
vn 0.45653756 -0.68088212 0.57268927
vn 0.72514816 -0.49397711 0.47973614
vn 0.55583820 -0.52994266 0.64047222
vn 0.48515713 -0.76531772 0.42297912
vn 0.77905576 -0.58620353 0.22234556
vn 0.71431753 -0.43806076 0.54575931
vn 0.74868899 -0.33178837 0.57391748
vn 0.84940190 -0.16040315 0.50277951
vn 0.88984158 -0.33238584 0.31257258
vn 0.92390495 0.11409195 0.36521593
vn 0.76361397 -0.37135474 -0.52819443
vn 0.73868094 -0.16610293 -0.65326893
vn 0.93761883 -0.06947099 -0.34065335
vn 0.91057466 -0.36231164 -0.19895745
vn 0.79477450 0.08767170 -0.60053906
vn 0.88265494 -0.44362593 0.15529421
vn 0.84386457 -0.35753386 0.40007765
vn 0.97781929 -0.15745478 -0.13812105
vn 0.93581223 -0.32362379 0.13972511
vn 0.90656747 -0.18679961 0.37847235
vn 0.98902333 -0.06809368 0.13113394
vn 0.99168724 0.10419932 -0.07549113
vn 0.95067766 0.04629161 0.30670683
vn 0.89715824 0.07363007 0.43552922
vn -0.19088028 -0.94148539 -0.27779486
vn -0.04327735 -0.99356089 -0.10470835
vn -0.37044762 -0.86568205 -0.33669444
vn 0.15473682 -0.96128669 -0.22800090
vn -0.03790619 -0.94102279 -0.33621307
vn 0.11200579 -0.99236315 0.05167274
vn -0.11005824 -0.98157143 0.15622007
vn 0.05835514 -0.92338142 0.37942249
vn 0.17784225 -0.92933045 0.32360013
vn 0.43623713 -0.82259240 -0.36474499
vn 0.31981883 -0.93836620 -0.13109076
vn 0.30518268 -0.94451382 0.12147916
vn 0.36803106 -0.83395329 0.41118737
vn 0.66847018 -0.71150858 -0.21657137
vn 0.89512658 -0.28313020 -0.34436275
vn 0.54805184 -0.69427184 -0.46650379
vn 0.61659161 -0.48922091 -0.61682873
vn 0.69870429 -0.44715247 -0.55845051
vn 0.68099122 -0.26343544 -0.68326622
vn 0.68933467 0.01886330 -0.72419741
vn 0.71534785 0.13966612 -0.68466840
vn 0.42323730 -0.64554787 0.63571860
vn 0.45380437 -0.72147327 0.52300852
vn 0.48147165 -0.86808523 -0.12088460
vn 0.45397273 -0.87320528 0.17726051
vn 0.46492809 -0.41848320 0.78020105
vn 0.40812282 -0.49525803 0.76691280
vn 0.49954063 -0.72331218 0.47673752
vn 0.46197911 -0.00168247 0.88688921
vn 0.43298000 -0.24137588 0.86848489
vn 0.34567620 0.23825778 0.90760189
vn -0.11540334 -0.69777759 0.70695722
vn 0.00699663 -0.83991598 0.54267135
vn -0.00345987 -0.49219183 0.87047989
vn -0.17376203 0.05234188 0.98339569
vn 0.01228218 -0.23656737 0.97153746
vn 0.19238480 -0.67409268 0.71315296
vn 0.25988967 -0.76591127 0.58807932
vn 0.15988340 0.07014990 0.98464018
vn 0.31785952 -0.37732029 0.86982453
vn 0.55631083 -0.16541287 0.81434443
vn 0.57515402 0.23065157 0.78485521
vn 0.56870031 0.25386811 0.78238797
vn 0.44364836 -0.01174307 0.89612401
vn 0.77874551 -0.26956029 -0.56647390
vn 0.68372287 -0.69511723 -0.22211500
vn 0.67875246 -0.71177003 0.18077200
vn 0.84168863 -0.52778119 -0.11404940
vn 0.93319346 -0.35745903 -0.03705419
vn 0.79859374 0.15959050 -0.58032655
vn 0.95508018 -0.09362518 0.28116932
vn 0.95989966 0.27062375 -0.07318082
vn 0.60977606 -0.52253634 0.59592695
vn 0.51375996 -0.13662180 0.84698594
vn 0.78849814 -0.39306871 0.47304088
vn 0.92478630 -0.10186660 -0.36659718
vn 0.86470251 0.29227465 0.40849125
vn 0.16085527 0.48171550 -0.86143819
vn 0.12072480 0.77634390 -0.61864018
vn 0.08896129 0.96381121 -0.25130427
vn 0.24477940 0.88735687 -0.39074394
vn 0.31613013 0.30684651 -0.89772321
vn 0.56645769 0.20188932 -0.79897834
vn 0.59456393 0.40048515 -0.69721258
vn 0.36094575 0.60763416 -0.70745946
vn 0.40418609 0.78975163 -0.46143902
vn 0.62296526 0.56404983 -0.54199822
vn 0.74808172 0.63219619 -0.20174666
vn 0.58373084 0.78470076 -0.20857379
vn -0.34831308 0.90008561 0.26177070
vn -0.47047556 0.87459020 -0.11723795
vn -0.06683642 0.86315353 0.50049863
vn 0.19894170 0.77353170 0.60172328
vn 0.33370261 0.89635353 0.29187827
vn 0.06557649 0.99777809 0.01177327
vn 0.09560892 0.94525130 0.31202389
vn 0.29091870 0.93007741 0.22432639
vn 0.09349850 0.77017325 0.63094468
vn 0.03753966 0.81755625 0.57462384
vn 0.59133549 0.76223092 0.26329898
vn 0.45848403 0.68736621 0.56331172
vn 0.84437959 0.26690762 0.46452495
vn 0.69788999 0.48939383 0.52291801
vn 0.55436880 0.65164460 0.51772053
vn 0.31438072 0.94536768 -0.08628276
vn 0.55092473 0.82889630 0.09701996
vn 0.58775149 0.73199015 0.34458469
vn 0.30733677 0.82261801 0.47837613
vn 0.33758974 0.73210739 0.59165187
vn 0.86219777 0.22431552 -0.45419991
vn 0.86950372 0.39485619 -0.29673536
vn 0.96371195 0.25924460 -0.06365146
vn 0.94119936 0.25015852 0.22707813
vn 0.82125709 0.55418675 0.13569764
vn 0.80660367 0.48985411 0.33080730
vn 0.73312436 0.45424438 0.50615286
vn -0.17192483 0.93853213 -0.29933141
vn -0.27399744 0.90866139 -0.31505537
vn 0.16754832 0.97903456 -0.11583993
vn -0.06342680 0.98724509 -0.14602796
vn 0.07515018 0.96626494 -0.24634228
vn -0.16199723 0.98239442 0.09304891
vn -0.13058748 0.80475551 0.57906431
vn 0.03759008 0.91972093 0.39076898
vn 0.13393654 0.98407395 0.11687367
vn 0.27381900 0.95112728 -0.14275873
vn 0.15612299 0.68495174 0.71166476
vn 0.29026210 0.81965811 0.49387093
vn 0.46213570 0.88421729 -0.06775242
vn 0.66050360 0.72636442 -0.19007823
vn 0.47305851 0.83219155 -0.28926262
vn 0.91478186 0.24847072 -0.31849089
vn 0.83209176 0.55213587 0.05262395
vn 0.68441877 0.58239534 -0.43861899
vn 0.67001925 0.40825585 -0.62000111
vn 0.41963768 0.90698758 0.03574558
vn 0.57678004 0.68156553 -0.45032567
vn 0.33868011 0.92192215 0.18803013
vn 0.40819694 0.75172118 0.51796769
vn 0.43113640 0.56995747 0.69947830
vn 0.43356658 0.40771923 0.80360752
vn 0.38782693 0.58212848 0.71464446
vn 0.53682880 0.83682290 -0.10743496
vn 0.49129546 0.80431016 0.33423635
vn -0.26742120 0.24841919 0.93100688
vn 0.00451740 0.46576597 0.88489641
vn 0.29771037 0.43823853 0.84812471
vn 0.69488337 0.31047189 -0.64864805
vn 0.84132527 0.46619412 -0.27355955
vn 0.68779023 0.63541074 -0.35099544
vn 0.56255391 0.56142288 0.60690810
vn 0.66624094 0.17000178 0.72610083
vn 0.73572565 0.66375906 0.13465393
f 1//1 3//3 2//2
f 1//1 4//4 3//3
f 5//5 4//4 1//1
f 5//5 6//6 4//4
f 1//1 7//7 5//5
f 5//5 8//8 6//6
f 9//9 1//1 2//2
f 9//9 7//7 1//1
f 9//9 2//2 10//10
f 10//10 2//2 11//11
f 12//12 11//11 2//2
f 9//9 13//13 7//7
f 9//9 10//10 13//13
f 10//10 14//14 13//13
f 13//13 14//14 15//15
f 14//14 17//17 16//16
f 17//17 18//18 16//16
f 11//11 20//20 19//19
f 12//12 20//20 11//11
f 19//19 20//20 22//22
f 20//20 21//21 22//22
f 22//22 21//21 23//23
f 10//10 11//11 14//14
f 11//11 17//17 14//14
f 11//11 19//19 17//17
f 19//19 24//24 17//17
f 19//19 22//22 24//24
f 3//3 26//26 25//25
f 3//3 27//27 26//26
f 25//25 29//29 28//28
f 25//25 26//26 29//29
f 30//30 26//26 27//27
f 27//27 4//4 6//6
f 3//3 4//4 27//27
f 6//6 31//31 32//32
f 30//30 27//27 33//33
f 27//27 6//6 33//33
f 6//6 32//32 33//33
f 33//33 35//35 34//34
f 33//33 32//32 35//35
f 29//29 26//26 36//36
f 29//29 37//37 28//28
f 30//30 36//36 26//26
f 30//30 38//38 36//36
f 30//30 39//39 38//38
f 36//36 37//37 29//29
f 38//38 40//40 36//36
f 38//38 39//39 40//40
f 30//30 34//34 39//39
f 30//30 33//33 34//34
f 2//2 3//3 25//25
f 2//2 42//42 12//12
f 2//2 25//25 42//42
f 12//12 43//43 20//20
f 12//12 42//42 43//43
f 42//42 44//44 43//43
f 25//25 28//28 42//42
f 42//42 28//28 46//46
f 46//46 44//44 42//42
f 46//46 47//47 44//44
f 43//43 44//44 45//45
f 20//20 43//43 48//48
f 43//43 45//45 48//48
f 48//48 45//45 49//49
f 20//20 48//48 21//21
f 21//21 48//48 50//50
f 21//21 51//51 23//23
f 21//21 50//50 51//51
f 51//51 53//53 52//52
f 50//50 53//53 51//51
f 50//50 49//49 53//53
f 48//48 49//49 50//50
f 49//49 54//54 53//53
f 52//52 56//56 55//55
f 52//52 53//53 56//56
f 55//55 56//56 57//57
f 28//28 58//58 46//46
f 28//28 59//59 58//58
f 28//28 37//37 59//59
f 46//46 58//58 47//47
f 44//44 60//60 45//45
f 47//47 60//60 44//44
f 37//37 61//61 59//59
f 58//58 62//62 47//47
f 47//47 62//62 60//60
f 58//58 59//59 62//62
f 62//62 63//63 60//60
f 45//45 60//60 64//64
f 45//45 65//65 49//49
f 60//60 66//66 64//64
f 60//60 63//63 66//66
f 45//45 64//64 65//65
f 64//64 67//67 65//65
f 49//49 65//65 54//54
f 53//53 68//68 56//56
f 54//54 68//68 53//53
f 68//68 54//54 69//69
f 54//54 65//65 70//70
f 67//67 71//71 65//65
f 65//65 71//71 70//70
f 54//54 70//70 69//69
f 24//24 22//22 72//72
f 72//72 73//73 24//24
f 17//17 24//24 18//18
f 24//24 73//73 74//74
f 24//24 74//74 18//18
f 22//22 23//23 72//72
f 72//72 75//75 73//73
f 72//72 23//23 75//75
f 23//23 51//51 77//77
f 77//77 78//78 75//75
f 23//23 77//77 75//75
f 73//73 78//78 76//76
f 73//73 75//75 78//78
f 77//77 55//55 78//78
f 77//77 52//52 55//55
f 51//51 52//52 77//77
f 78//78 55//55 57//57
f 79//79 82//82 81//81
f 79//79 80//80 82//82
f 83//83 85//85 84//84
f 83//83 86//86 85//85
f 83//83 84//84 87//87
f 88//88 86//86 83//83
f 88//88 89//89 86//86
f 86//86 89//89 80//80
f 69//69 70//70 90//90
f 70//70 71//71 88//88
f 88//88 91//91 70//70
f 88//88 71//71 89//89
f 70//70 91//91 90//90
f 83//83 91//91 88//88
f 91//91 83//83 90//90
f 85//85 86//86 79//79
f 85//85 79//79 92//92
f 92//92 93//93 85//85
f 92//92 79//79 94//94
f 92//92 94//94 95//95
f 85//85 96//96 84//84
f 85//85 93//93 96//96
f 93//93 92//92 97//97
f 96//96 93//93 98//98
f 93//93 97//97 98//98
f 79//79 86//86 80//80
f 79//79 81//81 94//94
f 81//81 99//99 94//94
f 94//94 99//99 95//95
f 92//92 100//100 97//97
f 97//97 101//101 98//98
f 95//95 100//100 92//92
f 95//95 102//102 100//100
f 95//95 99//99 102//102
f 103//103 105//105 104//104
f 100//100 103//103 104//104
f 100//100 102//102 103//103
f 100//100 104//104 97//97
f 97//97 106//106 101//101
f 97//97 104//104 106//106
f 104//104 105//105 106//106
f 8//8 5//5 107//107
f 8//8 109//109 108//108
f 8//8 107//107 109//109
f 108//108 111//111 110//110
f 108//108 110//110 8//8
f 7//7 107//107 5//5
f 7//7 112//112 107//107
f 7//7 13//13 112//112
f 107//107 112//112 109//109
f 13//13 15//15 112//112
f 112//112 113//113 109//109
f 112//112 15//15 113//113
f 109//109 113//113 111//111
f 109//109 111//111 108//108
f 113//113 115//115 111//111
f 113//113 116//116 115//115
f 111//111 115//115 114//114
f 115//115 116//116 117//117
f 15//15 16//16 118//118
f 14//14 16//16 15//15
f 15//15 118//118 113//113
f 118//118 16//16 119//119
f 113//113 118//118 116//116
f 116//116 119//119 121//121
f 118//118 119//119 116//116
f 116//116 121//121 117//117
f 119//119 120//120 121//121
f 121//121 120//120 122//122
f 31//31 124//124 32//32
f 6//6 8//8 31//31
f 31//31 8//8 124//124
f 8//8 110//110 124//124
f 124//124 125//125 126//126
f 110//110 111//111 127//127
f 110//110 125//125 124//124
f 110//110 127//127 125//125
f 125//125 127//127 128//128
f 125//125 128//128 126//126
f 35//35 41//41 34//34
f 35//35 32//32 41//41
f 32//32 124//124 129//129
f 124//124 126//126 129//129
f 32//32 129//129 41//41
f 126//126 128//128 132//132
f 128//128 133//133 132//132
f 126//126 132//132 131//131
f 126//126 131//131 134//134
f 129//129 126//126 134//134
f 129//129 135//135 41//41
f 129//129 134//134 135//135
f 131//131 132//132 136//136
f 117//117 121//121 137//137
f 122//122 120//120 138//138
f 123//123 138//138 120//120
f 123//123 139//139 138//138
f 121//121 122//122 137//137
f 139//139 140//140 138//138
f 137//137 122//122 138//138
f 57//57 56//56 141//141
f 57//57 141//141 140//140
f 56//56 142//142 141//141
f 140//140 141//141 142//142
f 137//137 138//138 143//143
f 140//140 142//142 144//144
f 140//140 143//143 138//138
f 140//140 144//144 143//143
f 111//111 146//146 127//127
f 111//111 114//114 146//146
f 115//115 117//117 147//147
f 146//146 147//147 148//148
f 114//114 147//147 146//146
f 114//114 115//115 147//147
f 148//148 147//147 150//150
f 149//149 150//150 147//147
f 127//127 146//146 151//151
f 127//127 151//151 128//128
f 146//146 148//148 151//151
f 148//148 150//150 152//152
f 117//117 137//137 147//147
f 147//147 137//137 149//149
f 149//149 137//137 143//143
f 150//150 149//149 153//153
f 56//56 68//68 142//142
f 68//68 154//154 142//142
f 142//142 154//154 144//144
f 144//144 145//145 143//143
f 154//154 155//155 144//144
f 144//144 155//155 156//156
f 144//144 156//156 145//145
f 145//145 156//156 157//157
f 128//128 151//151 133//133
f 151//151 158//158 133//133
f 151//151 148//148 158//158
f 133//133 159//159 132//132
f 133//133 158//158 159//159
f 148//148 152//152 158//158
f 152//152 150//150 153//153
f 132//132 159//159 136//136
f 158//158 152//152 160//160
f 152//152 161//161 160//160
f 158//158 160//160 159//159
f 153//153 149//149 145//145
f 143//143 145//145 149//149
f 145//145 162//162 153//153
f 152//152 153//153 161//161
f 161//161 153//153 162//162
f 18//18 163//163 16//16
f 74//74 164//164 163//163
f 18//18 74//74 163//163
f 119//119 163//163 120//120
f 16//16 163//163 119//119
f 120//120 163//163 123//123
f 164//164 123//123 163//163
f 164//164 165//165 123//123
f 76//76 164//164 73//73
f 76//76 165//165 164//164
f 74//74 73//73 164//164
f 57//57 76//76 78//78
f 57//57 139//139 76//76
f 139//139 165//165 76//76
f 123//123 165//165 139//139
f 57//57 140//140 139//139
f 69//69 154//154 68//68
f 69//69 90//90 154//154
f 155//155 154//154 167//167
f 154//154 90//90 167//167
f 90//90 87//87 167//167
f 90//90 83//83 87//87
f 167//167 166//166 168//168
f 167//167 87//87 166//166
f 168//168 166//166 169//169
f 167//167 168//168 170//170
f 168//168 169//169 171//171
f 168//168 171//171 170//170
f 84//84 172//172 87//87
f 84//84 173//173 172//172
f 84//84 96//96 173//173
f 87//87 172//172 166//166
f 96//96 98//98 173//173
f 98//98 174//174 173//173
f 173//173 176//176 175//175
f 173//173 174//174 176//176
f 166//166 172//172 177//177
f 166//166 177//177 169//169
f 172//172 173//173 177//177
f 173//173 175//175 177//177
f 169//169 177//177 178//178
f 177//177 179//179 178//178
f 177//177 175//175 179//179
f 175//175 176//176 179//179
f 178//178 179//179 180//180
f 169//169 178//178 181//181
f 169//169 181//181 171//171
f 181//181 178//178 180//180
f 98//98 101//101 174//174
f 176//176 174//174 182//182
f 174//174 101//101 182//182
f 101//101 106//106 182//182
f 106//106 183//183 182//182
f 176//176 182//182 179//179
f 182//182 184//184 179//179
f 36//36 185//185 37//37
f 36//36 40//40 185//185
f 40//40 39//39 187//187
f 185//185 186//186 37//37
f 185//185 188//188 186//186
f 40//40 189//189 185//185
f 40//40 187//187 189//189
f 39//39 34//34 187//187
f 34//34 41//41 190//190
f 187//187 34//34 190//190
f 188//188 185//185 189//189
f 186//186 188//188 191//191
f 188//188 192//192 191//191
f 188//188 193//193 192//192
f 188//188 189//189 193//193
f 189//189 194//194 193//193
f 193//193 195//195 192//192
f 187//187 190//190 196//196
f 189//189 187//187 196//196
f 190//190 197//197 196//196
f 189//189 196//196 194//194
f 196//196 197//197 198//198
f 196//196 198//198 194//194
f 37//37 186//186 61//61
f 59//59 199//199 62//62
f 62//62 200//200 63//63
f 62//62 199//199 200//200
f 61//61 199//199 59//59
f 186//186 191//191 61//61
f 61//61 191//191 199//199
f 199//199 201//201 200//200
f 63//63 200//200 202//202
f 63//63 202//202 66//66
f 64//64 203//203 67//67
f 64//64 66//66 203//203
f 66//66 202//202 203//203
f 203//203 204//204 205//205
f 202//202 204//204 203//203
f 203//203 205//205 67//67
f 204//204 206//206 205//205
f 67//67 207//207 71//71
f 67//67 205//205 207//207
f 205//205 208//208 207//207
f 191//191 192//192 209//209
f 191//191 209//209 199//199
f 199//199 210//210 201//201
f 199//199 209//209 210//210
f 192//192 212//212 209//209
f 192//192 211//211 212//212
f 209//209 212//212 210//210
f 212//212 213//213 210//210
f 212//212 211//211 214//214
f 212//212 214//214 213//213
f 195//195 215//215 211//211
f 192//192 195//195 211//211
f 200//200 201//201 216//216
f 216//216 204//204 202//202
f 200//200 216//216 202//202
f 201//201 210//210 216//216
f 204//204 216//216 206//206
f 210//210 213//213 218//218
f 210//210 218//218 216//216
f 216//216 218//218 206//206
f 213//213 219//219 218//218
f 218//218 219//219 220//220
f 218//218 220//220 206//206
f 206//206 220//220 217//217
f 205//205 221//221 208//208
f 205//205 206//206 221//221
f 206//206 217//217 221//221
f 217//217 223//223 221//221
f 219//219 224//224 220//220
f 217//217 224//224 223//223
f 217//217 220//220 224//224
f 224//224 225//225 223//223
f 226//226 225//225 227//227
f 226//226 223//223 225//225
f 193//193 228//228 195//195
f 193//193 194//194 228//228
f 194//194 229//229 228//228
f 228//228 230//230 231//231
f 228//228 229//229 230//230
f 194//194 198//198 229//229
f 198//198 232//232 229//229
f 229//229 232//232 230//230
f 195//195 231//231 215//215
f 215//215 231//231 233//233
f 211//211 215//215 214//214
f 215//215 233//233 214//214
f 214//214 233//233 234//234
f 214//214 234//234 219//219
f 213//213 214//214 219//219
f 195//195 228//228 231//231
f 231//231 236//236 233//233
f 231//231 235//235 236//236
f 231//231 230//230 235//235
f 233//233 236//236 234//234
f 236//236 237//237 234//234
f 235//235 238//238 236//236
f 230//230 239//239 235//235
f 235//235 239//239 238//238
f 236//236 238//238 237//237
f 238//238 239//239 240//240
f 238//238 240//240 237//237
f 234//234 224//224 219//219
f 234//234 225//225 224//224
f 225//225 234//234 237//237
f 225//225 240//240 241//241
f 225//225 237//237 240//240
f 80//80 242//242 82//82
f 242//242 243//243 82//82
f 242//242 246//246 245//245
f 242//242 244//244 246//246
f 242//242 245//245 243//243
f 245//245 246//246 208//208
f 245//245 247//247 243//243
f 82//82 248//248 81//81
f 82//82 243//243 248//248
f 81//81 248//248 99//99
f 248//248 249//249 99//99
f 243//243 247//247 248//248
f 248//248 247//247 249//249
f 247//247 250//250 249//249
f 71//71 207//207 89//89
f 207//207 246//246 244//244
f 244//244 89//89 207//207
f 89//89 244//244 80//80
f 244//244 242//242 80//80
f 207//207 208//208 246//246
f 245//245 208//208 251//251
f 245//245 252//252 247//247
f 245//245 251//251 252//252
f 247//247 252//252 253//253
f 247//247 253//253 250//250
f 208//208 221//221 255//255
f 208//208 255//255 251//251
f 255//255 221//221 222//222
f 222//222 256//256 255//255
f 221//221 223//223 222//222
f 251//251 258//258 257//257
f 251//251 255//255 258//258
f 255//255 256//256 258//258
f 258//258 259//259 257//257
f 223//223 226//226 222//222
f 222//222 226//226 256//256
f 226//226 227//227 256//256
f 258//258 260//260 259//259
f 258//258 256//256 260//260
f 256//256 261//261 260//260
f 256//256 262//262 261//261
f 250//250 253//253 254//254
f 254//254 264//264 263//263
f 251//251 265//265 252//252
f 251//251 257//257 265//265
f 252//252 266//266 253//253
f 252//252 265//265 266//266
f 254//254 266//266 264//264
f 253//253 266//266 254//254
f 263//263 267//267 268//268
f 263//263 264//264 267//267
f 266//266 269//269 264//264
f 264//264 269//269 267//267
f 267//267 271//271 270//270
f 270//270 271//271 272//272
f 99//99 273//273 102//102
f 99//99 274//274 273//273
f 99//99 249//249 274//274
f 273//273 103//103 102//102
f 103//103 273//273 275//275
f 105//105 276//276 106//106
f 105//105 275//275 277//277
f 103//103 275//275 105//105
f 105//105 277//277 276//276
f 249//249 278//278 274//274
f 274//274 278//278 273//273
f 273//273 278//278 275//275
f 249//249 279//279 278//278
f 249//249 250//250 279//279
f 277//277 280//280 276//276
f 275//275 281//281 277//277
f 275//275 278//278 281//281
f 277//277 281//281 280//280
f 254//254 263//263 279//279
f 250//250 254//254 279//279
f 278//278 279//279 268//268
f 279//279 263//263 268//268
f 268//268 282//282 281//281
f 278//278 268//268 281//281
f 282//282 285//285 281//281
f 282//282 284//284 285//285
f 281//281 285//285 280//280
f 267//267 282//282 268//268
f 267//267 270//270 282//282
f 259//259 260//260 286//286
f 260//260 261//261 286//286
f 257//257 287//287 265//265
f 257//257 259//259 287//287
f 265//265 288//288 266//266
f 265//265 287//287 288//288
f 287//287 289//289 288//288
f 266//266 288//288 269//269
f 286//286 290//290 289//289
f 259//259 289//289 287//287
f 259//259 286//286 289//289
f 286//286 261//261 291//291
f 290//290 293//293 292//292
f 267//267 294//294 271//271
f 267//267 269//269 294//294
f 271//271 295//295 272//272
f 289//289 296//296 288//288
f 289//289 290//290 296//296
f 288//288 296//296 294//294
f 294//294 296//296 271//271
f 269//269 288//288 294//294
f 290//290 292//292 296//296
f 271//271 296//296 295//295
f 290//290 297//297 293//293
f 286//286 297//297 290//290
f 286//286 291//291 297//297
f 296//296 292//292 298//298
f 130//130 41//41 135//135
f 41//41 130//130 190//190
f 135//135 134//134 299//299
f 131//131 136//136 300//300
f 134//134 131//131 300//300
f 134//134 300//300 299//299
f 136//136 301//301 300//300
f 135//135 299//299 130//130
f 300//300 301//301 302//302
f 130//130 197//197 190//190
f 197//197 130//130 303//303
f 198//198 197//197 304//304
f 303//303 305//305 304//304
f 197//197 303//303 304//304
f 303//303 299//299 306//306
f 130//130 299//299 303//303
f 300//300 307//307 306//306
f 299//299 300//300 306//306
f 300//300 302//302 307//307
f 303//303 306//306 305//305
f 306//306 308//308 305//305
f 306//306 307//307 308//308
f 308//308 307//307 310//310
f 157//157 156//156 311//311
f 155//155 311//311 156//156
f 155//155 312//312 311//311
f 157//157 311//311 313//313
f 314//314 313//313 315//315
f 136//136 159//159 316//316
f 136//136 316//316 301//301
f 159//159 160//160 316//316
f 316//316 160//160 317//317
f 160//160 161//161 317//317
f 316//316 317//317 318//318
f 157//157 162//162 145//145
f 157//157 313//313 162//162
f 161//161 162//162 320//320
f 162//162 319//319 320//320
f 313//313 319//319 162//162
f 313//313 314//314 319//319
f 161//161 320//320 317//317
f 321//321 322//322 315//315
f 314//314 315//315 322//322
f 323//323 324//324 227//227
f 321//321 324//324 322//322
f 324//324 325//325 322//322
f 301//301 326//326 302//302
f 301//301 316//316 326//326
f 302//302 326//326 307//307
f 326//326 318//318 327//327
f 316//316 318//318 326//326
f 318//318 328//328 327//327
f 309//309 308//308 310//310
f 307//307 326//326 310//310
f 326//326 327//327 310//310
f 319//319 314//314 330//330
f 317//317 329//329 318//318
f 317//317 320//320 329//329
f 319//319 329//329 320//320
f 319//319 330//330 329//329
f 325//325 329//329 330//330
f 329//329 325//325 328//328
f 330//330 322//322 325//325
f 330//330 314//314 322//322
f 318//318 329//329 328//328
f 198//198 304//304 232//232
f 232//232 331//331 230//230
f 232//232 304//304 331//331
f 304//304 305//305 331//331
f 305//305 308//308 331//331
f 331//331 308//308 332//332
f 230//230 331//331 239//239
f 331//331 333//333 239//239
f 239//239 334//334 240//240
f 239//239 333//333 334//334
f 331//331 332//332 333//333
f 333//333 332//332 335//335
f 333//333 335//335 334//334
f 334//334 335//335 336//336
f 240//240 334//334 241//241
f 334//334 323//323 241//241
f 241//241 227//227 225//225
f 241//241 323//323 227//227
f 324//324 337//337 325//325
f 324//324 323//323 337//337
f 325//325 337//337 336//336
f 334//334 336//336 323//323
f 336//336 337//337 323//323
f 332//332 309//309 335//335
f 332//332 308//308 309//309
f 310//310 335//335 309//309
f 310//310 327//327 335//335
f 328//328 336//336 335//335
f 328//328 325//325 336//336
f 327//327 328//328 335//335
f 167//167 170//170 155//155
f 312//312 338//338 311//311
f 312//312 170//170 338//338
f 155//155 170//170 312//312
f 171//171 339//339 170//170
f 170//170 339//339 338//338
f 313//313 311//311 340//340
f 311//311 338//338 340//340
f 313//313 340//340 315//315
f 171//171 181//181 339//339
f 339//339 341//341 338//338
f 338//338 342//342 340//340
f 338//338 341//341 342//342
f 181//181 180//180 343//343
f 339//339 181//181 341//341
f 181//181 343//343 341//341
f 343//343 180//180 345//345
f 344//344 345//345 180//180
f 341//341 343//343 346//346
f 341//341 347//347 342//342
f 341//341 346//346 347//347
f 343//343 345//345 346//346
f 344//344 348//348 345//345
f 346//346 345//345 349//349
f 348//348 349//349 345//345
f 321//321 315//315 350//350
f 315//315 340//340 350//350
f 321//321 350//350 351//351
f 351//351 350//350 352//352
f 227//227 353//353 256//256
f 324//324 354//354 227//227
f 227//227 354//354 353//353
f 353//353 354//354 355//355
f 256//256 353//353 262//262
f 353//353 356//356 262//262
f 353//353 355//355 356//356
f 321//321 354//354 324//324
f 321//321 351//351 354//354
f 354//354 351//351 355//355
f 351//351 352//352 355//355
f 355//355 358//358 356//356
f 355//355 352//352 358//358
f 359//359 360//360 357//357
f 359//359 349//349 360//360
f 349//349 361//361 360//360
f 270//270 272//272 362//362
f 362//362 272//272 363//363
f 358//358 352//352 364//364
f 352//352 357//357 364//364
f 363//363 360//360 362//362
f 361//361 362//362 360//360
f 363//363 365//365 360//360
f 357//357 365//365 364//364
f 357//357 360//360 365//365
f 350//350 340//340 352//352
f 342//342 347//347 340//340
f 340//340 347//347 352//352
f 347//347 346//346 359//359
f 357//357 352//352 347//347
f 357//357 347//347 359//359
f 346//346 349//349 359//359
f 348//348 361//361 349//349
f 106//106 276//276 366//366
f 106//106 366//366 183//183
f 276//276 367//367 366//366
f 366//366 367//367 183//183
f 183//183 184//184 182//182
f 180//180 184//184 344//344
f 180//180 179//179 184//184
f 183//183 367//367 184//184
f 276//276 280//280 367//367
f 280//280 368//368 367//367
f 348//348 367//367 368//368
f 344//344 184//184 348//348
f 367//367 348//348 184//184
f 283//283 284//284 282//282
f 361//361 284//284 283//283
f 280//280 285//285 368//368
f 284//284 368//368 285//285
f 284//284 361//361 368//368
f 368//368 361//361 348//348
f 270//270 283//283 282//282
f 270//270 362//362 283//283
f 361//361 283//283 362//362
f 261//261 262//262 369//369
f 262//262 356//356 369//369
f 261//261 369//369 291//291
f 369//369 371//371 370//370
f 356//356 371//371 369//369
f 292//292 293//293 298//298
f 295//295 373//373 272//272
f 293//293 374//374 298//298
f 293//293 370//370 374//374
f 298//298 372//372 373//373
f 298//298 374//374 372//372
f 272//272 372//372 363//363
f 272//272 373//373 372//372
f 356//356 358//358 371//371
f 358//358 364//364 371//371
f 364//364 374//374 371//371
f 364//364 365//365 374//374
f 371//371 374//374 370//370
f 363//363 372//372 365//365
f 372//372 374//374 365//365
f 369//369 370//370 291//291
f 293//293 291//291 370//370
f 293//293 297//297 291//291
f 298//298 373//373 296//296
f 295//295 296//296 373//373
