# Blender 5.2.0 LTS
# www.blender.org
mtllib cube.mtl
o Cube
v -0.035000 -0.035000 0.035000
v -0.035000 0.035000 0.035000
v -0.035000 -0.035000 -0.035000
v -0.035000 0.035000 -0.035000
v 0.035000 -0.035000 0.035000
v 0.035000 0.035000 0.035000
v 0.035000 -0.035000 -0.035000
v 0.035000 0.035000 -0.035000
vn -1.0000 -0.0000 -0.0000
vn -0.0000 -0.0000 -1.0000
vn 1.0000 -0.0000 -0.0000
vn -0.0000 -0.0000 1.0000
vn -0.0000 -1.0000 -0.0000
vn -0.0000 1.0000 -0.0000
vt 0.375000 0.000000
vt 0.625000 0.000000
vt 0.625000 0.250000
vt 0.375000 0.250000
vt 0.625000 0.500000
vt 0.375000 0.500000
vt 0.625000 0.750000
vt 0.375000 0.750000
vt 0.373667 0.752000
vt 0.623667 0.752000
vt 0.623667 1.002000
vt 0.373667 1.002000
vt 0.067667 0.502000
vt 0.317667 0.502000
vt 0.317667 0.752000
vt 0.067667 0.752000
vt 0.690333 0.502000
vt 0.940333 0.502000
vt 0.940333 0.752000
vt 0.690333 0.752000
s 0
usemtl Material.003
f 1/1/1 2/2/1 4/3/1 3/4/1
f 3/4/2 4/3/2 8/5/2 7/6/2
f 7/6/3 8/5/3 6/7/3 5/8/3
f 5/9/4 6/10/4 2/11/4 1/12/4
f 3/13/5 7/14/5 5/15/5 1/16/5
f 8/17/6 4/18/6 2/19/6 6/20/6
