# https://github.com/mikedh/trimesh
v 0.01853564 -0.01501924 0.02198333
v 0.01853564 -0.01500160 0.02259274
v 0.01853564 -0.01491338 0.02167066
v 0.01876441 -0.01483985 0.02167066
v 0.01888660 -0.01490455 0.02198333
v 0.01853564 -0.01497513 0.02291636
v 0.01942993 -0.01469282 0.02198333
v 0.01853564 0.01485636 0.02167066
v 0.01942993 -0.01460753 0.02167066
v 0.02094424 -0.01404584 0.02167066
v 0.01853564 -0.01491043 0.02315933
v 0.02036321 -0.01430463 0.02198333
v 0.01881771 -0.01485750 0.02291636
v 0.01853564 0.01501810 0.02198333
v 0.01853954 0.01495046 0.02167066
v 0.02142258 -0.01384586 0.02198333
v 0.02095724 -0.01405172 0.02198333
v 0.02289010 -0.01315477 0.02167066
v 0.02222978 -0.01348709 0.02198333
v 0.01853564 -0.01461341 0.02382251
v 0.02457988 -0.01213726 0.02340130
v 0.02729654 -0.01023750 0.02517377
v 0.02089615 -0.01402525 0.02253498
v 0.01853564 0.01497399 0.02291636
v 0.01888660 0.01490341 0.02198333
v 0.02066868 0.01416233 0.02167066
v 0.02338793 -0.01294598 0.02198333
v 0.02292129 -0.01316948 0.02198333
v 0.02467737 -0.01219901 0.02167066
v 0.02409635 -0.01257544 0.02198333
v 0.02283420 -0.01312537 0.02263257
v 0.01853564 -0.01416347 0.02452652
v 0.02830132 -0.00933467 0.02619045
v 0.02782688 -0.00943172 0.02634379
v 0.02858858 -0.00854066 0.02733060
v 0.02409635 -0.01247251 0.02291636
v 0.02468647 -0.01219608 0.02291636
v 0.02645425 -0.01121385 0.02343914
v 0.02625278 -0.01112268 0.02406150
v 0.02748242 -0.01034337 0.02455141
v 0.01881771 0.01485636 0.02291636
v 0.02036321 0.01430349 0.02198333
v 0.01942993 0.01469167 0.02198333
v 0.01853564 0.01467991 0.02366219
v 0.02095724 0.01405058 0.02198333
v 0.02094424 0.01404470 0.02167066
v 0.02515311 -0.01196081 0.02291636
v 0.02579263 -0.01137559 0.02167066
v 0.02596421 -0.01142264 0.02205801
v 0.02644385 -0.01120796 0.02241947
v 0.02519471 -0.01193728 0.02198333
v 0.02472937 -0.01222548 0.02198333
v 0.01853564 -0.01376058 0.02499453
v 0.02876016 -0.00775252 0.02841001
v 0.02876016 -0.00738198 0.02887703
v 0.02841310 -0.00941996 0.02571546
v 0.02920990 -0.00838774 0.02709062
v 0.02884335 -0.00824952 0.02761738
v 0.02596031 -0.01151381 0.02291636
v 0.02646075 -0.01121973 0.02291636
v 0.02755131 -0.01041395 0.02384940
v 0.02852229 -0.00954347 0.02478243
v 0.02089615 0.01402411 0.02253498
v 0.02729654 0.01023636 0.02517377
v 0.02457988 0.01213612 0.02340130
v 0.01853564 0.01461227 0.02382251
v 0.02142258 0.01384472 0.02198333
v 0.02116131 0.01394765 0.02167066
v 0.02222978 0.01348594 0.02198333
v 0.02620988 -0.01092271 0.02167066
v 0.02627617 -0.01098446 0.02179812
v 0.02737973 -0.01028749 0.02241947
v 0.02747462 -0.01037278 0.02291636
v 0.01853564 -0.01373117 0.02502639
v 0.02943088 -0.00760254 0.02823675
v 0.02969344 -0.00674089 0.02920862
v 0.02876016 -0.00691439 0.02935300
v 0.02969344 -0.00628212 0.02967563
v 0.02887974 -0.00906118 0.02571546
v 0.02933859 -0.00850831 0.02647026
v 0.03005220 -0.00737610 0.02780160
v 0.03022118 -0.00659385 0.02905626
v 0.02801795 -0.00998459 0.02384940
v 0.02844950 -0.00951995 0.02384940
v 0.02939318 -0.00859359 0.02571546
v 0.02283420 0.01312423 0.02263257
v 0.02830132 0.00933353 0.02619045
v 0.02748242 0.01034223 0.02455141
v 0.02625278 0.01112154 0.02406150
v 0.02645425 0.01121270 0.02343914
v 0.02468647 0.01219493 0.02291636
v 0.02409635 0.01247137 0.02291636
v 0.01853564 0.01416233 0.02452652
v 0.02858858 0.00853952 0.02733060
v 0.02782688 0.00943058 0.02634379
v 0.02253134 0.01332126 0.02167066
v 0.02292129 0.01316834 0.02198333
v 0.02659463 -0.01045218 0.02167066
v 0.02704568 -0.00979638 0.02185288
v 0.02747982 -0.00979638 0.02231890
v 0.02834811 -0.00941408 0.02329675
v 0.01853564 -0.01327829 0.02546453
v 0.02876016 -0.00642034 0.02982002
v 0.03022638 -0.00566750 0.02996938
v 0.02969344 -0.00581454 0.03008987
v 0.03017828 -0.00748785 0.02717924
v 0.03033816 -0.00674677 0.02851357
v 0.03088409 -0.00532636 0.02944660
v 0.03110117 -0.00467939 0.02992557
v 0.02933599 -0.00854948 0.02495570
v 0.03016139 -0.00746727 0.02617850
v 0.03017438 -0.00748491 0.02664850
v 0.02338793 0.01294484 0.02198333
v 0.02920990 0.00838660 0.02709062
v 0.02841310 0.00941882 0.02571546
v 0.02852229 0.00954233 0.02478243
v 0.02755131 0.01041281 0.02384940
v 0.02646075 0.01121859 0.02291636
v 0.02596031 0.01151267 0.02291636
v 0.02515311 0.01195967 0.02291636
v 0.01853564 0.01375944 0.02499453
v 0.02876016 0.00738084 0.02887703
v 0.02876016 0.00775138 0.02841001
v 0.02884335 0.00824838 0.02761738
v 0.02289010 0.01315363 0.02167066
v 0.02313317 0.01303894 0.02167066
v 0.02686110 -0.00979638 0.02167066
v 0.02755001 -0.00886415 0.02226812
v 0.02801665 -0.00886415 0.02276799
v 0.02840530 -0.00886415 0.02323501
v 0.02921120 -0.00793191 0.02434330
v 0.02945297 -0.00793191 0.02480932
v 0.01853564 -0.01263425 0.02596142
v 0.02876016 -0.00595569 0.03017849
v 0.03057343 -0.00504699 0.03012671
v 0.03008469 -0.00462645 0.03082375
v 0.02974154 -0.00509992 0.03060070
v 0.02946207 -0.00477055 0.03090441
v 0.03106477 -0.00552928 0.02851357
v 0.03077621 -0.00606450 0.02851357
v 0.03117006 -0.00485877 0.02944660
v 0.03138583 -0.00419709 0.02944660
v 0.03119086 -0.00419709 0.03007792
v 0.03114406 -0.00293255 0.03090142
v 0.03099848 -0.00355600 0.03074309
v 0.03066312 -0.00426767 0.03059074
v 0.03020038 -0.00699674 0.02611278
v 0.03114406 -0.00495288 0.02794399
v 0.03080090 -0.00606450 0.02758054
v 0.02409635 0.01257430 0.02198333
v 0.02943088 0.00760140 0.02823675
v 0.03022118 0.00659271 0.02905626
v 0.03005220 0.00737496 0.02780160
v 0.02933859 0.00850717 0.02647026
v 0.02887974 0.00906004 0.02571546
v 0.02939318 0.00859245 0.02571546
v 0.02844950 0.00951880 0.02384940
v 0.02801795 0.00998345 0.02384940
v 0.02747462 0.01037164 0.02291636
v 0.02644385 0.01120682 0.02241947
v 0.02472937 0.01222434 0.02198333
v 0.01853564 0.01329185 0.02544960
v 0.02876016 0.00691325 0.02935300
v 0.02969344 0.00628098 0.02967563
v 0.02969344 0.00673975 0.02920862
v 0.02440311 0.01234786 0.02167066
v 0.02694819 -0.00870240 0.02167066
v 0.02755001 0.00886300 0.02226812
v 0.02801665 0.00886300 0.02276799
v 0.02840530 0.00886300 0.02323501
v 0.02995081 -0.00699674 0.02564576
v 0.02921120 0.00793077 0.02434330
v 0.01853564 -0.01261661 0.02597436
v 0.02876016 -0.00523226 0.03064551
v 0.01853564 -0.01222548 0.02623824
v 0.03037586 -0.00400594 0.03098108
v 0.02974154 -0.00426767 0.03106772
v 0.02876016 -0.00476467 0.03089943
v 0.02969344 -0.00326486 0.03144710
v 0.02876016 -0.00419709 0.03111750
v 0.03120255 -0.00506463 0.02851357
v 0.03160550 -0.00326486 0.02944660
v 0.03156261 -0.00233263 0.03037964
v 0.03131954 -0.00325310 0.03041051
v 0.03066312 -0.00325310 0.03110057
v 0.03122335 -0.00233263 0.03098407
v 0.03062673 -0.00233263 0.03137740
v 0.03117006 -0.00419709 0.02791213
v 0.03143133 -0.00326486 0.02851357
v 0.03136633 -0.00419709 0.02851357
v 0.02467737 0.01219787 0.02167066
v 0.03088409 0.00532522 0.02944660
v 0.03033816 0.00674563 0.02851357
v 0.03022638 0.00566635 0.02996938
v 0.03110117 0.00467824 0.02992557
v 0.03017828 0.00748671 0.02717924
v 0.03017438 0.00748377 0.02664850
v 0.03016139 0.00746612 0.02617850
v 0.02933599 0.00854834 0.02495570
v 0.02834811 0.00941293 0.02329675
v 0.02737973 0.01028635 0.02241947
v 0.02609809 0.01108625 0.02167066
v 0.02579263 0.01137445 0.02167066
v 0.02596421 0.01142150 0.02205801
v 0.02487885 0.01207142 0.02167066
v 0.02519471 0.01193614 0.02198333
v 0.01853564 0.01292425 0.02573538
v 0.02876016 0.00641920 0.02982002
v 0.02969344 0.00581339 0.03008987
v 0.02689489 0.00886300 0.02167066
v 0.02688969 0.00916003 0.02167066
v 0.02686110 0.00979524 0.02167066
v 0.02704568 0.00979524 0.02185288
v 0.02747982 0.00979524 0.02231890
v 0.02995081 0.00699560 0.02564576
v 0.02945297 0.00793077 0.02480932
v 0.03020038 0.00699560 0.02611278
v 0.01853564 -0.00566455 0.02994947
v 0.01853564 -0.00599981 0.02976525
v 0.01853564 -0.00604980 0.02973737
v 0.01853564 -0.00415004 0.03064750
v 0.01853564 -0.00521167 0.03017750
v 0.01853564 -0.00523814 0.03016455
v 0.02969344 -0.00233263 0.03166219
v 0.01853564 -0.00322369 0.03094623
v 0.01853564 -0.00332074 0.03091934
v 0.01853564 -0.00365011 0.03082674
v 0.03173159 -0.00233263 0.02944660
v 0.03168869 -0.00139745 0.03037964
v 0.03130134 -0.00139745 0.03106871
v 0.03055134 -0.00137687 0.03157257
v 0.03018998 -0.00105044 0.03179164
v 0.03143653 -0.00233263 0.02851357
v 0.03117006 0.00419595 0.02791213
v 0.03181348 -0.00046522 0.02944660
v 0.03179138 -0.00139745 0.02944660
v 0.03077621 0.00606336 0.02851357
v 0.03117006 0.00485763 0.02944660
v 0.03008469 0.00462531 0.03082375
v 0.03057343 0.00504584 0.03012671
v 0.03066312 0.00426653 0.03059074
v 0.03099848 0.00355486 0.03074309
v 0.03114406 0.00293141 0.03090142
v 0.03119086 0.00419595 0.03007792
v 0.03138583 0.00419595 0.02944660
v 0.03106477 0.00552814 0.02851357
v 0.03080090 0.00606336 0.02758054
v 0.03114406 0.00495174 0.02794399
v 0.02679741 0.01005403 0.02167066
v 0.02659463 0.01045104 0.02167066
v 0.02636066 0.01075394 0.02167066
v 0.01853564 0.01261547 0.02597436
v 0.02876016 0.00595455 0.03017849
v 0.02946207 0.00476941 0.03090441
v 0.02974154 0.00509878 0.03060070
v 0.01853564 -0.00232969 0.03115235
v 0.02969344 -0.00168271 0.03176077
v 0.03174719 -0.00046522 0.03037964
v 0.03133904 -0.00046522 0.03111252
v 0.03069562 -0.00046522 0.03157854
v 0.02969344 -0.00121806 0.03180359
v 0.03022898 -0.00046522 0.03180657
v 0.02969344 -0.00046522 0.03184342
v 0.03143653 0.00233148 0.02851357
v 0.03143133 0.00326372 0.02851357
v 0.03181348 0.00046408 0.02944660
v 0.02974154 0.00426653 0.03106772
v 0.03037586 0.00400480 0.03098108
v 0.03066312 0.00325196 0.03110057
v 0.03062673 0.00233148 0.03137740
v 0.03122335 0.00233148 0.03098407
v 0.03156261 0.00233148 0.03037964
v 0.03131954 0.00325196 0.03041051
v 0.03120255 0.00506349 0.02851357
v 0.03160550 0.00326372 0.02944660
v 0.03136633 0.00419595 0.02851357
v 0.01853564 0.01256253 0.02600822
v 0.02876016 0.00523111 0.03064551
v 0.02876016 0.00476353 0.03089943
v 0.02876016 0.00419595 0.03111750
v 0.02969344 0.00326372 0.03144710
v 0.01853564 -0.00139745 0.03129077
v 0.02915011 -0.00119454 0.03179960
v 0.03174719 0.00046408 0.03037964
v 0.03133904 0.00046408 0.03111252
v 0.03069562 0.00046408 0.03157854
v 0.03022898 0.00046408 0.03180657
v 0.01853564 -0.00046522 0.03135848
v 0.02969344 0.00046408 0.03184342
v 0.03173159 0.00233148 0.02944660
v 0.03179138 0.00139631 0.02944660
v 0.02969344 0.00233148 0.03166219
v 0.03018998 0.00104930 0.03179164
v 0.03055134 0.00137572 0.03157257
v 0.03130134 0.00139631 0.03106871
v 0.03168869 0.00139631 0.03037964
v 0.01853564 0.01181263 0.02646926
v 0.01853564 0.00603395 0.02974633
v 0.01853564 0.00518994 0.03018746
v 0.01853564 0.00420478 0.03062460
v 0.01853564 0.00414890 0.03064750
v 0.01853564 0.00599866 0.02976525
v 0.01853564 0.00527817 0.03014364
v 0.01853564 0.00521053 0.03017750
v 0.01853564 0.00401656 0.03069331
v 0.01853564 0.00331959 0.03091934
v 0.01853564 0.00325490 0.03093827
v 0.01853564 0.00322255 0.03094623
v 0.01853564 0.00236972 0.03114439
v 0.01853564 -0.00135922 0.03129375
v 0.01853564 0.00046408 0.03135848
v 0.02969344 0.00121692 0.03180359
v 0.02915011 0.00119339 0.03179960
v 0.01853564 0.00232854 0.03115235
v 0.02969344 0.00168157 0.03176077
v 0.01853564 0.00139631 0.03129077
v 0.01853564 0.00143454 0.03128579
f 1 2 6
f 1 6 11
f 1 11 20
f 1 20 32
f 1 32 53
f 1 53 74
f 1 74 102
f 1 102 133
f 1 133 173
f 1 173 175
f 1 175 220
f 1 220 219
f 1 219 218
f 1 218 223
f 1 223 222
f 1 222 221
f 1 221 227
f 1 227 226
f 1 226 225
f 1 225 256
f 1 256 282
f 1 282 310
f 1 310 288
f 1 288 311
f 1 311 316
f 1 316 317
f 1 317 314
f 1 314 309
f 1 309 308
f 1 308 307
f 1 307 306
f 1 306 305
f 1 305 301
f 1 301 300
f 1 300 299
f 1 299 304
f 1 304 303
f 1 303 302
f 1 302 298
f 1 298 297
f 1 297 277
f 1 277 252
f 1 252 207
f 1 207 162
f 1 162 121
f 1 121 93
f 1 93 66
f 1 66 44
f 1 44 24
f 1 24 14
f 1 14 8
f 1 8 3
f 1 3 4
f 1 4 5
f 1 5 2
f 2 5 7
f 2 7 6
f 3 8 15
f 3 15 26
f 3 26 46
f 3 46 68
f 3 68 96
f 3 96 125
f 3 125 126
f 3 126 166
f 3 166 191
f 3 191 205
f 3 205 203
f 3 203 202
f 3 202 251
f 3 251 250
f 3 250 249
f 3 249 212
f 3 212 211
f 3 211 210
f 3 210 167
f 3 167 127
f 3 127 98
f 3 98 70
f 3 70 48
f 3 48 29
f 3 29 18
f 3 18 10
f 3 10 9
f 3 9 4
f 4 9 5
f 5 9 10
f 5 10 7
f 6 7 12
f 6 12 13
f 6 13 11
f 7 10 12
f 8 14 15
f 10 16 17
f 10 17 12
f 10 18 19
f 10 19 16
f 11 13 21
f 11 21 22
f 11 22 20
f 12 17 23
f 12 23 13
f 13 23 21
f 14 24 25
f 14 25 15
f 15 25 26
f 16 23 17
f 16 19 23
f 18 27 28
f 18 28 19
f 18 29 30
f 18 30 27
f 19 28 31
f 19 31 23
f 20 22 33
f 20 33 34
f 20 34 35
f 20 35 32
f 21 23 31
f 21 31 36
f 21 36 37
f 21 37 38
f 21 38 39
f 21 39 22
f 22 40 33
f 22 39 40
f 24 41 42
f 24 42 43
f 24 43 25
f 24 44 41
f 25 43 26
f 26 45 46
f 26 43 42
f 26 42 45
f 27 31 28
f 27 30 47
f 27 47 37
f 27 37 31
f 29 48 49
f 29 49 50
f 29 50 51
f 29 51 52
f 29 52 30
f 30 52 47
f 31 37 36
f 32 35 54
f 32 54 55
f 32 55 53
f 33 40 56
f 33 56 57
f 33 57 35
f 33 35 34
f 35 57 58
f 35 58 54
f 37 47 38
f 38 47 59
f 38 59 60
f 38 60 61
f 38 61 40
f 38 40 39
f 40 61 62
f 40 62 56
f 41 63 42
f 41 44 64
f 41 64 65
f 41 65 63
f 42 63 45
f 44 66 64
f 45 67 46
f 45 63 67
f 46 67 69
f 46 69 68
f 47 52 59
f 48 70 71
f 48 71 50
f 48 50 49
f 50 60 52
f 50 52 51
f 50 71 72
f 50 72 73
f 50 73 61
f 50 61 60
f 52 60 59
f 53 55 74
f 54 58 75
f 54 75 76
f 54 76 55
f 55 77 74
f 55 76 78
f 55 78 77
f 56 79 80
f 56 80 57
f 56 62 79
f 57 81 82
f 57 82 75
f 57 75 58
f 57 80 81
f 61 73 83
f 61 83 62
f 62 83 84
f 62 84 85
f 62 85 79
f 63 65 86
f 63 86 69
f 63 69 67
f 64 87 88
f 64 88 89
f 64 89 65
f 64 66 87
f 65 89 90
f 65 90 91
f 65 91 92
f 65 92 86
f 66 93 94
f 66 94 95
f 66 95 87
f 68 69 96
f 69 86 97
f 69 97 96
f 70 98 71
f 71 98 72
f 72 84 73
f 72 98 99
f 72 99 100
f 72 100 101
f 72 101 84
f 73 84 83
f 74 77 102
f 75 82 76
f 76 82 78
f 77 78 103
f 77 103 102
f 78 82 104
f 78 104 105
f 78 105 103
f 79 85 80
f 80 85 106
f 80 106 81
f 81 106 107
f 81 107 82
f 82 107 108
f 82 108 109
f 82 109 104
f 84 101 110
f 84 110 85
f 85 110 111
f 85 111 112
f 85 112 106
f 86 113 97
f 86 92 91
f 86 91 113
f 87 95 94
f 87 94 114
f 87 114 115
f 87 115 88
f 88 115 116
f 88 116 117
f 88 117 90
f 88 90 89
f 90 118 119
f 90 119 120
f 90 120 91
f 90 117 118
f 91 120 113
f 93 121 122
f 93 122 123
f 93 123 94
f 94 123 124
f 94 124 114
f 96 97 125
f 97 113 126
f 97 126 125
f 98 127 99
f 99 127 128
f 99 128 129
f 99 129 100
f 100 129 130
f 100 130 101
f 101 130 131
f 101 131 132
f 101 132 110
f 102 103 133
f 103 105 134
f 103 134 133
f 104 109 135
f 104 135 136
f 104 136 105
f 105 136 137
f 105 137 138
f 105 138 134
f 106 112 139
f 106 139 140
f 106 140 107
f 107 140 108
f 108 140 141
f 108 141 109
f 109 141 142
f 109 142 143
f 109 143 144
f 109 144 145
f 109 145 146
f 109 146 135
f 110 132 111
f 111 132 147
f 111 147 148
f 111 148 149
f 111 149 139
f 111 139 112
f 113 150 126
f 113 120 150
f 114 124 151
f 114 151 152
f 114 152 153
f 114 153 154
f 114 154 115
f 115 154 155
f 115 155 116
f 116 156 157
f 116 157 158
f 116 158 117
f 116 155 156
f 117 158 159
f 117 159 160
f 117 160 118
f 118 160 161
f 118 161 119
f 119 161 120
f 120 161 150
f 121 162 163
f 121 163 122
f 122 163 164
f 122 164 165
f 122 165 123
f 123 165 151
f 123 151 124
f 126 150 166
f 127 167 128
f 128 167 168
f 128 168 169
f 128 169 129
f 129 169 170
f 129 170 130
f 130 170 172
f 130 172 131
f 131 171 147
f 131 147 132
f 131 172 215
f 131 215 171
f 133 134 173
f 134 138 174
f 134 174 175
f 134 175 173
f 135 146 136
f 136 138 137
f 136 146 176
f 136 176 177
f 136 177 138
f 138 178 174
f 138 177 179
f 138 179 180
f 138 180 178
f 139 149 181
f 139 181 142
f 139 142 141
f 139 141 140
f 142 181 182
f 142 182 183
f 142 183 143
f 143 183 184
f 143 184 144
f 144 185 145
f 144 184 183
f 144 183 186
f 144 186 187
f 144 187 185
f 145 185 176
f 145 176 146
f 147 171 188
f 147 188 148
f 148 188 189
f 148 189 190
f 148 190 181
f 148 181 149
f 150 161 191
f 150 191 166
f 151 165 152
f 152 192 193
f 152 193 153
f 152 165 164
f 152 164 194
f 152 194 195
f 152 195 192
f 153 196 154
f 153 193 196
f 154 156 155
f 154 196 156
f 156 196 197
f 156 197 198
f 156 198 199
f 156 199 157
f 157 199 200
f 157 200 201
f 157 201 159
f 157 159 158
f 159 201 160
f 160 202 203
f 160 203 204
f 160 204 205
f 160 205 206
f 160 206 161
f 160 201 202
f 161 206 191
f 162 207 208
f 162 208 163
f 163 208 164
f 164 208 209
f 164 209 194
f 167 210 168
f 168 210 211
f 168 211 212
f 168 212 213
f 168 213 169
f 169 213 214
f 169 214 170
f 170 214 200
f 170 200 172
f 171 215 234
f 171 234 188
f 172 200 216
f 172 216 217
f 172 217 215
f 174 178 218
f 174 218 219
f 174 219 220
f 174 220 175
f 176 185 179
f 176 179 177
f 178 180 221
f 178 221 222
f 178 222 223
f 178 223 218
f 179 185 187
f 179 187 224
f 179 224 225
f 179 225 226
f 179 226 227
f 179 227 180
f 180 227 221
f 181 190 182
f 182 190 228
f 182 228 183
f 183 228 229
f 183 229 186
f 186 229 230
f 186 230 231
f 186 231 187
f 187 231 232
f 187 232 224
f 188 233 189
f 188 234 264
f 188 264 233
f 189 233 235
f 189 235 236
f 189 236 228
f 189 228 190
f 191 206 205
f 192 237 193
f 192 195 238
f 192 238 237
f 193 237 196
f 194 209 239
f 194 239 240
f 194 240 195
f 195 240 241
f 195 241 242
f 195 242 243
f 195 243 244
f 195 244 245
f 195 245 238
f 196 246 197
f 196 237 246
f 197 246 198
f 198 217 216
f 198 216 199
f 198 246 247
f 198 247 248
f 198 248 217
f 199 216 200
f 200 214 201
f 201 214 249
f 201 249 250
f 201 250 251
f 201 251 202
f 203 205 204
f 207 252 208
f 208 253 209
f 208 252 253
f 209 253 254
f 209 254 255
f 209 255 239
f 212 249 213
f 213 249 214
f 215 217 234
f 217 248 234
f 224 256 225
f 224 232 257
f 224 257 256
f 228 236 229
f 229 236 258
f 229 258 259
f 229 259 230
f 230 259 260
f 230 260 231
f 231 260 232
f 232 261 257
f 232 260 262
f 232 262 263
f 232 263 261
f 233 264 266
f 233 266 235
f 234 248 265
f 234 265 264
f 235 258 236
f 235 266 284
f 235 284 258
f 237 238 246
f 238 245 246
f 239 255 254
f 239 254 267
f 239 267 268
f 239 268 241
f 239 241 240
f 241 268 242
f 242 269 243
f 242 268 269
f 243 270 271
f 243 271 272
f 243 272 273
f 243 273 244
f 243 269 270
f 244 273 272
f 244 272 245
f 245 274 246
f 245 272 275
f 245 275 274
f 246 274 247
f 247 274 248
f 248 274 276
f 248 276 265
f 252 277 278
f 252 278 253
f 253 278 254
f 254 278 279
f 254 279 280
f 254 280 281
f 254 281 267
f 256 257 282
f 257 261 283
f 257 283 282
f 258 284 285
f 258 285 259
f 259 285 286
f 259 286 260
f 260 286 287
f 260 287 262
f 261 263 283
f 262 287 289
f 262 289 263
f 263 288 283
f 263 289 311
f 263 311 288
f 264 265 266
f 265 290 291
f 265 291 266
f 265 276 290
f 266 291 284
f 267 281 268
f 268 281 269
f 269 281 270
f 270 281 292
f 270 292 293
f 270 293 294
f 270 294 271
f 271 294 295
f 271 295 296
f 271 296 272
f 272 290 275
f 272 296 290
f 274 275 276
f 275 290 276
f 277 297 278
f 278 298 279
f 278 297 298
f 279 299 300
f 279 300 301
f 279 301 280
f 279 298 302
f 279 302 303
f 279 303 304
f 279 304 299
f 280 301 305
f 280 305 306
f 280 306 281
f 281 306 307
f 281 307 308
f 281 308 309
f 281 309 292
f 282 283 310
f 283 288 310
f 284 291 296
f 284 296 285
f 285 296 295
f 285 295 286
f 286 295 294
f 286 294 293
f 286 293 287
f 287 293 289
f 289 293 312
f 289 312 313
f 289 313 311
f 290 296 291
f 292 309 314
f 292 314 315
f 292 315 293
f 293 315 312
f 311 313 316
f 312 315 313
f 313 315 316
f 314 317 315
f 315 317 316

