# https://github.com/mikedh/trimesh
v 0.00170049 0.01565653 -0.00390713
v 0.00076359 0.01564426 -0.00390713
v 0.00170049 0.01552779 0.00430017
v 0.00257018 0.01550633 0.00430017
v 0.00340625 0.01560135 -0.00390713
v -0.00017752 0.01556150 -0.00390713
v 0.00076359 0.01543889 0.00430017
v 0.00263320 0.01550326 0.00430017
v 0.00356590 0.01559522 -0.00390713
v -0.00111443 0.01544809 -0.00390713
v -0.00016492 0.01530096 0.00430017
v -0.00203453 0.01533161 -0.00390713
v 0.00350708 0.01540824 0.00430017
v 0.00453642 0.01551246 -0.00390713
v 0.00423392 0.01554005 -0.00390713
v -0.00293362 0.01516916 -0.00390713
v -0.00107661 0.01509253 0.00430017
v 0.00356590 0.01539905 0.00430017
v 0.00449860 0.01523659 0.00430017
v 0.00522964 0.01538985 -0.00390713
v -0.00577375 0.01443657 -0.00390713
v -0.00158498 0.01493620 0.00430017
v -0.00654680 0.01420055 -0.00390713
v 0.00532207 0.01500364 0.00430017
v 0.00761602 0.01489635 -0.00390713
v 0.00722109 0.01499751 -0.00390713
v 0.00608672 0.01522433 -0.00390713
v -0.00204293 0.01477988 0.00430017
v -0.00296303 0.01443044 0.00430017
v -0.00209335 0.01476148 0.00430017
v -0.00949616 0.01304497 -0.00390713
v 0.00537669 0.01498524 0.00430017
v 0.00823782 0.01470631 -0.00390713
v 0.00810758 0.01474616 -0.00390713
v -0.00301765 0.01440898 0.00430017
v -0.00994991 0.01284573 -0.00390713
v -0.00367726 0.01412392 0.00430017
v 0.00628839 0.01465420 0.00430017
v 0.00883862 0.01449175 -0.00390713
v -0.01042886 0.01262503 -0.00390713
v -0.00411841 0.01389709 0.00430017
v -0.01321017 0.01119664 -0.00390713
v 0.00729252 0.01417296 0.00430017
v 0.01104014 0.01360896 -0.00390713
v 0.01076705 0.01373157 -0.00390713
v 0.01033851 0.01391242 -0.00390713
v 0.01002761 0.01404116 -0.00390713
v -0.00416462 0.01387257 0.00430017
v -0.01382777 0.01085027 -0.00390713
v -0.00502170 0.01340666 0.00430017
v -0.00490406 0.01347103 0.00430017
v 0.00815380 0.01363962 0.00430017
v 0.01163673 0.01327486 -0.00390713
v -0.01414287 0.01066636 -0.00390713
v -0.00545864 0.01315838 0.00430017
v 0.00883442 0.01319823 0.00430017
v 0.01342652 0.01213153 -0.00390713
v 0.01268708 0.01260971 -0.00390713
v -0.01688217 0.00875674 -0.00390713
v -0.00668964 0.01236449 0.00430017
v -0.00590819 0.01288557 0.00430017
v -0.00579475 0.01295607 0.00430017
v 0.00933438 0.01283653 0.00430017
v 0.01378783 0.01186486 -0.00390713
v -0.01706703 0.00861267 -0.00390713
v -0.00818953 0.01127021 0.00430017
v -0.00766436 0.01166256 0.00430017
v -0.00709298 0.01207942 0.00430017
v 0.00983014 0.01239821 0.00430017
v 0.01423738 0.01150623 -0.00390713
v -0.01791150 0.00795059 -0.00390713
v -0.00855085 0.01098208 0.00430017
v 0.00985535 0.01237368 0.00430017
v 0.01448526 0.01124875 -0.00390713
v 0.01077545 0.01145106 0.00430017
v -0.01898285 0.00702489 -0.00390713
v -0.00920626 0.01042421 0.00430017
v -0.00864748 0.01090238 0.00430017
v 0.01502304 0.01065410 -0.00390713
v 0.01082167 0.01140201 0.00430017
v -0.02005000 0.00609920 -0.00390713
v -0.00965161 0.01002573 0.00430017
v 0.01567845 0.00990006 -0.00390713
v 0.01126281 0.01090851 0.00430017
v -0.02096170 0.00517657 -0.00390713
v -0.01112629 0.00864332 0.00430017
v -0.01068515 0.00908471 0.00430017
v -0.01019359 0.00953837 0.00430017
v 0.01572466 0.00984489 -0.00390713
v 0.01159892 0.01046712 0.00430017
v 0.01616161 0.00931460 -0.00390713
v -0.02252881 0.00319951 -0.00390713
v -0.01285725 0.00663868 0.00430017
v -0.01256736 0.00700037 0.00430017
v -0.01200018 0.00765326 0.00430017
v -0.01161365 0.00809772 0.00430017
v 0.01164514 0.01039969 0.00430017
v 0.01631286 0.00908471 -0.00390713
v -0.02304558 0.00233206 -0.00390713
v -0.01363871 0.00549842 0.00430017
v -0.01327319 0.00606855 0.00430017
v -0.01323958 0.00611759 0.00430017
v 0.01203586 0.00979278 0.00430017
v 0.01643050 0.00889467 -0.00390713
v 0.01238038 0.00925637 0.00430017
v 0.01267027 0.00879352 0.00430017
v -0.02368839 0.00040404 -0.00390713
v -0.01483190 0.00323936 0.00430017
v -0.01462183 0.00370527 0.00430017
v -0.01437815 0.00417731 0.00430017
v -0.01386138 0.00510301 0.00430017
v 0.01658595 0.00862800 -0.00390713
v 0.01310301 0.00792913 0.00430017
v 0.01750605 0.00700957 -0.00390713
v 0.01737581 0.00724865 -0.00390713
v 0.01696407 0.00797817 -0.00390713
v -0.02368839 -0.00040518 -0.00390713
v -0.01547891 0.00046534 0.00430017
v -0.01531506 0.00133280 0.00430017
v -0.01510499 0.00233206 0.00430017
v -0.01509238 0.00238416 0.00430017
v 0.01351895 0.00691454 0.00430017
v 0.01795559 0.00606242 -0.00390713
v 0.01792198 0.00613598 -0.00390713
v -0.02304558 -0.00233320 -0.00390713
v -0.01483190 -0.00324050 0.00430017
v -0.01510499 -0.00233320 0.00430017
v -0.01531506 -0.00133394 0.00430017
v -0.01547891 -0.00046648 0.00430017
v 0.01383825 0.00606242 0.00430017
v 0.01809424 0.00569766 -0.00390713
v -0.02252881 -0.00320065 -0.00390713
v -0.01386979 -0.00509188 0.00430017
v -0.01436555 -0.00419684 0.00430017
v -0.01439075 -0.00415087 0.00430017
v 0.01411134 0.00513059 0.00430017
v 0.01863622 0.00406390 -0.00390713
v 0.01859420 0.00419570 -0.00390713
v 0.01832531 0.00502024 -0.00390713
v -0.02096170 -0.00517771 -0.00390713
v -0.01264719 -0.00688503 0.00430017
v -0.01326059 -0.00608808 0.00430017
v 0.01436762 0.00404551 0.00430017
v 0.01886309 0.00326388 -0.00390713
v -0.02041132 -0.00577543 -0.00390713
v -0.01112629 -0.00864446 0.00430017
v -0.01200018 -0.00765440 0.00430017
v -0.01251274 -0.00705055 0.00430017
v 0.01453568 0.00326388 0.00430017
v 0.01898073 0.00258340 -0.00390713
v 0.01454408 0.00321790 0.00430017
v -0.02005000 -0.00610034 -0.00390713
v -0.01019359 -0.00953951 0.00430017
v -0.01065574 -0.00910731 0.00430017
v 0.01902274 0.00233206 -0.00390713
v 0.01466592 0.00233206 0.00430017
v -0.01841147 -0.00752566 -0.00390713
v -0.00920626 -0.01042535 0.00430017
v -0.00924408 -0.01039163 0.00430017
v 0.01913198 0.00136958 -0.00390713
v 0.01467012 0.00228301 0.00430017
v 0.01923281 0.00046534 -0.00390713
v -0.01791150 -0.00795173 -0.00390713
v -0.00860127 -0.01094031 0.00430017
v 0.01480037 0.00046534 0.00430017
v 0.01923281 -0.00046648 -0.00390713
v -0.01738213 -0.00838699 -0.00390713
v -0.00774839 -0.01159933 0.00430017
v 0.01480037 -0.00046648 0.00430017
v 0.01907736 -0.00186422 -0.00390713
v 0.01466592 -0.00233320 0.00430017
v 0.01466172 -0.00237917 0.00430017
v -0.01688217 -0.00875788 -0.00390713
v -0.00763915 -0.01168209 0.00430017
v 0.01902274 -0.00233320 -0.00390713
v 0.01453568 -0.00326502 0.00430017
v -0.01678133 -0.00883144 -0.00390713
v -0.00683249 -0.01226448 0.00430017
v 0.01886309 -0.00326502 -0.00390713
v 0.01452728 -0.00331406 0.00430017
v -0.01465124 -0.01032113 -0.00390713
v -0.00669384 -0.01236256 0.00430017
v 0.01859420 -0.00419684 -0.00390713
v 0.01436762 -0.00404665 0.00430017
v 0.01426679 -0.00448804 0.00430017
v 0.01411134 -0.00513173 0.00430017
v 0.01409873 -0.00517771 0.00430017
v -0.01414287 -0.01066750 -0.00390713
v -0.00585777 -0.01291737 0.00430017
v 0.01853538 -0.00437769 -0.00390713
v 0.01383825 -0.00606356 0.00430017
v -0.01407985 -0.01070735 -0.00390713
v -0.00565611 -0.01303691 0.00430017
v 0.01832531 -0.00502138 -0.00390713
v 0.01351895 -0.00691568 0.00430017
v 0.01795559 -0.00606356 -0.00390713
v 0.01821608 -0.00533710 -0.00390713
v -0.01338663 -0.01111196 -0.00390713
v -0.00519816 -0.01330665 0.00430017
v 0.01332148 -0.00740305 0.00430017
v 0.01750605 -0.00701071 -0.00390713
v 0.01310301 -0.00793027 0.00430017
v 0.01307780 -0.00798544 0.00430017
v -0.01086160 -0.01240854 -0.00390713
v -0.00367726 -0.01412506 0.00430017
v -0.00414361 -0.01388291 0.00430017
v -0.00490406 -0.01347217 0.00430017
v 0.01737581 -0.00724979 -0.00390713
v 0.01267027 -0.00879466 0.00430017
v -0.01029862 -0.01269667 -0.00390713
v -0.00296303 -0.01443158 0.00430017
v -0.00963901 -0.01298787 -0.00390713
v 0.01688845 -0.00810805 -0.00390713
v 0.01239718 -0.00923605 0.00430017
v 0.01631286 -0.00908585 -0.00390713
v 0.01650192 -0.00877320 -0.00390713
v -0.00291261 -0.01445304 0.00430017
v -0.00949616 -0.01304611 -0.00390713
v 0.01201065 -0.00983683 0.00430017
v 0.01593473 -0.00958855 -0.00390713
v 0.01161573 -0.01044374 0.00430017
v -0.00667704 -0.01415265 -0.00390713
v -0.00206814 -0.01477182 0.00430017
v -0.00863488 -0.01338941 -0.00390713
v -0.00837859 -0.01349056 -0.00390713
v 0.01572466 -0.00984603 -0.00390713
v 0.01127962 -0.01088820 0.00430017
v 0.01124180 -0.01093724 0.00430017
v -0.00654680 -0.01420169 -0.00390713
v -0.00199671 -0.01479634 0.00430017
v 0.01490540 -0.01078092 -0.00390713
v 0.01079646 -0.01142767 0.00430017
v -0.00577375 -0.01443771 -0.00390713
v -0.00107661 -0.01509367 0.00430017
v 0.01437603 -0.01135411 -0.00390713
v 0.00985535 -0.01237482 0.00430017
v -0.00550066 -0.01452047 -0.00390713
v -0.00016492 -0.01530210 0.00430017
v -0.00302185 -0.01515497 -0.00390713
v 0.01382565 -0.01183535 -0.00390713
v 0.00935539 -0.01281928 0.00430017
v 0.00933438 -0.01283767 0.00430017
v 0.00076359 -0.01544003 0.00430017
v -0.00276977 -0.01520095 -0.00390713
v -0.00203453 -0.01533275 -0.00390713
v 0.01373321 -0.01189972 -0.00390713
v 0.00931758 -0.01284993 0.00430017
v 0.00887223 -0.01317178 0.00430017
v -0.00176984 -0.01536954 -0.00390713
v -0.00086655 -0.01548908 -0.00390713
v -0.00000947 -0.01558104 -0.00390713
v 0.00082661 -0.01544617 0.00430017
v 0.01312822 -0.01231352 -0.00390713
v 0.00815380 -0.01364076 0.00430017
v 0.01283833 -0.01250969 -0.00390713
v 0.00076359 -0.01564540 -0.00390713
v 0.00170049 -0.01552893 0.00430017
v 0.00767484 -0.01394115 0.00430017
v 0.01174597 -0.01320243 -0.00390713
v 0.00086022 -0.01564847 -0.00390713
v 0.00170049 -0.01565767 -0.00390713
v 0.00263320 -0.01550440 0.00430017
v 0.00729252 -0.01417410 0.00430017
v 0.01104014 -0.01361010 -0.00390713
v 0.00356590 -0.01559636 -0.00390713
v 0.00453642 -0.01551360 -0.00390713
v 0.00356590 -0.01540019 0.00430017
v 0.00628839 -0.01465534 0.00430017
v 0.01044354 -0.01386452 -0.00390713
v 0.00543131 -0.01535114 -0.00390713
v 0.00449860 -0.01523773 0.00430017
v 0.00361212 -0.01539406 0.00430017
v 0.00571700 -0.01486684 0.00430017
v 0.00823782 -0.01470745 -0.00390713
v 0.00911171 -0.01437947 -0.00390713
v 0.01023768 -0.01395034 -0.00390713
v 0.00705304 -0.01502623 -0.00390713
v 0.00531367 -0.01500784 0.00430017
v 0.00738495 -0.01495573 -0.00390713
v 0.00534308 -0.01499865 0.00430017
v 0.00792692 -0.01480247 -0.00390713
f 1 2 3
f 1 3 4
f 1 4 5
f 1 5 9
f 1 9 15
f 1 15 14
f 1 14 20
f 1 20 27
f 1 27 26
f 1 26 25
f 1 25 34
f 1 34 33
f 1 33 39
f 1 39 47
f 1 47 46
f 1 46 45
f 1 45 44
f 1 44 53
f 1 53 58
f 1 58 57
f 1 57 64
f 1 64 70
f 1 70 74
f 1 74 79
f 1 79 83
f 1 83 89
f 1 89 91
f 1 91 98
f 1 98 104
f 1 104 112
f 1 112 116
f 1 116 115
f 1 115 114
f 1 114 124
f 1 124 123
f 1 123 131
f 1 131 139
f 1 139 138
f 1 138 137
f 1 137 144
f 1 144 150
f 1 150 155
f 1 155 160
f 1 160 162
f 1 162 166
f 1 166 170
f 1 170 175
f 1 175 179
f 1 179 183
f 1 183 190
f 1 190 194
f 1 194 197
f 1 197 196
f 1 196 201
f 1 201 208
f 1 208 213
f 1 213 216
f 1 216 215
f 1 215 220
f 1 220 226
f 1 226 231
f 1 231 235
f 1 235 240
f 1 240 246
f 1 246 253
f 1 253 255
f 1 255 259
f 1 259 264
f 1 264 269
f 1 269 276
f 1 276 275
f 1 275 274
f 1 274 281
f 1 281 279
f 1 279 277
f 1 277 270
f 1 270 266
f 1 266 265
f 1 265 261
f 1 261 260
f 1 260 256
f 1 256 251
f 1 251 250
f 1 250 249
f 1 249 245
f 1 245 244
f 1 244 239
f 1 239 237
f 1 237 233
f 1 233 229
f 1 229 222
f 1 222 225
f 1 225 224
f 1 224 218
f 1 218 212
f 1 212 210
f 1 210 204
f 1 204 198
f 1 198 192
f 1 192 188
f 1 188 181
f 1 181 177
f 1 177 173
f 1 173 167
f 1 167 163
f 1 163 157
f 1 157 152
f 1 152 145
f 1 145 140
f 1 140 132
f 1 132 125
f 1 125 117
f 1 117 107
f 1 107 99
f 1 99 92
f 1 92 85
f 1 85 81
f 1 81 76
f 1 76 71
f 1 71 65
f 1 65 59
f 1 59 54
f 1 54 49
f 1 49 42
f 1 42 40
f 1 40 36
f 1 36 31
f 1 31 23
f 1 23 21
f 1 21 16
f 1 16 12
f 1 12 10
f 1 10 6
f 1 6 2
f 2 6 3
f 3 6 7
f 3 7 11
f 3 11 17
f 3 17 22
f 3 22 28
f 3 28 30
f 3 30 29
f 3 29 35
f 3 35 37
f 3 37 41
f 3 41 48
f 3 48 51
f 3 51 50
f 3 50 55
f 3 55 62
f 3 62 61
f 3 61 60
f 3 60 68
f 3 68 67
f 3 67 66
f 3 66 72
f 3 72 78
f 3 78 77
f 3 77 82
f 3 82 88
f 3 88 87
f 3 87 86
f 3 86 96
f 3 96 95
f 3 95 94
f 3 94 93
f 3 93 102
f 3 102 101
f 3 101 100
f 3 100 111
f 3 111 110
f 3 110 109
f 3 109 108
f 3 108 121
f 3 121 120
f 3 120 119
f 3 119 118
f 3 118 129
f 3 129 128
f 3 128 127
f 3 127 126
f 3 126 135
f 3 135 134
f 3 134 133
f 3 133 142
f 3 142 141
f 3 141 148
f 3 148 147
f 3 147 146
f 3 146 154
f 3 154 153
f 3 153 159
f 3 159 158
f 3 158 164
f 3 164 168
f 3 168 174
f 3 174 178
f 3 178 182
f 3 182 189
f 3 189 193
f 3 193 199
f 3 199 207
f 3 207 206
f 3 206 205
f 3 205 211
f 3 211 217
f 3 217 223
f 3 223 230
f 3 230 234
f 3 234 238
f 3 238 243
f 3 243 252
f 3 252 257
f 3 257 262
f 3 262 267
f 3 267 272
f 3 272 271
f 3 271 278
f 3 278 280
f 3 280 273
f 3 273 268
f 3 268 263
f 3 263 258
f 3 258 254
f 3 254 248
f 3 248 247
f 3 247 242
f 3 242 241
f 3 241 236
f 3 236 232
f 3 232 228
f 3 228 227
f 3 227 221
f 3 221 219
f 3 219 214
f 3 214 209
f 3 209 203
f 3 203 202
f 3 202 200
f 3 200 195
f 3 195 191
f 3 191 187
f 3 187 186
f 3 186 185
f 3 185 184
f 3 184 180
f 3 180 176
f 3 176 172
f 3 172 171
f 3 171 169
f 3 169 165
f 3 165 161
f 3 161 156
f 3 156 151
f 3 151 149
f 3 149 143
f 3 143 136
f 3 136 130
f 3 130 122
f 3 122 113
f 3 113 106
f 3 106 105
f 3 105 103
f 3 103 97
f 3 97 90
f 3 90 84
f 3 84 80
f 3 80 75
f 3 75 73
f 3 73 69
f 3 69 63
f 3 63 56
f 3 56 52
f 3 52 43
f 3 43 38
f 3 38 32
f 3 32 24
f 3 24 19
f 3 19 18
f 3 18 13
f 3 13 8
f 3 8 4
f 4 8 9
f 4 9 5
f 6 10 7
f 7 10 12
f 7 12 11
f 8 13 14
f 8 14 15
f 8 15 9
f 11 12 16
f 11 16 17
f 13 18 14
f 14 19 20
f 14 18 19
f 16 21 17
f 17 21 23
f 17 23 22
f 19 24 25
f 19 25 26
f 19 26 27
f 19 27 20
f 22 23 28
f 23 29 30
f 23 30 28
f 23 31 29
f 24 32 33
f 24 33 34
f 24 34 25
f 29 31 35
f 31 36 37
f 31 37 35
f 32 38 39
f 32 39 33
f 36 40 37
f 37 40 42
f 37 42 41
f 38 43 44
f 38 44 45
f 38 45 46
f 38 46 47
f 38 47 39
f 41 42 48
f 42 49 50
f 42 50 51
f 42 51 48
f 43 52 53
f 43 53 44
f 49 54 55
f 49 55 50
f 52 56 57
f 52 57 58
f 52 58 53
f 54 59 60
f 54 60 61
f 54 61 62
f 54 62 55
f 56 63 57
f 57 63 64
f 59 65 66
f 59 66 67
f 59 67 68
f 59 68 60
f 63 69 70
f 63 70 64
f 65 71 66
f 66 71 72
f 69 73 70
f 70 73 75
f 70 75 74
f 71 76 77
f 71 77 78
f 71 78 72
f 74 75 80
f 74 80 79
f 76 81 77
f 77 81 82
f 79 80 84
f 79 84 83
f 81 85 86
f 81 86 87
f 81 87 88
f 81 88 82
f 83 84 89
f 84 90 91
f 84 91 89
f 85 92 93
f 85 93 94
f 85 94 95
f 85 95 96
f 85 96 86
f 90 97 91
f 91 97 98
f 92 99 100
f 92 100 101
f 92 101 102
f 92 102 93
f 97 103 98
f 98 103 105
f 98 105 106
f 98 106 104
f 99 107 108
f 99 108 109
f 99 109 110
f 99 110 111
f 99 111 100
f 104 106 112
f 106 113 114
f 106 114 115
f 106 115 116
f 106 116 112
f 107 117 129
f 107 129 118
f 107 118 119
f 107 119 120
f 107 120 121
f 107 121 108
f 113 122 123
f 113 123 124
f 113 124 114
f 117 125 126
f 117 126 127
f 117 127 128
f 117 128 129
f 122 130 131
f 122 131 123
f 125 132 133
f 125 133 134
f 125 134 135
f 125 135 126
f 130 136 137
f 130 137 138
f 130 138 139
f 130 139 131
f 132 140 141
f 132 141 142
f 132 142 133
f 136 143 144
f 136 144 137
f 140 145 146
f 140 146 147
f 140 147 148
f 140 148 141
f 143 149 144
f 144 149 151
f 144 151 150
f 145 152 153
f 145 153 154
f 145 154 146
f 150 151 155
f 151 156 155
f 152 157 158
f 152 158 159
f 152 159 153
f 155 156 160
f 156 161 162
f 156 162 160
f 157 163 158
f 158 163 164
f 161 165 162
f 162 165 169
f 162 169 166
f 163 167 164
f 164 167 168
f 166 169 171
f 166 171 172
f 166 172 170
f 167 173 174
f 167 174 168
f 170 172 175
f 172 176 175
f 173 177 174
f 174 177 178
f 175 176 180
f 175 180 179
f 177 181 182
f 177 182 178
f 179 180 184
f 179 184 185
f 179 185 186
f 179 186 187
f 179 187 183
f 181 188 182
f 182 188 189
f 183 187 191
f 183 191 190
f 188 192 189
f 189 192 193
f 190 191 194
f 191 195 196
f 191 196 197
f 191 197 194
f 192 198 199
f 192 199 193
f 195 200 196
f 196 200 202
f 196 202 203
f 196 203 201
f 198 204 205
f 198 205 206
f 198 206 207
f 198 207 199
f 201 203 209
f 201 209 208
f 204 210 205
f 205 210 212
f 205 212 211
f 208 209 213
f 209 214 215
f 209 215 216
f 209 216 213
f 211 212 217
f 212 218 217
f 214 219 215
f 215 219 221
f 215 221 220
f 217 222 223
f 217 218 224
f 217 224 225
f 217 225 222
f 220 221 227
f 220 227 228
f 220 228 226
f 222 229 223
f 223 229 230
f 226 228 231
f 228 232 231
f 229 233 234
f 229 234 230
f 231 232 235
f 232 236 235
f 233 237 234
f 234 237 239
f 234 239 238
f 235 236 241
f 235 241 242
f 235 242 240
f 238 239 244
f 238 244 245
f 238 245 243
f 240 242 247
f 240 247 248
f 240 248 246
f 243 245 249
f 243 249 250
f 243 250 251
f 243 251 252
f 246 248 253
f 248 254 255
f 248 255 253
f 251 256 257
f 251 257 252
f 254 258 259
f 254 259 255
f 256 260 257
f 257 260 261
f 257 261 262
f 258 263 259
f 259 263 264
f 261 265 262
f 262 265 266
f 262 266 267
f 263 268 264
f 264 268 269
f 266 270 271
f 266 271 272
f 266 272 267
f 268 273 274
f 268 274 275
f 268 275 276
f 268 276 269
f 270 277 271
f 271 277 279
f 271 279 278
f 273 280 274
f 274 280 278
f 274 278 281
f 278 279 281

