# https://github.com/mikedh/trimesh
v 0.01853564 -0.01491564 0.02167066
v 0.01853564 -0.01471099 0.02107432
v 0.01943104 -0.01443033 0.02104848
v 0.02093261 -0.01403857 0.02139884
v 0.01876411 -0.01483963 0.02167066
v 0.01853564 0.01485519 0.02167066
v 0.01995797 -0.01401518 0.02055756
v 0.01853564 -0.01227565 0.01651751
v 0.02030662 -0.01413505 0.02107225
v 0.02057999 -0.01390409 0.02077666
v 0.02094449 -0.01404442 0.02167066
v 0.01943104 -0.01460575 0.02167066
v 0.02126541 -0.01375206 0.02107225
v 0.02285678 -0.01314103 0.02133270
v 0.02288980 -0.01315565 0.02167066
v 0.01853960 0.01494874 0.02167066
v 0.01853564 0.01495167 0.02166652
v 0.01853564 -0.01220256 0.01638729
v 0.02194025 -0.01314688 0.02048728
v 0.02256228 -0.01298900 0.02071052
v 0.01853564 -0.01170555 0.01553463
v 0.01853564 -0.01165585 0.01544989
v 0.02224268 -0.01329306 0.02103194
v 0.02316581 -0.01281944 0.02103194
v 0.02463700 -0.01217625 0.02143398
v 0.02467662 -0.01219671 0.02167066
v 0.02066848 0.01416230 0.02167066
v 0.01943104 0.01442835 0.02104848
v 0.01853564 0.01470901 0.02107122
v 0.02093261 0.01403951 0.02139884
v 0.01853564 -0.01163246 0.01541165
v 0.02371784 -0.01219087 0.02052448
v 0.02405592 -0.01233412 0.02109292
v 0.02534883 -0.00923513 0.01789520
v 0.02603424 -0.00892230 0.01815462
v 0.02670381 -0.00860656 0.01841403
v 0.02565390 -0.01134010 0.02135544
v 0.02579257 -0.01137519 0.02167066
v 0.02116108 0.01394888 0.02167066
v 0.02030662 0.01413599 0.02107225
v 0.01995797 0.01401612 0.02055756
v 0.01853564 0.01227367 0.01651751
v 0.02126541 0.01375008 0.02107225
v 0.02057999 0.01390210 0.02077666
v 0.02253058 0.01332031 0.02167066
v 0.02285678 0.01314197 0.02133270
v 0.02224268 0.01329400 0.02103194
v 0.01853564 -0.01084894 0.01448561
v 0.01890014 -0.01113545 0.01506128
v 0.02641459 -0.00838729 0.01779185
v 0.02696662 -0.00820602 0.01816185
v 0.02761109 -0.00770024 0.01824970
v 0.02807860 -0.00723540 0.01824970
v 0.02620989 -0.01092203 0.02167066
v 0.01853564 0.01203393 0.01607930
v 0.02256228 0.01298702 0.02071052
v 0.02194025 0.01314782 0.02048728
v 0.02288980 0.01315367 0.02167066
v 0.02316581 0.01282038 0.02103194
v 0.02313279 0.01303964 0.02167066
v 0.02440325 0.01234675 0.02167066
v 0.02467662 0.01219765 0.02167066
v 0.02463700 0.01217426 0.02143398
v 0.01853564 -0.01081386 0.01445047
v 0.02739186 -0.00749559 0.01776291
v 0.01853564 -0.01080216 0.01444013
v 0.01853564 -0.01078170 0.01442360
v 0.01853564 -0.01047180 0.01417349
v 0.01853564 -0.00979645 0.01363089
v 0.02830575 -0.00654543 0.01777531
v 0.02850649 -0.00676762 0.01824970
v 0.02659552 -0.01045134 0.02167066
v 0.02942961 -0.00585839 0.01846984
v 0.02916284 -0.00645188 0.01918297
v 0.01853564 0.01170649 0.01553463
v 0.02405592 0.01233214 0.02109292
v 0.02371784 0.01218888 0.02052448
v 0.01853564 0.01127672 0.01488662
v 0.01853564 0.01163048 0.01541165
v 0.02487868 0.01207194 0.02167066
v 0.02579257 0.01137613 0.02167066
v 0.02565390 0.01133812 0.02135544
v 0.02670381 0.00860457 0.01841403
v 0.02603424 0.00892032 0.01815462
v 0.02534883 0.00923606 0.01789520
v 0.01853564 -0.00977306 0.01361435
v 0.01853564 -0.00886383 0.01304488
v 0.02936226 -0.00486729 0.01769780
v 0.02914700 -0.00549002 0.01784766
v 0.01853564 -0.00797798 0.01263664
v 0.01853564 -0.00699858 0.01221496
v 0.02686097 -0.00979645 0.02167066
v 0.02952866 -0.00598703 0.01918297
v 0.02999485 -0.00536430 0.01918297
v 0.03030916 -0.00489653 0.01918297
v 0.03072781 -0.00419779 0.01918297
v 0.03025766 -0.00481759 0.01977415
v 0.03118475 -0.00302836 0.01976278
v 0.02970695 -0.00515673 0.01820939
v 0.03026162 -0.00482052 0.01857216
v 0.01853564 0.01081188 0.01445047
v 0.02641459 0.00838530 0.01779185
v 0.02609764 0.01108377 0.02167066
v 0.02761109 0.00769826 0.01824970
v 0.02696662 0.00820404 0.01816185
v 0.03017050 -0.00375049 0.01777531
v 0.02998428 -0.00437321 0.01794998
v 0.01853564 -0.00600164 0.01188837
v 0.02694813 -0.00870303 0.02167066
v 0.03130492 -0.00233255 0.01988060
v 0.03070007 -0.00233255 0.02034775
v 0.03078855 -0.00139993 0.02043663
v 0.03032237 -0.00139993 0.02064747
v 0.03104476 -0.00363062 0.01918297
v 0.03124550 -0.00316285 0.01918297
v 0.03154660 -0.00233255 0.01918297
v 0.03179488 -0.00139993 0.01918297
v 0.03039765 -0.00411593 0.01825693
v 0.03120456 -0.00305760 0.01854632
v 0.01853564 0.01077972 0.01442360
v 0.02739186 0.00749361 0.01776291
v 0.01853564 0.00977400 0.01361435
v 0.01853564 0.01028855 0.01402156
v 0.02807860 0.00723341 0.01824970
v 0.02636044 0.01075340 0.02167066
v 0.02916284 0.00645281 0.01918297
v 0.02942961 0.00585933 0.01846984
v 0.02850649 0.00676564 0.01824970
v 0.03079912 -0.00332657 0.01824143
v 0.01853564 -0.00598118 0.01188217
v 0.03027879 -0.00326517 0.01771020
v 0.03105929 -0.00174199 0.01780632
v 0.03094571 -0.00233255 0.01790657
v 0.03035538 -0.00046438 0.02065471
v 0.03035538 0.00046532 0.02065471
v 0.02689530 0.00886185 0.02167066
v 0.03142510 -0.00139993 0.01996948
v 0.03148981 -0.00046438 0.02000462
v 0.03082157 -0.00046438 0.02047177
v 0.03202732 -0.00000538 0.01871478
v 0.03202732 -0.00000538 0.01872202
v 0.03195204 -0.00037667 0.01909305
v 0.03133530 -0.00233255 0.01837372
v 0.01853564 0.00910158 0.01317304
v 0.02830575 0.00654345 0.01777531
v 0.02659552 0.01045227 0.02167066
v 0.02952866 0.00598504 0.01918297
v 0.02970695 0.00515474 0.01820939
v 0.02914700 0.00548803 0.01784766
v 0.03026162 0.00482146 0.01857216
v 0.01853564 -0.00524151 0.01171163
v 0.03047952 -0.00233255 0.01760891
v 0.03112928 -0.00111926 0.01775567
v 0.03140926 -0.00141747 0.01817012
v 0.01853564 -0.00419779 0.01148633
v 0.01853564 -0.00399314 0.01144912
v 0.01853564 -0.00326517 0.01132200
v 0.03082157 0.00046532 0.02047177
v 0.03032237 0.00139794 0.02064747
v 0.02686097 0.00979447 0.02167066
v 0.02689002 0.00916005 0.02167066
v 0.03148981 0.00046532 0.02000462
v 0.03169319 -0.00037667 0.01834168
v 0.03116626 -0.00046438 0.01772777
v 0.03202732 0.00000632 0.01871478
v 0.03202732 0.00000632 0.01872202
v 0.03195204 0.00037469 0.01909305
v 0.01853564 0.00886185 0.01304488
v 0.02936226 0.00486531 0.01769780
v 0.01853564 0.00699660 0.01221496
v 0.01853564 0.00719833 0.01230178
v 0.01853564 0.00796431 0.01263147
v 0.01853564 0.00797600 0.01263664
v 0.01853564 0.00867766 0.01295393
v 0.03030916 0.00489455 0.01918297
v 0.02999485 0.00536232 0.01918297
v 0.02679758 0.01005467 0.02167066
v 0.03118475 0.00302638 0.01976278
v 0.03025766 0.00481561 0.01977415
v 0.03072781 0.00419581 0.01918297
v 0.02998428 0.00437122 0.01794998
v 0.03017050 0.00374850 0.01777531
v 0.03104476 0.00362863 0.01918297
v 0.03120456 0.00305561 0.01854632
v 0.03039765 0.00411395 0.01825693
v 0.01853564 -0.00287926 0.01128376
v 0.01853564 -0.00233255 0.01123001
v 0.03078855 0.00139794 0.02043663
v 0.03070007 0.00233056 0.02034775
v 0.03142510 0.00139794 0.01996948
v 0.01853564 -0.00185600 0.01119901
v 0.01853564 -0.00046438 0.01111219
v 0.03116626 0.00046532 0.01772777
v 0.03169319 0.00037469 0.01834168
v 0.03140926 0.00141548 0.01817012
v 0.03133530 0.00233056 0.01837372
v 0.03179488 0.00139794 0.01918297
v 0.01853564 0.00666039 0.01209611
v 0.03130492 0.00233056 0.01988060
v 0.03154660 0.00233056 0.01918297
v 0.03124550 0.00316379 0.01918297
v 0.01853564 0.00598212 0.01188217
v 0.03079912 0.00332458 0.01824143
v 0.03094571 0.00233056 0.01790657
v 0.03105929 0.00174000 0.01780632
v 0.03027879 0.00326319 0.01771020
v 0.01853564 0.00046532 0.01111219
v 0.01853564 0.00187449 0.01120107
v 0.01853564 0.00233056 0.01123001
v 0.03112928 0.00111728 0.01775567
v 0.01853564 0.00514597 0.01169096
v 0.03047952 0.00233056 0.01760891
v 0.01853564 0.00326319 0.01132200
v 0.01853564 0.00419581 0.01148633
v 0.01853564 0.00500857 0.01166099
f 1 2 3
f 1 3 4
f 1 4 5
f 1 5 12
f 1 12 11
f 1 11 15
f 1 15 26
f 1 26 38
f 1 38 54
f 1 54 72
f 1 72 92
f 1 92 109
f 1 109 136
f 1 136 161
f 1 161 160
f 1 160 177
f 1 177 146
f 1 146 125
f 1 125 103
f 1 103 81
f 1 81 80
f 1 80 62
f 1 62 61
f 1 61 60
f 1 60 58
f 1 58 45
f 1 45 39
f 1 39 27
f 1 27 16
f 1 16 6
f 1 6 17
f 1 17 29
f 1 29 42
f 1 42 55
f 1 55 75
f 1 75 79
f 1 79 78
f 1 78 101
f 1 101 120
f 1 120 123
f 1 123 122
f 1 122 144
f 1 144 168
f 1 168 174
f 1 174 173
f 1 173 172
f 1 172 171
f 1 171 170
f 1 170 198
f 1 198 202
f 1 202 211
f 1 211 215
f 1 215 214
f 1 214 213
f 1 213 209
f 1 209 208
f 1 208 207
f 1 207 192
f 1 192 191
f 1 191 187
f 1 187 186
f 1 186 157
f 1 157 156
f 1 156 155
f 1 155 151
f 1 151 130
f 1 130 108
f 1 108 91
f 1 91 90
f 1 90 87
f 1 87 86
f 1 86 69
f 1 69 68
f 1 68 67
f 1 67 66
f 1 66 64
f 1 64 48
f 1 48 31
f 1 31 22
f 1 22 21
f 1 21 18
f 1 18 8
f 1 8 2
f 2 7 3
f 2 8 7
f 3 9 4
f 3 7 10
f 3 10 9
f 4 11 12
f 4 12 5
f 4 9 10
f 4 10 13
f 4 13 14
f 4 14 15
f 4 15 11
f 6 16 17
f 7 8 18
f 7 18 10
f 10 19 20
f 10 20 13
f 10 18 21
f 10 21 22
f 10 22 19
f 13 20 23
f 13 23 14
f 14 23 20
f 14 20 24
f 14 24 25
f 14 25 26
f 14 26 15
f 16 27 17
f 17 28 29
f 17 27 30
f 17 30 28
f 19 22 31
f 19 31 20
f 20 31 32
f 20 32 33
f 20 33 24
f 24 33 25
f 25 33 32
f 25 32 34
f 25 34 35
f 25 35 36
f 25 36 37
f 25 37 38
f 25 38 26
f 27 39 30
f 28 30 40
f 28 40 41
f 28 41 29
f 29 41 42
f 30 43 44
f 30 44 40
f 30 39 45
f 30 45 46
f 30 46 47
f 30 47 43
f 31 48 49
f 31 49 34
f 31 34 32
f 34 50 35
f 34 49 50
f 35 50 36
f 36 50 51
f 36 51 52
f 36 52 37
f 37 52 38
f 38 52 53
f 38 53 54
f 40 44 41
f 41 44 55
f 41 55 42
f 43 47 56
f 43 56 44
f 44 56 57
f 44 57 55
f 45 58 46
f 46 59 56
f 46 56 47
f 46 58 60
f 46 60 61
f 46 61 62
f 46 62 63
f 46 63 59
f 48 64 50
f 48 50 49
f 50 65 51
f 50 64 66
f 50 66 67
f 50 67 68
f 50 68 69
f 50 69 65
f 51 65 52
f 52 65 53
f 53 65 70
f 53 70 71
f 53 71 54
f 54 71 73
f 54 73 74
f 54 74 72
f 55 57 75
f 56 59 76
f 56 76 77
f 56 77 78
f 56 78 79
f 56 79 57
f 57 79 75
f 59 63 76
f 62 80 63
f 63 80 81
f 63 81 82
f 63 82 83
f 63 83 84
f 63 84 85
f 63 85 77
f 63 77 76
f 65 69 86
f 65 86 87
f 65 87 70
f 70 88 89
f 70 89 73
f 70 73 71
f 70 87 90
f 70 90 91
f 70 91 88
f 72 74 93
f 72 93 94
f 72 94 95
f 72 95 96
f 72 96 97
f 72 97 98
f 72 98 92
f 73 93 74
f 73 89 99
f 73 99 100
f 73 100 93
f 77 85 78
f 78 85 102
f 78 102 101
f 81 103 82
f 82 103 104
f 82 104 83
f 83 104 105
f 83 105 102
f 83 102 84
f 84 102 85
f 88 106 89
f 88 91 106
f 89 106 107
f 89 107 99
f 91 108 106
f 92 98 110
f 92 110 111
f 92 111 112
f 92 112 113
f 92 113 109
f 93 100 94
f 94 100 95
f 95 100 96
f 96 100 114
f 96 114 97
f 97 114 98
f 98 114 115
f 98 115 116
f 98 116 117
f 98 117 110
f 99 107 100
f 100 107 118
f 100 118 119
f 100 119 114
f 101 102 120
f 102 105 121
f 102 121 122
f 102 122 123
f 102 123 120
f 103 124 104
f 103 125 126
f 103 126 127
f 103 127 128
f 103 128 124
f 104 124 121
f 104 121 105
f 106 129 118
f 106 118 107
f 106 108 130
f 106 130 131
f 106 131 132
f 106 132 133
f 106 133 129
f 109 113 134
f 109 134 135
f 109 135 136
f 110 117 137
f 110 137 111
f 111 137 112
f 112 137 138
f 112 138 139
f 112 139 113
f 113 139 134
f 114 119 115
f 115 119 116
f 116 119 117
f 117 119 140
f 117 140 141
f 117 141 142
f 117 142 137
f 118 129 119
f 119 133 143
f 119 143 140
f 119 129 133
f 121 144 122
f 121 124 145
f 121 145 144
f 124 128 145
f 125 146 147
f 125 147 126
f 126 147 127
f 127 148 149
f 127 149 145
f 127 145 128
f 127 147 150
f 127 150 148
f 130 151 131
f 131 152 132
f 131 151 152
f 132 153 154
f 132 154 143
f 132 143 133
f 132 152 155
f 132 155 156
f 132 156 157
f 132 157 153
f 134 139 158
f 134 158 135
f 135 158 159
f 135 159 160
f 135 160 161
f 135 161 136
f 137 142 138
f 138 142 167
f 138 167 162
f 138 162 158
f 138 158 139
f 140 163 164
f 140 164 193
f 140 193 165
f 140 165 166
f 140 166 141
f 140 143 154
f 140 154 163
f 141 166 167
f 141 167 142
f 144 145 168
f 145 149 169
f 145 169 170
f 145 170 171
f 145 171 172
f 145 172 173
f 145 173 174
f 145 174 168
f 146 175 176
f 146 176 147
f 146 177 178
f 146 178 179
f 146 179 180
f 146 180 175
f 147 176 150
f 148 150 181
f 148 181 149
f 149 181 182
f 149 182 169
f 150 175 180
f 150 180 183
f 150 183 184
f 150 184 185
f 150 185 181
f 150 176 175
f 151 155 152
f 153 164 163
f 153 163 154
f 153 157 186
f 153 186 187
f 153 187 164
f 158 162 188
f 158 188 159
f 159 188 160
f 160 188 189
f 160 189 177
f 162 190 188
f 162 167 190
f 164 187 191
f 164 191 192
f 164 192 207
f 164 207 193
f 165 193 194
f 165 194 195
f 165 195 196
f 165 196 184
f 165 184 197
f 165 197 166
f 166 197 167
f 167 197 190
f 169 182 198
f 169 198 170
f 177 189 199
f 177 199 178
f 178 199 197
f 178 197 200
f 178 200 201
f 178 201 183
f 178 183 179
f 179 183 180
f 181 185 182
f 182 202 198
f 182 185 203
f 182 203 204
f 182 204 205
f 182 205 206
f 182 206 202
f 183 201 184
f 184 203 185
f 184 201 200
f 184 200 197
f 184 196 204
f 184 204 203
f 188 190 189
f 189 190 199
f 190 197 199
f 193 207 208
f 193 208 209
f 193 209 210
f 193 210 194
f 194 210 195
f 195 210 205
f 195 205 196
f 196 205 204
f 202 206 211
f 205 212 206
f 205 210 213
f 205 213 214
f 205 214 212
f 206 212 211
f 209 213 210
f 211 212 215
f 212 214 215

