# https://github.com/mikedh/trimesh
v -0.01792599 -0.00046688 0.00741408
v -0.01792599 0.00046573 0.00741408
v -0.01547758 -0.00046688 0.00430048
v -0.01531676 -0.00133382 0.00430048
v -0.01531020 -0.00136666 0.00430048
v -0.01510671 -0.00233211 0.00430048
v -0.01772250 -0.00139949 0.00741408
v -0.01772250 0.00139835 0.00741408
v -0.01510671 0.00233096 0.00430048
v -0.01531676 0.00133267 0.00430048
v -0.01547758 0.00046573 0.00430048
v -0.01484415 -0.00319576 0.00430048
v -0.01726301 -0.00346504 0.00741408
v -0.01731224 0.00324387 0.00741408
v -0.01726301 0.00346389 0.00741408
v -0.01509359 0.00238350 0.00430048
v -0.01483102 -0.00323845 0.00430048
v -0.01700045 -0.00419734 0.00741408
v -0.01483102 0.00323731 0.00430048
v -0.01700045 0.00419619 0.00741408
v -0.01439123 -0.00414808 0.00430048
v -0.01664271 -0.00489680 0.00741408
v -0.01482118 0.00326358 0.00430048
v -0.01664271 0.00489565 0.00741408
v -0.01462425 0.00370361 0.00430048
v -0.01436497 -0.00419734 0.00430048
v -0.01386282 -0.00510368 0.00430048
v -0.01660332 -0.00496247 0.00741408
v -0.01435841 0.00421261 0.00430048
v -0.01437810 0.00417649 0.00430048
v -0.01633091 0.00541450 0.00741408
v -0.01363964 0.00549660 0.00430048
v -0.01386938 0.00509597 0.00430048
v -0.01633091 -0.00541565 0.00741408
v -0.01326221 -0.00608555 0.00430048
v -0.01528722 -0.00713639 0.00741408
v -0.01539881 0.00695134 0.00741408
v -0.01327533 0.00606799 0.00430048
v -0.01528722 0.00713524 0.00741408
v -0.01264846 -0.00688681 0.00430048
v -0.01486384 -0.00774390 0.00741408
v -0.01497543 -0.00758627 0.00741408
v -0.01323923 0.00611725 0.00430048
v -0.01486384 0.00774275 0.00741408
v -0.01251390 -0.00705101 0.00430048
v -0.01473256 -0.00789824 0.00741408
v -0.01285851 0.00663609 0.00430048
v -0.01445359 0.00821891 0.00741408
v -0.01256641 0.00700060 0.00430048
v -0.01199862 -0.00765523 0.00430048
v -0.01445359 -0.00822006 0.00741408
v -0.01112560 0.00864253 0.00430048
v -0.01161462 0.00809741 0.00430048
v -0.01353462 0.00917123 0.00741408
v -0.01158837 -0.00812154 0.00430048
v -0.01112560 -0.00864367 0.00430048
v -0.01353462 -0.00917237 0.00741408
v -0.01282898 0.00989368 0.00741408
v -0.01068580 0.00908256 0.00430048
v -0.01065627 -0.00910670 0.00430048
v -0.01260908 -0.01011156 0.00741408
v -0.01260908 0.01011041 0.00741408
v -0.01214303 0.01055701 0.00741408
v -0.01063329 0.00913182 0.00430048
v -0.01019350 -0.00954017 0.00430048
v -0.01234323 -0.01037098 0.00741408
v -0.01186406 0.01080330 0.00741408
v -0.00920560 0.01042566 0.00430048
v -0.01019350 0.00953902 0.00430048
v -0.00920560 -0.01042681 0.00430048
v -0.01214303 -0.01055816 0.00741408
v -0.01162447 0.01100362 0.00741408
v -0.00865094 0.01090182 0.00430048
v -0.01194283 -0.01073220 0.00741408
v -0.00860171 -0.01093909 0.00430048
v -0.01162447 -0.01100476 0.00741408
v -0.00855248 0.01098063 0.00430048
v -0.01141442 0.01116781 0.00741408
v -0.00818817 0.01126961 0.00430048
v -0.00844745 -0.01106059 0.00430048
v -0.00774838 -0.01159914 0.00430048
v -0.01054796 -0.01181916 0.00741408
v -0.01077442 0.01166039 0.00741408
v -0.00762366 0.01169323 0.00430048
v -0.00763679 -0.01168124 0.00430048
v -0.00946160 -0.01262042 0.00741408
v -0.00974058 0.01242881 0.00741408
v -0.00709525 0.01207744 0.00430048
v -0.00670797 -0.01235443 0.00430048
v -0.00891678 -0.01299806 0.00741408
v -0.00912683 0.01285900 0.00741408
v -0.00670797 0.01235328 0.00430048
v -0.00664889 -0.01239383 0.00430048
v -0.00585792 -0.01291925 0.00430048
v -0.00843104 -0.01329361 0.00741408
v -0.00591044 0.01288527 0.00430048
v -0.00891678 0.01299692 0.00741408
v -0.00565772 -0.01303747 0.00430048
v -0.00519823 -0.01330675 0.00430048
v -0.00773197 -0.01369752 0.00741408
v -0.00864766 0.01317096 0.00741408
v -0.00579556 0.01295751 0.00430048
v -0.00490613 -0.01347094 0.00430048
v -0.00670797 -0.01428205 0.00741408
v -0.00802407 0.01354532 0.00741408
v -0.00545751 0.01315783 0.00430048
v -0.00414470 -0.01388470 0.00430048
v -0.00594326 -0.01469581 0.00741408
v -0.00502100 0.01340740 0.00430048
v -0.00620582 0.01456660 0.00741408
v -0.00372131 -0.01410144 0.00430048
v -0.00542469 -0.01495524 0.00741408
v -0.00414470 0.01388356 0.00430048
v -0.00538531 0.01497380 0.00741408
v -0.00367537 0.01412328 0.00430048
v -0.00367537 -0.01412442 0.00430048
v -0.00534264 -0.01499465 0.00741408
v -0.00534264 0.01499350 0.00741408
v -0.00505710 0.01511829 0.00741408
v -0.00301896 0.01440897 0.00430048
v -0.00362613 -0.01414741 0.00430048
v -0.00296316 -0.01443311 0.00430048
v -0.00482408 -0.01521466 0.00741408
v -0.00433834 0.01541383 0.00741408
v -0.00296316 0.01443196 0.00430048
v -0.00291393 -0.01445281 0.00430048
v -0.00393136 -0.01556932 0.00741408
v -0.00330121 0.01580790 0.00741408
v -0.00206717 0.01477020 0.00430048
v -0.00206717 -0.01477134 0.00430048
v -0.00352439 -0.01572695 0.00741408
v -0.00279906 0.01597866 0.00741408
v -0.00158142 0.01493767 0.00430048
v -0.00199496 0.01479647 0.00430048
v -0.00204091 0.01478005 0.00430048
v -0.00199496 -0.01479761 0.00430048
v -0.00330121 -0.01580904 0.00741408
v -0.00242491 0.01609031 0.00741408
v -0.00107599 0.01509202 0.00430048
v -0.00107599 -0.01509316 0.00430048
v -0.00279906 -0.01597980 0.00741408
v -0.00297629 -0.01592069 0.00741408
v -0.00196870 0.01621838 0.00741408
v -0.00021281 0.01528905 0.00430048
v -0.00140748 0.01636287 0.00741408
v -0.00109896 0.01643511 0.00741408
v -0.00016358 -0.01530004 0.00430048
v -0.00109896 -0.01643626 0.00741408
v -0.00196870 -0.01621952 0.00741408
v -0.00016358 0.01529890 0.00430048
v -0.00059353 0.01653034 0.00741408
v 0.00076524 -0.01544125 0.00430048
v -0.00016686 -0.01660702 0.00741408
v 0.00076524 0.01544010 0.00430048
v -0.00016686 0.01660587 0.00741408
v 0.00170062 -0.01552663 0.00430048
v 0.00064708 -0.01670882 0.00741408
v 0.00033857 -0.01667269 0.00741408
v 0.00164811 0.01552220 0.00430048
v 0.00064708 0.01670767 0.00741408
v 0.00175969 -0.01552663 0.00430048
v 0.00170062 -0.01677449 0.00741408
v 0.00108359 -0.01674822 0.00741408
v 0.00108359 0.01674708 0.00741408
v 0.00127395 0.01676021 0.00741408
v 0.00170062 0.01552548 0.00430048
v 0.00263272 -0.01550693 0.00430048
v 0.00221590 -0.01677121 0.00741408
v 0.00170062 0.01677335 0.00741408
v 0.00238656 0.01676350 0.00741408
v 0.00263272 0.01550578 0.00430048
v 0.00356482 -0.01540184 0.00430048
v 0.00284277 -0.01673180 0.00741408
v 0.00262943 -0.01674822 0.00741408
v 0.00238656 -0.01676464 0.00741408
v 0.00284277 0.01673066 0.00741408
v 0.00356482 0.01540070 0.00430048
v 0.00310533 0.01670110 0.00741408
v 0.00449692 -0.01523765 0.00430048
v 0.00356482 -0.01663986 0.00741408
v 0.00449692 0.01523651 0.00430048
v 0.00356482 0.01663871 0.00741408
v 0.00392584 0.01657632 0.00741408
v 0.00454615 -0.01522452 0.00430048
v 0.00480871 -0.01639357 0.00741408
v 0.00449692 -0.01647238 0.00741408
v 0.00532399 0.01500335 0.00430048
v 0.00449692 0.01647123 0.00741408
v 0.00540276 0.01622823 0.00741408
v 0.00531414 -0.01500778 0.00430048
v 0.00540276 -0.01622938 0.00741408
v 0.00630860 0.01464541 0.00430048
v 0.00611168 0.01595895 0.00741408
v 0.00534368 -0.01499793 0.00430048
v 0.00580645 -0.01607832 0.00741408
v 0.00571784 -0.01486658 0.00430048
v 0.00628891 -0.01465313 0.00430048
v 0.00734901 0.01543025 0.00741408
v 0.00728993 0.01417254 0.00430048
v 0.00611168 -0.01596010 0.00741408
v 0.00734901 -0.01543140 0.00741408
v 0.00638409 -0.01584845 0.00741408
v 0.00727681 -0.01418025 0.00430048
v 0.00782819 0.01519381 0.00741408
v 0.00815311 0.01364055 0.00430048
v 0.00802511 0.01508873 0.00741408
v 0.00730306 -0.01416712 0.00430048
v 0.00802511 -0.01508988 0.00741408
v 0.00883577 0.01319723 0.00430048
v 0.00846162 0.01479647 0.00741408
v 0.00887516 0.01317096 0.00430048
v 0.00767721 -0.01394381 0.00430048
v 0.00863885 -0.01467940 0.00741408
v 0.00813342 -0.01365483 0.00430048
v 0.00887516 -0.01317211 0.00430048
v 0.00883906 0.01453376 0.00741408
v 0.00889813 0.01315454 0.00430048
v 0.00913444 0.01432688 0.00741408
v 0.00936418 -0.01417040 0.00741408
v 0.00933793 -0.01283715 0.00430048
v 0.00952500 0.01404447 0.00741408
v 0.00933793 0.01283601 0.00430048
v 0.00961362 -0.01398322 0.00741408
v 0.00985649 -0.01237413 0.00430048
v 0.01012562 -0.01357602 0.00741408
v 0.00974162 0.01387699 0.00741408
v 0.00983023 0.01239926 0.00430048
v 0.01012562 0.01357488 0.00741408
v 0.01079843 -0.01142838 0.00430048
v 0.01061464 -0.01311628 0.00741408
v 0.01028315 -0.01343153 0.00741408
v 0.00988603 0.01234343 0.00430048
v 0.01058838 0.01313812 0.00741408
v 0.01175679 -0.01190782 0.00741408
v 0.01122838 -0.01248578 0.00741408
v 0.01108069 -0.01264012 0.00741408
v 0.01092643 -0.01280103 0.00741408
v 0.01124151 -0.01093580 0.00430048
v 0.01079843 0.01142724 0.00430048
v 0.01108069 0.01263898 0.00741408
v 0.01126448 -0.01090953 0.00430048
v 0.01194387 -0.01168781 0.00741408
v 0.01194387 0.01168666 0.00741408
v 0.01126448 0.01090839 0.00430048
v 0.01161566 -0.01044323 0.00430048
v 0.01225566 -0.01127732 0.00741408
v 0.01237381 0.01110542 0.00741408
v 0.01159925 0.01046507 0.00430048
v 0.01254120 -0.01087998 0.00741408
v 0.01203576 -0.00979631 0.00430048
v 0.01271515 0.01059970 0.00741408
v 0.01164520 0.01039939 0.00430048
v 0.01161566 0.01044208 0.00430048
v 0.01237053 -0.00928074 0.00430048
v 0.01324027 -0.00976347 0.00741408
v 0.01313853 0.00991010 0.00741408
v 0.01264622 0.00883299 0.00430048
v 0.01238038 0.00925661 0.00430048
v 0.01203576 0.00979516 0.00430048
v 0.01266920 -0.00879473 0.00430048
v 0.01342735 -0.00943180 0.00741408
v 0.01342735 0.00943065 0.00741408
v 0.01266920 0.00879359 0.00430048
v 0.01373586 -0.00885384 0.00741408
v 0.01357176 -0.00916252 0.00741408
v 0.01307617 -0.00798362 0.00430048
v 0.01373586 0.00885269 0.00741408
v 0.01269874 0.00873776 0.00430048
v 0.01310243 -0.00793108 0.00430048
v 0.01400827 -0.00819707 0.00741408
v 0.01408704 0.00798904 0.00741408
v 0.01351925 0.00691522 0.00430048
v 0.01310243 0.00792993 0.00430048
v 0.01333873 -0.00735969 0.00430048
v 0.01414940 -0.00785555 0.00741408
v 0.01447432 0.00698747 0.00741408
v 0.01353894 0.00686268 0.00430048
v 0.01351925 -0.00691637 0.00430048
v 0.01447432 -0.00698861 0.00741408
v 0.01478611 0.00608112 0.00741408
v 0.01383760 0.00606142 0.00430048
v 0.01381791 -0.00611839 0.00430048
v 0.01468109 -0.00643036 0.00741408
v 0.01500601 0.00512881 0.00741408
v 0.01426099 0.00450487 0.00430048
v 0.01411329 0.00512881 0.00430048
v 0.01383760 -0.00606257 0.00430048
v 0.01478611 -0.00608227 0.00741408
v 0.01436601 0.00404513 0.00430048
v 0.01435945 0.00407469 0.00430048
v 0.01524232 0.00393348 0.00741408
v 0.01453668 0.00326358 0.00430048
v 0.01410017 -0.00517921 0.00430048
v 0.01411329 -0.00512995 0.00430048
v 0.01491411 -0.00556014 0.00741408
v 0.01536375 0.00326358 0.00741408
v 0.01454324 0.00321760 0.00430048
v 0.01425771 -0.00453557 0.00430048
v 0.01436601 -0.00404628 0.00430048
v 0.01452683 -0.00331398 0.00430048
v 0.01520621 -0.00420719 0.00741408
v 0.01547206 0.00233096 0.00741408
v 0.01466796 0.00233096 0.00430048
v 0.01453668 -0.00326472 0.00430048
v 0.01536375 -0.00326472 0.00741408
v 0.01548847 0.00212408 0.00741408
v 0.01554098 0.00138521 0.00741408
v 0.01479924 0.00046573 0.00430048
v 0.01466796 -0.00233211 0.00430048
v 0.01544908 -0.00255213 0.00741408
v 0.01560334 0.00046573 0.00741408
v 0.01479924 -0.00046688 0.00430048
v 0.01558693 -0.00074929 0.00741408
v 0.01552129 -0.00167534 0.00741408
v 0.01547206 -0.00233211 0.00741408
v 0.01560334 -0.00046688 0.00741408
f 1 2 11
f 1 11 3
f 1 3 4
f 1 4 5
f 1 5 6
f 1 6 7
f 1 7 13
f 1 13 18
f 1 18 22
f 1 22 28
f 1 28 34
f 1 34 36
f 1 36 42
f 1 42 41
f 1 41 46
f 1 46 51
f 1 51 57
f 1 57 61
f 1 61 66
f 1 66 71
f 1 71 74
f 1 74 76
f 1 76 82
f 1 82 86
f 1 86 90
f 1 90 95
f 1 95 100
f 1 100 104
f 1 104 108
f 1 108 112
f 1 112 117
f 1 117 123
f 1 123 127
f 1 127 131
f 1 131 137
f 1 137 142
f 1 142 141
f 1 141 149
f 1 149 148
f 1 148 153
f 1 153 158
f 1 158 157
f 1 157 163
f 1 163 162
f 1 162 168
f 1 168 175
f 1 175 174
f 1 174 173
f 1 173 180
f 1 180 186
f 1 186 185
f 1 185 191
f 1 191 195
f 1 195 200
f 1 200 202
f 1 202 201
f 1 201 208
f 1 208 213
f 1 213 219
f 1 219 223
f 1 223 225
f 1 225 231
f 1 231 230
f 1 230 237
f 1 237 236
f 1 236 235
f 1 235 234
f 1 234 242
f 1 242 246
f 1 246 249
f 1 249 255
f 1 255 261
f 1 261 265
f 1 265 264
f 1 264 270
f 1 270 275
f 1 275 279
f 1 279 283
f 1 283 288
f 1 288 295
f 1 295 301
f 1 301 305
f 1 305 310
f 1 310 315
f 1 315 314
f 1 314 313
f 1 313 316
f 1 316 311
f 1 311 307
f 1 307 306
f 1 306 302
f 1 302 296
f 1 296 291
f 1 291 284
f 1 284 280
f 1 280 276
f 1 276 271
f 1 271 267
f 1 267 262
f 1 262 256
f 1 256 251
f 1 251 247
f 1 247 243
f 1 243 240
f 1 240 233
f 1 233 228
f 1 228 226
f 1 226 221
f 1 221 218
f 1 218 216
f 1 216 210
f 1 210 206
f 1 206 204
f 1 204 198
f 1 198 193
f 1 193 189
f 1 189 188
f 1 188 183
f 1 183 182
f 1 182 178
f 1 178 176
f 1 176 170
f 1 170 169
f 1 169 165
f 1 165 164
f 1 164 160
f 1 160 155
f 1 155 151
f 1 151 146
f 1 146 145
f 1 145 143
f 1 143 138
f 1 138 132
f 1 132 128
f 1 128 124
f 1 124 119
f 1 119 118
f 1 118 114
f 1 114 110
f 1 110 105
f 1 105 101
f 1 101 97
f 1 97 91
f 1 91 87
f 1 87 83
f 1 83 78
f 1 78 72
f 1 72 67
f 1 67 63
f 1 63 62
f 1 62 58
f 1 58 54
f 1 54 48
f 1 48 44
f 1 44 39
f 1 39 37
f 1 37 31
f 1 31 24
f 1 24 20
f 1 20 15
f 1 15 14
f 1 14 8
f 1 8 2
f 2 8 9
f 2 9 10
f 2 10 11
f 3 11 10
f 3 10 9
f 3 9 16
f 3 16 19
f 3 19 23
f 3 23 25
f 3 25 30
f 3 30 29
f 3 29 33
f 3 33 32
f 3 32 38
f 3 38 43
f 3 43 47
f 3 47 49
f 3 49 53
f 3 53 52
f 3 52 59
f 3 59 64
f 3 64 69
f 3 69 68
f 3 68 73
f 3 73 77
f 3 77 79
f 3 79 84
f 3 84 88
f 3 88 92
f 3 92 96
f 3 96 102
f 3 102 106
f 3 106 109
f 3 109 113
f 3 113 115
f 3 115 120
f 3 120 125
f 3 125 129
f 3 129 135
f 3 135 134
f 3 134 133
f 3 133 139
f 3 139 144
f 3 144 150
f 3 150 154
f 3 154 159
f 3 159 166
f 3 166 171
f 3 171 177
f 3 177 181
f 3 181 187
f 3 187 192
f 3 192 199
f 3 199 205
f 3 205 209
f 3 209 211
f 3 211 217
f 3 217 222
f 3 222 227
f 3 227 232
f 3 232 239
f 3 239 244
f 3 244 248
f 3 248 253
f 3 253 252
f 3 252 259
f 3 259 258
f 3 258 257
f 3 257 263
f 3 263 268
f 3 268 273
f 3 273 272
f 3 272 277
f 3 277 281
f 3 281 286
f 3 286 285
f 3 285 290
f 3 290 289
f 3 289 292
f 3 292 297
f 3 297 303
f 3 303 308
f 3 308 312
f 3 312 309
f 3 309 304
f 3 304 300
f 3 300 299
f 3 299 298
f 3 298 294
f 3 294 293
f 3 293 287
f 3 287 282
f 3 282 278
f 3 278 274
f 3 274 269
f 3 269 266
f 3 266 260
f 3 260 254
f 3 254 250
f 3 250 245
f 3 245 241
f 3 241 238
f 3 238 229
f 3 229 224
f 3 224 220
f 3 220 215
f 3 215 214
f 3 214 212
f 3 212 207
f 3 207 203
f 3 203 197
f 3 197 196
f 3 196 194
f 3 194 190
f 3 190 184
f 3 184 179
f 3 179 172
f 3 172 167
f 3 167 161
f 3 161 156
f 3 156 152
f 3 152 147
f 3 147 140
f 3 140 136
f 3 136 130
f 3 130 126
f 3 126 122
f 3 122 121
f 3 121 116
f 3 116 111
f 3 111 107
f 3 107 103
f 3 103 99
f 3 99 98
f 3 98 94
f 3 94 93
f 3 93 89
f 3 89 85
f 3 85 81
f 3 81 80
f 3 80 75
f 3 75 70
f 3 70 65
f 3 65 60
f 3 60 56
f 3 56 55
f 3 55 50
f 3 50 45
f 3 45 40
f 3 40 35
f 3 35 27
f 3 27 26
f 3 26 21
f 3 21 17
f 3 17 12
f 3 12 6
f 3 6 5
f 3 5 4
f 6 12 13
f 6 13 7
f 8 14 9
f 9 14 15
f 9 15 16
f 12 17 13
f 13 17 18
f 15 19 16
f 15 20 19
f 17 21 18
f 18 21 22
f 19 20 23
f 20 24 25
f 20 25 23
f 21 26 22
f 22 27 28
f 22 26 27
f 24 29 30
f 24 30 25
f 24 31 32
f 24 32 33
f 24 33 29
f 27 34 28
f 27 35 36
f 27 36 34
f 31 37 32
f 32 37 39
f 32 39 38
f 35 40 41
f 35 41 42
f 35 42 36
f 38 39 44
f 38 44 43
f 40 45 41
f 41 45 46
f 43 44 47
f 44 48 49
f 44 49 47
f 45 50 46
f 46 50 51
f 48 52 53
f 48 53 49
f 48 54 52
f 50 55 51
f 51 55 56
f 51 56 57
f 52 54 58
f 52 58 59
f 56 60 61
f 56 61 57
f 58 62 59
f 59 62 63
f 59 63 64
f 60 65 66
f 60 66 61
f 63 67 68
f 63 68 69
f 63 69 64
f 65 70 71
f 65 71 66
f 67 72 73
f 67 73 68
f 70 74 71
f 70 75 76
f 70 76 74
f 72 77 73
f 72 78 79
f 72 79 77
f 75 80 76
f 76 80 81
f 76 81 82
f 78 83 79
f 79 83 84
f 81 85 86
f 81 86 82
f 83 87 84
f 84 87 88
f 85 89 86
f 86 89 90
f 87 91 92
f 87 92 88
f 89 93 90
f 90 94 95
f 90 93 94
f 91 96 92
f 91 97 96
f 94 98 95
f 95 98 99
f 95 99 100
f 96 97 101
f 96 101 102
f 99 103 104
f 99 104 100
f 101 105 102
f 102 105 106
f 103 107 104
f 104 107 108
f 105 109 106
f 105 110 109
f 107 111 108
f 108 111 116
f 108 116 112
f 109 110 113
f 110 114 115
f 110 115 113
f 112 116 117
f 114 118 115
f 115 118 119
f 115 119 120
f 116 121 117
f 117 121 122
f 117 122 123
f 119 124 125
f 119 125 120
f 122 126 123
f 123 126 127
f 124 128 125
f 125 128 129
f 126 130 131
f 126 131 127
f 128 132 133
f 128 133 134
f 128 134 135
f 128 135 129
f 130 136 137
f 130 137 131
f 132 138 139
f 132 139 133
f 136 140 141
f 136 141 142
f 136 142 137
f 138 143 139
f 139 143 145
f 139 145 146
f 139 146 144
f 140 147 148
f 140 148 149
f 140 149 141
f 144 146 150
f 146 151 150
f 147 152 153
f 147 153 148
f 150 151 155
f 150 155 154
f 152 156 157
f 152 157 158
f 152 158 153
f 154 155 160
f 154 160 159
f 156 161 162
f 156 162 163
f 156 163 157
f 159 160 164
f 159 164 165
f 159 165 166
f 161 167 168
f 161 168 162
f 165 169 166
f 166 169 170
f 166 170 171
f 167 172 173
f 167 173 174
f 167 174 175
f 167 175 168
f 170 176 171
f 171 176 178
f 171 178 177
f 172 179 180
f 172 180 173
f 177 178 182
f 177 182 183
f 177 183 181
f 179 184 185
f 179 185 186
f 179 186 180
f 181 183 188
f 181 188 189
f 181 189 187
f 184 190 191
f 184 191 185
f 187 189 192
f 189 193 192
f 190 194 191
f 191 194 196
f 191 196 197
f 191 197 195
f 192 193 198
f 192 198 199
f 195 197 200
f 197 201 202
f 197 202 200
f 197 203 201
f 198 204 199
f 199 204 206
f 199 206 205
f 201 203 207
f 201 207 208
f 205 206 209
f 206 210 211
f 206 211 209
f 207 212 208
f 208 212 214
f 208 214 215
f 208 215 213
f 210 216 211
f 211 216 218
f 211 218 217
f 213 215 219
f 215 220 219
f 217 218 221
f 217 221 222
f 219 220 223
f 220 224 225
f 220 225 223
f 221 226 222
f 222 226 228
f 222 228 227
f 224 229 230
f 224 230 231
f 224 231 225
f 227 228 233
f 227 233 232
f 229 234 235
f 229 235 236
f 229 236 237
f 229 237 230
f 229 238 234
f 232 233 239
f 233 240 239
f 234 238 241
f 234 241 242
f 239 240 243
f 239 243 244
f 241 245 246
f 241 246 242
f 243 247 248
f 243 248 244
f 245 249 246
f 245 250 249
f 247 251 252
f 247 252 253
f 247 253 248
f 249 250 254
f 249 254 255
f 251 256 257
f 251 257 258
f 251 258 259
f 251 259 252
f 254 260 255
f 255 260 261
f 256 262 257
f 257 262 263
f 260 264 265
f 260 265 261
f 260 266 264
f 262 267 263
f 263 267 268
f 264 266 269
f 264 269 270
f 267 271 272
f 267 272 273
f 267 273 268
f 269 274 270
f 270 274 275
f 271 276 272
f 272 276 277
f 274 278 275
f 275 278 279
f 276 280 281
f 276 281 277
f 278 282 279
f 279 282 283
f 280 284 285
f 280 285 286
f 280 286 281
f 282 287 283
f 283 287 288
f 284 289 290
f 284 290 285
f 284 291 292
f 284 292 289
f 287 293 288
f 288 293 294
f 288 294 295
f 291 296 292
f 292 296 297
f 294 298 295
f 295 298 299
f 295 299 300
f 295 300 301
f 296 302 303
f 296 303 297
f 300 304 301
f 301 304 305
f 302 306 303
f 303 306 307
f 303 307 308
f 304 309 305
f 305 309 310
f 307 311 308
f 308 311 316
f 308 316 312
f 309 312 313
f 309 313 314
f 309 314 315
f 309 315 310
f 312 316 313

