# Blender 5.2.0 LTS
# www.blender.org
mtllib white_tip_iso.mtl
o tip
v -0.007896 -0.047153 0.005894
v -0.009241 -0.048410 0.010051
v -0.009571 -0.048703 0.016582
v -0.008519 -0.047787 0.022023
v -0.009210 -0.043114 0.004523
v -0.011020 -0.042783 0.010367
v -0.011024 -0.042687 0.016337
v -0.009765 -0.043881 0.023991
v -0.006883 -0.041690 0.025883
v -0.009187 -0.036513 0.004317
v -0.011069 -0.036501 0.010443
v -0.011095 -0.036480 0.016345
v -0.010699 -0.036518 0.023008
v -0.007158 -0.036446 0.025928
v -0.009181 -0.029935 0.004260
v -0.011117 -0.029982 0.010423
v -0.011157 -0.029982 0.016385
v -0.010619 -0.029922 0.022955
v -0.007244 -0.029922 0.026071
v -0.009179 -0.023312 0.004269
v -0.011145 -0.023633 0.010222
v -0.011183 -0.023689 0.016483
v -0.010488 -0.023329 0.023154
v -0.007136 -0.023472 0.026163
v -0.007864 -0.019627 0.005582
v -0.008413 -0.019818 0.010148
v -0.008471 -0.019879 0.016538
v -0.007927 -0.019709 0.023045
v -0.006529 -0.020648 0.025771
v -0.003256 -0.047084 0.005847
v -0.003252 -0.049223 0.010316
v -0.003240 -0.049620 0.016414
v -0.003241 -0.047671 0.022584
v -0.003193 -0.042762 0.003202
v -0.003140 -0.045183 0.024920
v -0.003180 -0.042505 0.025683
v -0.003072 -0.036400 0.002482
v -0.003240 -0.036434 0.026525
v -0.003042 -0.030011 0.002512
v -0.003224 -0.029918 0.026537
v -0.003205 -0.023561 0.002590
v -0.003251 -0.023422 0.026552
v -0.003245 -0.019659 0.005228
v -0.003188 -0.019636 0.010162
v -0.003165 -0.019625 0.016546
v -0.003228 -0.019626 0.023006
v -0.003247 -0.020286 0.026153
v 0.003046 -0.046776 0.006205
v 0.003014 -0.048355 0.010180
v 0.002919 -0.048549 0.016469
v 0.003127 -0.047481 0.021909
v 0.003065 -0.042918 0.003857
v 0.002998 -0.044361 0.024811
v 0.002926 -0.041104 0.025692
v 0.002925 -0.036429 0.002761
v 0.003085 -0.036460 0.026272
v 0.002904 -0.029974 0.002833
v 0.003052 -0.029917 0.026281
v 0.003150 -0.023454 0.003073
v 0.005539 -0.021052 0.025248
v 0.003612 -0.022910 0.026098
v 0.003150 -0.019836 0.005619
v 0.003131 -0.019708 0.010166
v 0.003088 -0.019678 0.016531
v 0.003708 -0.019756 0.023558
v 0.002044 -0.020352 0.026068
v 0.005670 -0.045504 0.007444
v 0.006256 -0.046075 0.010271
v 0.006454 -0.046243 0.016450
v 0.006127 -0.045932 0.020145
v 0.006716 -0.042783 0.006397
v 0.008499 -0.042859 0.010190
v 0.008946 -0.042832 0.016491
v 0.007155 -0.042264 0.022597
v 0.005575 -0.039583 0.025124
v 0.007432 -0.036412 0.005624
v 0.009376 -0.036391 0.010348
v 0.009531 -0.036356 0.016384
v 0.008122 -0.036453 0.022793
v 0.005693 -0.036425 0.025209
v 0.007442 -0.029959 0.005600
v 0.009466 -0.029966 0.010338
v 0.009554 -0.029986 0.016379
v 0.008177 -0.029936 0.022772
v 0.005728 -0.029925 0.025227
v 0.007375 -0.023525 0.005680
v 0.009539 -0.023455 0.010129
v 0.009578 -0.023566 0.016488
v 0.007572 -0.022875 0.023521
v 0.005677 -0.024509 0.025233
v 0.006858 -0.020064 0.006266
v 0.007461 -0.019756 0.010127
v 0.007621 -0.019721 0.016535
v 0.007246 -0.019784 0.021977
vn -0.8945 -0.3203 -0.3119
vn -0.9632 -0.2672 -0.0300
vn -0.9450 -0.2850 0.1607
vn -0.9556 -0.0049 -0.2946
vn -1.0000 -0.0095 -0.0024
vn -0.9919 -0.0656 0.1090
vn -0.6000 0.0019 0.8000
vn -0.9550 -0.0048 -0.2967
vn -0.9999 -0.0085 -0.0056
vn -0.9975 0.0014 0.0704
vn -0.6575 -0.0055 0.7535
vn -0.9518 -0.0065 -0.3067
vn -1.0000 -0.0043 -0.0065
vn -0.9957 0.0061 0.0925
vn -0.6732 -0.0041 0.7394
vn -0.8529 0.4900 -0.1800
vn -0.8139 0.5811 -0.0008
vn -0.8142 0.5782 0.0533
vn -0.6754 0.3811 0.6313
vn -0.0571 -0.9259 -0.3734
vn -0.1383 -0.9887 -0.0576
vn -0.0750 -0.9665 0.2453
vn -0.0969 -0.4427 -0.8914
vn -0.1578 -0.5706 0.8059
vn -0.1469 -0.4060 0.9020
vn -0.2489 -0.0662 -0.9663
vn -0.0602 -0.0798 0.9950
vn -0.2807 -0.0012 -0.9598
vn -0.1327 -0.0125 0.9911
vn -0.2722 0.0030 -0.9622
vn -0.1075 -0.0075 0.9942
vn -0.1536 0.4766 -0.8656
vn -0.0146 0.9998 0.0169
vn -0.0413 0.9991 0.0038
vn -0.0337 0.9994 -0.0118
vn -0.0652 0.9588 0.2764
vn -0.1139 0.1420 0.9833
vn 0.0923 -0.9114 -0.4010
vn 0.1537 -0.9870 -0.0461
vn 0.1093 -0.9625 0.2482
vn 0.0749 -0.5202 -0.8508
vn 0.1006 -0.6788 0.7274
vn 0.0561 -0.2656 0.9624
vn 0.0732 -0.1394 -0.9875
vn 0.0339 -0.1318 0.9907
vn 0.0502 0.0079 -0.9987
vn 0.0403 -0.0016 0.9992
vn 0.0650 0.0240 -0.9976
vn 0.0535 0.0103 0.9985
vn 0.0595 0.5668 -0.8217
vn 0.0200 0.9997 -0.0161
vn 0.0099 0.9999 -0.0032
vn 0.0137 0.9999 0.0053
vn 0.2944 0.5941 0.7486
vn 0.0073 0.9758 0.2187
vn 0.0410 0.0862 0.9954
vn 0.5430 -0.7870 -0.2930
vn 0.5604 -0.8277 -0.0287
vn 0.5302 -0.8373 0.1333
vn 0.5320 -0.4548 -0.7142
vn 0.7961 -0.5046 -0.3341
vn 0.8125 -0.5810 -0.0486
vn 0.8383 -0.4963 0.2257
vn 0.6020 -0.5421 0.5863
vn 0.5000 -0.3223 0.8038
vn 0.5482 -0.1443 -0.8238
vn 0.9079 -0.1317 -0.3981
vn 0.9926 -0.1119 -0.0479
vn 0.9603 -0.1231 0.2502
vn 0.7414 -0.1104 0.6619
vn 0.3199 -0.0918 0.9430
vn 0.5284 0.0037 -0.8490
vn 0.9222 -0.0082 -0.3867
vn 0.9998 -0.0088 -0.0201
vn 0.9771 -0.0055 0.2126
vn 0.7065 -0.0047 0.7077
vn 0.3720 -0.0019 0.9282
vn 0.5227 0.0138 -0.8524
vn 0.9099 -0.0045 -0.4147
vn 0.9999 -0.0075 -0.0104
vn 0.9697 0.0264 0.2429
vn 0.6936 -0.0071 0.7203
vn 0.5454 0.0183 0.8380
vn 0.3747 -0.0022 0.9272
vn 0.3607 0.3992 -0.8430
vn 0.8854 0.3460 -0.3105
vn 0.0383 0.9978 -0.0545
vn 0.8818 0.4715 -0.0109
vn 0.0103 0.9999 -0.0051
vn 0.9269 0.3394 0.1599
vn 0.0109 0.9999 0.0111
vn 0.5345 0.6558 0.5332
s 0
f 6//1 5//1 1//1 2//1
f 7//2 6//2 2//2 3//2
f 8//3 7//3 3//3 4//3
f 11//4 10//4 5//4 6//4
f 12//5 11//5 6//5 7//5
f 13//6 12//6 7//6 8//6
f 14//7 13//7 8//7 9//7
f 16//8 15//8 10//8 11//8
f 17//9 16//9 11//9 12//9
f 18//10 17//10 12//10 13//10
f 19//11 18//11 13//11 14//11
f 21//12 20//12 15//12 16//12
f 22//13 21//13 16//13 17//13
f 23//14 22//14 17//14 18//14
f 24//15 23//15 18//15 19//15
f 26//16 25//16 20//16 21//16
f 27//17 26//17 21//17 22//17
f 28//18 27//18 22//18 23//18
f 29//19 28//19 23//19 24//19
f 31//20 2//20 1//20 30//20
f 32//21 3//21 2//21 31//21
f 33//22 4//22 3//22 32//22
f 5//23 34//23 30//23 1//23
f 35//24 8//24 4//24 33//24
f 36//25 9//25 8//25 35//25
f 10//26 37//26 34//26 5//26
f 38//27 14//27 9//27 36//27
f 15//28 39//28 37//28 10//28
f 40//29 19//29 14//29 38//29
f 20//30 41//30 39//30 15//30
f 42//31 24//31 19//31 40//31
f 25//32 43//32 41//32 20//32
f 26//33 44//33 43//33 25//33
f 27//34 45//34 44//34 26//34
f 28//35 46//35 45//35 27//35
f 29//36 47//36 46//36 28//36
f 47//37 29//37 24//37 42//37
f 49//38 31//38 30//38 48//38
f 50//39 32//39 31//39 49//39
f 51//40 33//40 32//40 50//40
f 34//41 52//41 48//41 30//41
f 53//42 35//42 33//42 51//42
f 54//43 36//43 35//43 53//43
f 37//44 55//44 52//44 34//44
f 56//45 38//45 36//45 54//45
f 39//46 57//46 55//46 37//46
f 58//47 40//47 38//47 56//47
f 41//48 59//48 57//48 39//48
f 61//49 42//49 40//49 58//49
f 43//50 62//50 59//50 41//50
f 44//51 63//51 62//51 43//51
f 45//52 64//52 63//52 44//52
f 46//53 65//53 64//53 45//53
f 65//54 66//54 61//54 60//54
f 47//55 66//55 65//55 46//55
f 66//56 47//56 42//56 61//56
f 68//57 49//57 48//57 67//57
f 69//58 50//58 49//58 68//58
f 70//59 51//59 50//59 69//59
f 52//60 71//60 67//60 48//60
f 71//61 72//61 68//61 67//61
f 72//62 73//62 69//62 68//62
f 73//63 74//63 70//63 69//63
f 74//64 53//64 51//64 70//64
f 75//65 54//65 53//65 74//65
f 55//66 76//66 71//66 52//66
f 76//67 77//67 72//67 71//67
f 77//68 78//68 73//68 72//68
f 78//69 79//69 74//69 73//69
f 79//70 80//70 75//70 74//70
f 80//71 56//71 54//71 75//71
f 57//72 81//72 76//72 55//72
f 81//73 82//73 77//73 76//73
f 82//74 83//74 78//74 77//74
f 83//75 84//75 79//75 78//75
f 84//76 85//76 80//76 79//76
f 85//77 58//77 56//77 80//77
f 59//78 86//78 81//78 57//78
f 86//79 87//79 82//79 81//79
f 87//80 88//80 83//80 82//80
f 88//81 89//81 84//81 83//81
f 89//82 90//82 85//82 84//82
f 61//83 90//83 89//83 60//83
f 90//84 61//84 58//84 85//84
f 62//85 91//85 86//85 59//85
f 91//86 92//86 87//86 86//86
f 63//87 92//87 91//87 62//87
f 92//88 93//88 88//88 87//88
f 64//89 93//89 92//89 63//89
f 93//90 94//90 89//90 88//90
f 65//91 94//91 93//91 64//91
f 94//92 65//92 60//92 89//92
