# Blender 5.2.0 LTS
# www.blender.org
mtllib white_tip_thumb_iso.mtl
o thumb_tip
v -0.006476 -0.061038 -0.020123
v -0.007322 -0.061631 -0.017132
v -0.007192 -0.061592 -0.010648
v -0.006267 -0.060841 -0.007971
v -0.006013 -0.054591 -0.025904
v -0.008512 -0.058359 -0.023878
v -0.010877 -0.058782 -0.017267
v -0.011027 -0.058929 -0.010420
v -0.008532 -0.058905 -0.005519
v -0.003446 -0.061021 -0.020234
v -0.003477 -0.061822 -0.017224
v -0.003478 -0.061587 -0.010584
v -0.003447 -0.060880 -0.007905
v -0.003433 -0.054625 -0.025955
v -0.003441 -0.058257 -0.023936
v -0.003394 -0.058420 -0.005039
v -0.006411 -0.051808 -0.026422
v -0.010020 -0.051972 -0.024103
v -0.011071 -0.051707 -0.016939
v -0.011215 -0.051726 -0.010855
v -0.009849 -0.051967 -0.004151
v -0.006617 -0.045026 -0.026456
v -0.010152 -0.045073 -0.023960
v -0.011171 -0.045066 -0.016969
v -0.011236 -0.045085 -0.010858
v -0.009731 -0.045082 -0.004072
v -0.006600 -0.038302 -0.026490
v -0.010264 -0.038239 -0.024026
v -0.011237 -0.038604 -0.017031
v -0.011250 -0.038580 -0.010798
v -0.009650 -0.038254 -0.004072
v -0.006497 -0.034997 -0.026535
v -0.009661 -0.032081 -0.024757
v -0.009972 -0.032211 -0.017324
v -0.009961 -0.032164 -0.010422
v -0.009550 -0.032306 -0.004211
v -0.003446 -0.051873 -0.026491
v -0.003275 -0.051680 -0.002403
v -0.003422 -0.045021 -0.026565
v -0.003161 -0.045027 -0.002353
v -0.003425 -0.038239 -0.026634
v -0.003180 -0.038571 -0.002363
v -0.003380 -0.034756 -0.026627
v -0.003411 -0.031653 -0.024070
v -0.003149 -0.031624 -0.017092
v -0.003157 -0.031596 -0.010754
v -0.003536 -0.031723 -0.003332
v -0.000001 -0.060992 -0.020155
v 0.001033 -0.061747 -0.017161
v 0.000741 -0.061491 -0.010648
v -0.000312 -0.060767 -0.007955
v -0.000429 -0.054583 -0.025884
v 0.002408 -0.058223 -0.023621
v 0.004276 -0.060499 -0.017124
v 0.004041 -0.060456 -0.010641
v 0.002565 -0.058544 -0.005788
v 0.007271 -0.056394 -0.021655
v 0.007801 -0.057310 -0.017149
v 0.007810 -0.057300 -0.010611
v 0.006930 -0.056125 -0.006715
v 0.000525 -0.051763 -0.026586
v 0.003784 -0.051743 -0.025748
v 0.003227 -0.051848 -0.002693
v 0.001459 -0.045015 -0.026609
v 0.004407 -0.044990 -0.025651
v 0.003036 -0.045041 -0.002576
v 0.001513 -0.038347 -0.026596
v 0.004518 -0.038447 -0.025758
v 0.003049 -0.038426 -0.002684
v 0.000928 -0.034877 -0.026594
v 0.003847 -0.031700 -0.025212
v 0.003028 -0.031659 -0.017076
v 0.003060 -0.031670 -0.010747
v 0.003635 -0.031790 -0.003696
v 0.008196 -0.051846 -0.022812
v 0.009569 -0.051739 -0.017132
v 0.009495 -0.051776 -0.010652
v 0.007773 -0.051804 -0.005740
v 0.008141 -0.045031 -0.023010
v 0.009591 -0.045024 -0.017042
v 0.009530 -0.045036 -0.010765
v 0.007686 -0.045040 -0.005668
v 0.008045 -0.038371 -0.023016
v 0.009590 -0.038459 -0.017074
v 0.009564 -0.038414 -0.010729
v 0.007697 -0.038382 -0.005672
v 0.008207 -0.033249 -0.022683
v 0.009588 -0.031887 -0.017408
v 0.009588 -0.031856 -0.010285
v 0.007820 -0.033555 -0.005773
vn -0.5733 -0.7723 -0.2735
vn -0.5980 -0.8015 -0.0074
vn -0.4853 -0.8202 0.3029
vn -0.0314 -0.9725 -0.2307
vn -0.0246 -0.9995 0.0211
vn -0.0104 -0.9643 0.2646
vn -0.0082 -0.4775 -0.8786
vn -0.0003 -0.8078 -0.5895
vn -0.0006 -0.7709 0.6369
vn -0.4951 -0.1718 -0.8516
vn -0.9633 -0.1200 -0.2403
vn -0.9994 -0.0270 -0.0230
vn -0.9426 -0.1209 0.3113
vn -0.5587 -0.0072 -0.8294
vn -0.9894 -0.0158 -0.1445
vn -0.9998 -0.0092 -0.0171
vn -0.9781 0.0059 0.2082
vn -0.5673 -0.0101 -0.8234
vn -0.9898 -0.0146 -0.1414
vn -1.0000 -0.0061 -0.0062
vn -0.9746 0.0039 0.2238
vn -0.5367 -0.0291 -0.8433
vn -0.9866 0.1401 -0.0831
vn -0.9807 0.1956 -0.0011
vn -0.9826 0.1075 0.1512
vn -0.0246 -0.1886 -0.9817
vn -0.1603 -0.2903 0.9434
vn -0.0291 -0.0083 -0.9995
vn -0.2549 -0.0048 0.9669
vn -0.0396 -0.0077 -0.9992
vn -0.2542 0.0019 0.9671
vn -0.0372 -0.0047 -0.9993
vn 0.0094 0.5878 -0.8089
vn -0.0779 0.9969 0.0067
vn -0.0845 0.9964 -0.0057
vn -0.0903 0.9957 0.0198
vn -0.2040 0.0804 0.9757
vn 0.0172 -0.9671 -0.2536
vn 0.0197 -0.9991 0.0377
vn 0.0316 -0.9643 0.2630
vn 0.0420 -0.4948 -0.8680
vn 0.0309 -0.7963 -0.6042
vn 0.3692 -0.8466 -0.3832
vn 0.3289 -0.9437 0.0350
vn 0.3110 -0.8599 0.4047
vn 0.0573 -0.7473 0.6620
vn 0.5394 -0.7699 -0.3409
vn 0.6562 -0.7544 0.0144
vn 0.5467 -0.7324 0.4058
vn 0.0014 -0.2170 -0.9762
vn 0.2582 -0.3397 -0.9044
vn 0.0672 -0.3948 0.9163
vn -0.0157 -0.0061 -0.9999
vn 0.2779 -0.0269 -0.9602
vn 0.0402 -0.0121 0.9991
vn -0.0007 -0.0042 -1.0000
vn 0.2886 -0.0104 -0.9574
vn 0.0436 0.0090 0.9990
vn 0.0078 0.0020 -1.0000
vn 0.3087 0.0888 -0.9470
vn -0.0715 0.5535 -0.8298
vn 0.0057 1.0000 -0.0045
vn 0.0088 1.0000 -0.0013
vn 0.0111 0.9998 0.0169
vn 0.0497 0.1443 0.9883
vn 0.4881 -0.3410 -0.8034
vn 0.9416 -0.2728 -0.1976
vn 0.9548 -0.2971 0.0041
vn 0.9151 -0.2639 0.3048
vn 0.4613 -0.3622 0.8099
vn 0.5644 -0.0298 -0.8250
vn 0.9719 0.0004 -0.2356
vn 0.9999 -0.0043 0.0105
vn 0.9420 0.0046 0.3357
vn 0.5552 -0.0003 0.8317
vn 0.5957 -0.0076 -0.8032
vn 0.9698 0.0065 -0.2438
vn 1.0000 -0.0024 0.0069
vn 0.9392 -0.0040 0.3433
vn 0.5473 0.0061 0.8369
vn 0.5646 0.0850 -0.8210
vn 0.9679 -0.0133 -0.2510
vn 0.1812 0.9773 -0.1099
vn 1.0000 -0.0017 0.0019
vn 0.0317 0.9995 -0.0015
vn 0.9359 -0.0227 0.3516
vn 0.2016 0.9642 0.1725
vn 0.5045 0.0525 0.8618
s 0
f 7//1 6//1 1//1 2//1
f 8//2 7//2 2//2 3//2
f 9//3 8//3 3//3 4//3
f 11//4 2//4 1//4 10//4
f 12//5 3//5 2//5 11//5
f 13//6 4//6 3//6 12//6
f 15//7 6//7 5//7 14//7
f 6//8 15//8 10//8 1//8
f 16//9 9//9 4//9 13//9
f 18//10 17//10 5//10 6//10
f 19//11 18//11 6//11 7//11
f 20//12 19//12 7//12 8//12
f 21//13 20//13 8//13 9//13
f 23//14 22//14 17//14 18//14
f 24//15 23//15 18//15 19//15
f 25//16 24//16 19//16 20//16
f 26//17 25//17 20//17 21//17
f 28//18 27//18 22//18 23//18
f 29//19 28//19 23//19 24//19
f 30//20 29//20 24//20 25//20
f 31//21 30//21 25//21 26//21
f 33//22 32//22 27//22 28//22
f 34//23 33//23 28//23 29//23
f 35//24 34//24 29//24 30//24
f 36//25 35//25 30//25 31//25
f 17//26 37//26 14//26 5//26
f 38//27 21//27 9//27 16//27
f 22//28 39//28 37//28 17//28
f 40//29 26//29 21//29 38//29
f 27//30 41//30 39//30 22//30
f 42//31 31//31 26//31 40//31
f 32//32 43//32 41//32 27//32
f 33//33 44//33 43//33 32//33
f 34//34 45//34 44//34 33//34
f 35//35 46//35 45//35 34//35
f 36//36 47//36 46//36 35//36
f 47//37 36//37 31//37 42//37
f 49//38 11//38 10//38 48//38
f 50//39 12//39 11//39 49//39
f 51//40 13//40 12//40 50//40
f 53//41 15//41 14//41 52//41
f 15//42 53//42 48//42 10//42
f 53//43 54//43 49//43 48//43
f 54//44 55//44 50//44 49//44
f 55//45 56//45 51//45 50//45
f 56//46 16//46 13//46 51//46
f 58//47 54//47 53//47 57//47
f 59//48 55//48 54//48 58//48
f 60//49 56//49 55//49 59//49
f 37//50 61//50 52//50 14//50
f 61//51 62//51 53//51 52//51
f 63//52 38//52 16//52 56//52
f 39//53 64//53 61//53 37//53
f 64//54 65//54 62//54 61//54
f 66//55 40//55 38//55 63//55
f 41//56 67//56 64//56 39//56
f 67//57 68//57 65//57 64//57
f 69//58 42//58 40//58 66//58
f 43//59 70//59 67//59 41//59
f 70//60 71//60 68//60 67//60
f 44//61 71//61 70//61 43//61
f 45//62 72//62 71//62 44//62
f 46//63 73//63 72//63 45//63
f 47//64 74//64 73//64 46//64
f 74//65 47//65 42//65 69//65
f 62//66 75//66 57//66 53//66
f 75//67 76//67 58//67 57//67
f 76//68 77//68 59//68 58//68
f 77//69 78//69 60//69 59//69
f 78//70 63//70 56//70 60//70
f 65//71 79//71 75//71 62//71
f 79//72 80//72 76//72 75//72
f 80//73 81//73 77//73 76//73
f 81//74 82//74 78//74 77//74
f 82//75 66//75 63//75 78//75
f 68//76 83//76 79//76 65//76
f 83//77 84//77 80//77 79//77
f 84//78 85//78 81//78 80//78
f 85//79 86//79 82//79 81//79
f 86//80 69//80 66//80 82//80
f 71//81 87//81 83//81 68//81
f 87//82 88//82 84//82 83//82
f 72//83 88//83 87//83 71//83
f 88//84 89//84 85//84 84//84
f 73//85 89//85 88//85 72//85
f 89//86 90//86 86//86 85//86
f 74//87 90//87 89//87 73//87
f 90//88 74//88 69//88 86//88
